<svg width="186" height="186" viewBox="0 0 186 186" fill="none" xmlns="http://www.w3.org/2000/svg">
<circle cx="93" cy="93" r="93" fill="#1F2F1A"/>
<g clip-path="url(#clip0_324_13680)">
<mask id="mask0_324_13680" style="mask-type:luminance" maskUnits="userSpaceOnUse" x="79" y="17" width="29" height="21">
<path d="M79.3828 17.0869H107.943V37.2882H79.3828V17.0869Z" fill="white"/>
</mask>
<g mask="url(#mask0_324_13680)">
<path d="M101.107 36.0477C100.804 36.0477 100.554 35.7943 100.554 35.4729C100.554 35.1583 100.804 34.8982 101.107 34.8982C101.416 34.8982 101.66 35.1583 101.66 35.4729C101.66 35.7943 101.416 36.0477 101.107 36.0477ZM98.6077 36.0477C98.3049 36.0477 98.0547 35.7943 98.0547 35.4729C98.0547 35.1583 98.3049 34.8982 98.6077 34.8982C98.9169 34.8982 99.1607 35.1583 99.1607 35.4729C99.1607 35.7943 98.9169 36.0477 98.6077 36.0477ZM96.1087 36.0477C95.8059 36.0477 95.5572 35.7943 95.5572 35.4729C95.5572 35.1583 95.8059 34.8982 96.1087 34.8982C96.4131 34.8982 96.6633 35.1583 96.6633 35.4729C96.6633 35.7943 96.4131 36.0477 96.1087 36.0477ZM93.6432 36.041C93.3547 36.0212 93.1252 35.7843 93.1252 35.4729C93.1252 35.1682 93.3547 34.9264 93.6432 34.9049C93.9332 34.9264 94.1627 35.1682 94.1627 35.4729C94.1627 35.7843 93.9332 36.0212 93.6432 36.041ZM91.1792 36.0477C90.8748 36.0477 90.6262 35.7943 90.6262 35.4729C90.6262 35.1583 90.8748 34.8982 91.1792 34.8982C91.482 34.8982 91.7322 35.1583 91.7322 35.4729C91.7322 35.7943 91.482 36.0477 91.1792 36.0477ZM88.6802 36.0477C88.371 36.0477 88.1272 35.7943 88.1272 35.4729C88.1272 35.1583 88.371 34.8982 88.6802 34.8982C88.983 34.8982 89.2332 35.1583 89.2332 35.4729C89.2332 35.7943 88.983 36.0477 88.6802 36.0477ZM86.1812 36.0477C85.872 36.0477 85.6282 35.7943 85.6282 35.4729C85.6282 35.1583 85.872 34.8982 86.1812 34.8982C86.4856 34.8982 86.7342 35.1583 86.7342 35.4729C86.7342 35.7943 86.4856 36.0477 86.1812 36.0477ZM100.31 27.6654C100.136 28.2285 100.174 28.838 100.38 29.3895C100.727 30.3137 101.102 32.0147 99.7297 32.9886C97.7789 34.3864 95.8824 32.5778 95.5238 30.5224C95.1556 28.4256 95.6433 26.9052 97.2323 26.3984C98.8133 25.8915 93.6129 17.0869 93.6129 17.0869C93.6129 17.0869 88.4746 25.8915 90.0572 26.3984C91.6446 26.9052 92.1323 28.4256 91.7641 30.5224C91.4071 32.5778 89.509 34.3864 87.5582 32.9886C86.186 32.0147 86.5605 30.3137 86.908 29.3895C87.1136 28.838 87.1518 28.2285 86.9781 27.6654C85.6505 23.3691 79.4492 23.4237 79.4492 23.4237C85.4879 32.1041 85.4226 37.0447 85.4226 37.0447H101.865C101.865 37.0447 101.8 32.1041 107.839 23.4237C107.839 23.4237 101.639 23.3691 100.31 27.6654Z" fill="#DBBE67"/>
</g>
<path d="M100.921 38.252H86.3728C85.8835 38.252 85.4883 38.6627 85.4883 39.1695C85.4883 39.678 85.8835 40.0887 86.3728 40.0887H100.921C101.408 40.0887 101.803 39.678 101.803 39.1695C101.803 38.6627 101.408 38.252 100.921 38.252Z" fill="#DBBE67"/>
<mask id="mask1_324_13680" style="mask-type:luminance" maskUnits="userSpaceOnUse" x="79" y="17" width="29" height="21">
<path d="M79.3828 17.0869H107.943V37.2882H79.3828V17.0869Z" fill="white"/>
</mask>
<g mask="url(#mask1_324_13680)">
<path d="M101.107 36.0477C100.804 36.0477 100.554 35.7943 100.554 35.4729C100.554 35.1583 100.804 34.8982 101.107 34.8982C101.416 34.8982 101.66 35.1583 101.66 35.4729C101.66 35.7943 101.416 36.0477 101.107 36.0477ZM98.6077 36.0477C98.3049 36.0477 98.0547 35.7943 98.0547 35.4729C98.0547 35.1583 98.3049 34.8982 98.6077 34.8982C98.9169 34.8982 99.1607 35.1583 99.1607 35.4729C99.1607 35.7943 98.9169 36.0477 98.6077 36.0477ZM96.1087 36.0477C95.8059 36.0477 95.5572 35.7943 95.5572 35.4729C95.5572 35.1583 95.8059 34.8982 96.1087 34.8982C96.4131 34.8982 96.6633 35.1583 96.6633 35.4729C96.6633 35.7943 96.4131 36.0477 96.1087 36.0477ZM93.6432 36.041C93.3547 36.0212 93.1252 35.7843 93.1252 35.4729C93.1252 35.1682 93.3547 34.9264 93.6432 34.9049C93.9332 34.9264 94.1627 35.1682 94.1627 35.4729C94.1627 35.7843 93.9332 36.0212 93.6432 36.041ZM91.1792 36.0477C90.8748 36.0477 90.6262 35.7943 90.6262 35.4729C90.6262 35.1583 90.8748 34.8982 91.1792 34.8982C91.482 34.8982 91.7322 35.1583 91.7322 35.4729C91.7322 35.7943 91.482 36.0477 91.1792 36.0477ZM88.6802 36.0477C88.371 36.0477 88.1272 35.7943 88.1272 35.4729C88.1272 35.1583 88.371 34.8982 88.6802 34.8982C88.983 34.8982 89.2332 35.1583 89.2332 35.4729C89.2332 35.7943 88.983 36.0477 88.6802 36.0477ZM86.1812 36.0477C85.872 36.0477 85.6282 35.7943 85.6282 35.4729C85.6282 35.1583 85.872 34.8982 86.1812 34.8982C86.4856 34.8982 86.7342 35.1583 86.7342 35.4729C86.7342 35.7943 86.4856 36.0477 86.1812 36.0477ZM100.31 27.6654C100.136 28.2285 100.174 28.838 100.38 29.3895C100.727 30.3137 101.102 32.0147 99.7297 32.9886C97.7789 34.3864 95.8824 32.5778 95.5238 30.5224C95.1556 28.4256 95.6433 26.9052 97.2323 26.3984C98.8133 25.8915 93.6129 17.0869 93.6129 17.0869C93.6129 17.0869 88.4746 25.8915 90.0572 26.3984C91.6446 26.9052 92.1323 28.4256 91.7641 30.5224C91.4071 32.5778 89.509 34.3864 87.5582 32.9886C86.186 32.0147 86.5605 30.3137 86.908 29.3895C87.1136 28.838 87.1518 28.2285 86.9781 27.6654C85.6505 23.3691 79.4492 23.4237 79.4492 23.4237C85.4879 32.1041 85.4226 37.0447 85.4226 37.0447H101.865C101.865 37.0447 101.8 32.1041 107.839 23.4237C107.839 23.4237 101.639 23.3691 100.31 27.6654Z" fill="#DBBE67"/>
</g>
<path d="M100.921 38.252H86.3728C85.8835 38.252 85.4883 38.6627 85.4883 39.1695C85.4883 39.678 85.8835 40.0887 86.3728 40.0887H100.921C101.408 40.0887 101.803 39.678 101.803 39.1695C101.803 38.6627 101.408 38.252 100.921 38.252Z" fill="#DBBE67"/>
<path d="M95.2839 42.7884C94.6688 41.9868 93.5452 41.856 92.7738 42.4953C92.0024 43.1346 91.8765 44.3022 92.4917 45.1039C93.1069 45.9055 94.2305 46.0363 95.0019 45.397C95.7732 44.7577 95.8991 43.5901 95.2839 42.7884Z" fill="#DBBE67"/>
<path d="M86.4504 43.7722C86.1794 44.0223 86.146 44.3668 86.1364 44.7246C86.1284 45.0227 85.7683 45.0343 85.6694 44.7891C85.5005 44.3734 85.5786 43.8997 85.875 43.5635C86.0535 43.3598 86.5508 43.06 86.7755 43.3482C86.9014 43.5105 86.5301 43.6977 86.4504 43.7722ZM86.5428 42.7139C85.5579 42.7139 84.7578 43.5436 84.7578 44.5689C84.7578 45.5941 85.5579 46.4255 86.5428 46.4255C87.5293 46.4255 88.3294 45.5941 88.3294 44.5689C88.3294 43.5436 87.5293 42.7139 86.5428 42.7139Z" fill="#DBBE67"/>
<path d="M79.9265 45.8096C79.7671 46.0316 79.528 46.1558 79.3846 46.3993C79.2348 46.656 79.1615 46.9657 79.1041 47.2572C79.0642 47.4609 78.7327 47.4692 78.6993 47.2572C78.6339 46.8316 78.6817 46.4341 78.9335 46.0763C79.1312 45.7931 79.4834 45.5198 79.8356 45.5778C79.9265 45.591 79.9822 45.7335 79.9265 45.8096ZM80.054 45.0345C79.0977 44.7811 78.1255 45.3823 77.8833 46.3761C77.641 47.3698 78.2195 48.3801 79.1758 48.6319C80.1305 48.8853 81.1026 48.2841 81.3465 47.2903C81.5887 46.2966 81.0102 45.2863 80.054 45.0345Z" fill="#DBBE67"/>
<path d="M73.5062 49.4016C73.3277 49.6004 73.0966 49.6998 72.9547 49.9449C72.8193 50.1784 72.7635 50.4881 72.7762 50.7565C72.7906 51.0065 72.4591 51.0165 72.3858 50.8111C72.2391 50.3987 72.2965 50.0029 72.5308 49.6368C72.7157 49.347 73.0822 49.0406 73.4376 49.1317C73.554 49.1631 73.5827 49.3155 73.5062 49.4016ZM73.3452 48.6895C72.3587 48.6895 71.5586 49.5209 71.5586 50.5461C71.5586 51.5713 72.3587 52.4028 73.3452 52.4028C74.3317 52.4028 75.1318 51.5713 75.1318 50.5461C75.1318 49.5209 74.3317 48.6895 73.3452 48.6895Z" fill="#DBBE67"/>
<path d="M68.2557 54.0561C68.0549 54.1985 67.8413 54.2598 67.6756 54.4585C67.5114 54.654 67.4317 54.9074 67.3744 55.1542C67.3218 55.3827 66.9488 55.4026 66.9106 55.1542C66.8452 54.7302 66.9584 54.3343 67.2644 54.0312C67.5114 53.7894 67.9386 53.6139 68.2557 53.801C68.3545 53.859 68.3418 53.9948 68.2557 54.0561ZM67.9975 53.0723C67.0094 53.0723 66.2109 53.9037 66.2109 54.9289C66.2109 55.9541 67.0094 56.7856 67.9975 56.7856C68.9825 56.7856 69.7825 55.9541 69.7825 54.9289C69.7825 53.9037 68.9825 53.0723 67.9975 53.0723Z" fill="#DBBE67"/>
<path d="M63.6486 59.0774C63.3139 59.3159 63.0509 59.4898 63.0047 59.9602C62.9856 60.1556 62.7035 60.2269 62.6541 60.0099C62.5696 59.6289 62.6573 59.2944 62.9441 59.031C63.1226 58.8671 63.4095 58.6965 63.6486 58.8124C63.7569 58.8654 63.7314 59.0194 63.6486 59.0774ZM63.7553 58.2808C62.7688 58.2808 61.9688 59.1105 61.9688 60.1374C61.9688 61.161 62.7688 61.9924 63.7553 61.9924C64.7419 61.9924 65.5419 61.161 65.5419 60.1374C65.5419 59.1105 64.7419 58.2808 63.7553 58.2808Z" fill="#DBBE67"/>
<path d="M60.0791 65.5371C59.9309 65.6828 59.7572 65.7805 59.6408 65.9611C59.5261 66.1383 59.4512 66.3735 59.4129 66.5805C59.3731 66.7892 59.1069 66.7097 59.0878 66.5358C59.0241 65.9843 59.389 65.3035 59.9963 65.3317C60.0935 65.3367 60.1556 65.4625 60.0791 65.5371ZM60.1811 64.7769C59.1946 64.7769 58.3945 65.6083 58.3945 66.6335C58.3945 67.6587 59.1946 68.4902 60.1811 68.4902C61.1677 68.4902 61.9677 67.6587 61.9677 66.6335C61.9677 65.6083 61.1677 64.7769 60.1811 64.7769Z" fill="#DBBE67"/>
<path d="M57.9885 73.3546C57.8578 73.5584 57.6411 73.676 57.5136 73.8896C57.3813 74.1149 57.3622 74.3881 57.3159 74.6415C57.2697 74.895 56.9494 74.837 56.8777 74.6415C56.7438 74.2871 56.8187 73.9012 57.0227 73.5915C57.1916 73.3331 57.5215 73.0499 57.8403 73.088C57.9582 73.1012 58.0666 73.2304 57.9885 73.3546ZM57.9311 72.6309C56.9446 72.6309 56.1445 73.4623 56.1445 74.4875C56.1445 75.5127 56.9446 76.3442 57.9311 76.3442C58.9177 76.3442 59.7177 75.5127 59.7177 74.4875C59.7177 73.4623 58.9177 72.6309 57.9311 72.6309Z" fill="#DBBE67"/>
<path d="M57.3394 81.0908C57.1466 81.1885 56.9442 81.2332 56.8007 81.4121C56.6557 81.5943 56.6158 81.8411 56.5569 82.063C56.5027 82.2651 56.1935 82.28 56.1473 82.063C56.0054 81.3989 56.5266 80.4184 57.2948 80.7331C57.4303 80.7877 57.502 81.0097 57.3394 81.0908ZM57.2358 80.0938C56.2493 80.0938 55.4492 80.9252 55.4492 81.9487C55.4492 82.974 56.2493 83.8054 57.2358 83.8054C58.2223 83.8054 59.0224 82.974 59.0224 81.9487C59.0224 80.9252 58.2223 80.0938 57.2358 80.0938Z" fill="#DBBE67"/>
<path d="M57.336 54.4914C56.7989 56.56 55.594 58.367 55.1764 60.4721C55.1589 60.5615 55.0203 60.54 55.0234 60.4506C55.0952 58.6618 55.857 57.0867 56.4148 55.4222C57.116 53.3287 57.3439 48.6945 57.3997 48.9413C57.8141 50.8029 57.8173 52.6413 57.336 54.4914ZM53.0456 90.5628C53.1476 90.6026 49.1903 89.7364 46.72 86.6955C43.3094 82.4969 42.5428 79.4047 42.6639 79.6349C44.9207 83.9296 48.4731 88.8271 53.0456 90.5628ZM49.6876 59.4204C49.6812 63.667 48.1608 67.5592 47.5679 71.7114C46.9559 75.9862 48.4636 80.0523 50.8064 83.5072C50.8606 83.5867 50.7363 83.6844 50.6773 83.6116C48.3424 80.7926 46.8555 77.0561 46.7264 73.3229C46.5622 68.5877 49.6876 59.0841 49.6876 59.4204ZM50.4813 67.5327C49.0915 76.3439 50.6359 79.201 50.6008 79.1529C47.2619 74.4873 50.5323 67.1998 50.4813 67.5327ZM80.2174 35.9728C79.1895 32.1204 74.931 31.8703 72.4081 34.3464C70.9434 35.7873 69.9808 37.5661 69.3082 39.4874C68.4715 37.2746 66.3741 35.8122 63.805 36.8076C62.2973 37.3922 60.8677 38.8017 60.4773 40.458C60.2462 41.4285 60.4071 42.5299 60.9713 43.3034C61.2821 43.8466 61.8479 44.2127 62.4981 44.2127C63.4847 44.2127 64.2847 43.3812 64.2847 42.356C64.2847 41.3308 63.4847 40.501 62.4981 40.501C62.2702 40.501 62.0535 40.5491 61.8527 40.6302C62.1029 39.6712 62.8249 38.8166 63.8719 38.2651C66.1207 37.0676 68.2388 38.7388 68.3966 41.1933C68.642 45.0292 65.394 49.0936 62.9125 51.5548C61.2518 53.1978 59.5385 54.9998 58.0229 56.9658C59.1226 55.3029 59.7744 53.115 59.4939 51.0961C59.3569 50.1172 58.9887 49.1433 58.289 48.4543C57.9862 48.1579 57.6515 47.9127 57.3503 47.603C57.1192 47.3662 56.249 46.8345 56.1454 46.5828C57.626 50.2414 55.8458 54.8822 54.6569 58.4084C54.0879 60.0862 53.4185 61.7226 52.6583 63.3109C52.5531 63.5246 52.4336 63.7366 52.3013 63.9568C52.6599 61.2621 52.4065 58.4796 51.6049 55.8926C51.2016 54.5874 50.655 53.3287 49.9649 52.1594C49.6605 51.6443 49.38 51.1292 49.0851 50.6108C48.8604 50.2182 48.1416 49.6336 48.0333 49.251C48.1608 49.6998 48.2564 50.1536 48.3393 50.6141C49.1839 55.3129 47.23 60.3512 46.0044 64.7999C44.7533 69.343 43.5963 74.3631 45.4482 78.9177C45.0625 78.9177 44.0298 77.664 43.7429 77.3741C43.1819 76.811 42.6559 76.2048 42.2448 75.5141C41.3188 73.954 41.2056 72.6058 41.0574 70.7988C39.7362 73.0099 39.9274 76.3472 40.4359 78.7852C40.9745 81.3756 42.1236 83.8269 43.7668 85.8541C45.3207 87.7721 47.3336 89.1269 49.364 90.4403C50.2167 90.9901 51.0104 91.5814 51.7977 92.1926C50.5817 91.8282 49.2971 91.6974 47.9552 91.911C43.8592 92.5702 41.1801 96.5999 41.3985 100.793C41.6232 105.029 44.4951 108.858 48.9337 107.717C52.797 106.726 54.0066 100.373 49.9888 99.3675C49.9458 99.3575 49.9011 99.3608 49.8565 99.3708C49.7577 99.3526 49.6605 99.3393 49.5569 99.3393C48.5704 99.3393 47.7719 100.169 47.7719 101.196C47.7719 102.221 48.5704 103.051 49.5569 103.051C50.3075 103.051 50.9482 102.571 51.2112 101.89C51.6909 103.48 50.9482 105.383 49.2509 106.156C46.6642 107.339 44.0712 105.812 43.1851 103.2C41.6232 98.6006 44.2162 93.2178 49.2254 93.1764C53.1364 93.1433 56.657 96.4707 59.2963 99.1488C62.1077 102.001 64.7644 104.923 67.8946 107.395C68.1544 107.599 68.3775 107.73 68.6819 107.632C64.7358 102.408 61.7204 99.1985 60.4231 97.4379C57.9496 94.084 56.3383 90.7566 54.9677 86.7833C52.9293 80.8721 52.3236 74.3051 53.8871 68.1935C54.566 65.5419 55.653 62.9912 57.1973 60.6361C58.6524 58.4167 60.0804 56.2288 61.9403 54.3738C64.766 51.5432 67.9998 48.3914 69.2301 44.3733C69.4054 43.7936 69.5345 43.2156 69.6206 42.6194C70.4031 39.5835 71.8694 36.1418 74.1054 34.6826C76.1104 33.3758 78.6556 34.1775 79.0429 36.7728C79.2261 37.9769 78.9839 39.0849 78.3846 39.8584C78.3289 39.6414 78.2396 39.4311 78.1057 39.239C77.5272 38.4092 76.41 38.2237 75.6115 38.8249C74.813 39.4261 74.6345 40.5871 75.2131 41.4169C75.5956 41.9668 76.2124 42.2252 76.818 42.1705C77.7519 42.1904 78.705 41.6803 79.3249 40.9151C80.3864 39.6133 80.6462 37.5844 80.2174 35.9728Z" fill="#DBBE67"/>
<path d="M130.538 48.9413C130.593 48.6945 130.822 53.3287 131.523 55.4222C132.081 57.0867 132.843 58.6618 132.913 60.4506C132.916 60.54 132.779 60.5615 132.762 60.4721C132.344 58.367 131.139 56.56 130.602 54.4914C130.121 52.6413 130.124 50.8029 130.538 48.9413ZM145.274 79.6349C145.395 79.4047 144.629 82.4969 141.218 86.6955C138.748 89.7364 134.791 90.6026 134.893 90.5628C139.465 88.8271 143.017 83.9296 145.274 79.6349ZM141.212 73.3229C141.083 77.0561 139.594 80.7926 137.261 83.6116C137.2 83.6844 137.076 83.5867 137.132 83.5072C139.475 80.0523 140.982 75.9862 140.37 71.7114C139.776 67.5592 138.257 63.667 138.249 59.4204C138.249 59.0841 141.376 68.5877 141.212 73.3229ZM137.337 79.1529C137.302 79.201 138.845 76.3439 137.457 67.5327C137.404 67.1998 140.676 74.4873 137.337 79.1529ZM108.613 40.9151C109.233 41.6803 110.186 42.1904 111.119 42.1705C111.724 42.2252 112.341 41.9668 112.723 41.4169C113.302 40.5871 113.125 39.4261 112.325 38.8249C111.527 38.2237 110.409 38.4092 109.831 39.239C109.697 39.4311 109.608 39.6414 109.553 39.8584C108.953 39.0849 108.712 37.9769 108.895 36.7728C109.283 34.1775 111.828 33.3758 113.833 34.6826C116.069 36.1418 117.535 39.5835 118.316 42.6194C118.402 43.2156 118.531 43.7936 118.702 44.3518C119.938 48.3914 123.17 51.5432 125.998 54.3738C127.856 56.2288 129.286 58.4167 130.741 60.6361C132.285 62.9912 133.37 65.5419 134.049 68.1935C135.614 74.3051 135.009 80.8721 132.969 86.7833C131.598 90.7566 129.987 94.084 127.515 97.4379C126.216 99.1985 123.202 102.408 119.255 107.632C119.561 107.73 119.784 107.599 120.042 107.395C123.172 104.923 125.83 102.001 128.642 99.1488C131.281 96.4707 134.8 93.1433 138.713 93.1764C143.72 93.2178 146.313 98.6006 144.753 103.2C143.865 105.812 141.272 107.339 138.686 106.156C136.99 105.383 136.246 103.48 136.725 101.89C136.99 102.571 137.631 103.051 138.38 103.051C139.366 103.051 140.166 102.221 140.166 101.196C140.166 100.169 139.366 99.3393 138.38 99.3393C138.278 99.3393 138.179 99.3526 138.082 99.3708C138.037 99.3608 137.992 99.3575 137.949 99.3675C133.93 100.373 135.141 106.726 139.003 107.717C143.443 108.858 146.313 105.029 146.538 100.793C146.758 96.5999 144.079 92.5702 139.983 91.911C138.639 91.6974 137.356 91.8282 136.139 92.1926C136.926 91.5814 137.72 90.9901 138.574 90.4403C140.605 89.1269 142.616 87.7721 144.171 85.8541C145.813 83.8269 146.964 81.3756 147.502 78.7852C148.009 76.3472 148.2 73.0099 146.881 70.7988C146.731 72.6058 146.619 73.954 145.692 75.5141C145.281 76.2048 144.755 76.811 144.195 77.3741C143.907 77.664 142.874 78.9177 142.49 78.9177C144.34 74.3631 143.183 69.343 141.932 64.7999C140.708 60.3512 138.753 55.3129 139.599 50.6141C139.682 50.1536 139.776 49.6998 139.905 49.251C139.795 49.6336 139.076 50.2182 138.851 50.6108C138.558 51.1292 138.278 51.6443 137.973 52.1594C137.283 53.3287 136.736 54.5874 136.332 55.8926C135.53 58.4796 135.278 61.2621 135.637 63.9568C135.505 63.7366 135.385 63.5246 135.278 63.3109C134.518 61.7226 133.85 60.0862 133.281 58.4084C132.092 54.8822 130.31 50.2414 131.791 46.5828C131.689 46.8345 130.819 47.3662 130.586 47.603C130.285 47.9127 129.95 48.1579 129.649 48.4543C128.948 49.1433 128.58 50.1172 128.444 51.0961C128.164 53.115 128.814 55.3029 129.914 56.9658C128.4 54.9998 126.685 53.1978 125.026 51.5548C122.544 49.0936 119.296 45.0292 119.54 41.1933C119.699 38.7388 121.816 37.0676 124.066 38.2651C125.112 38.8166 125.834 39.6712 126.084 40.6302C125.883 40.5491 125.668 40.501 125.438 40.501C124.452 40.501 123.652 41.3308 123.652 42.356C123.652 43.3812 124.452 44.2127 125.438 44.2127C126.09 44.2127 126.654 43.8466 126.967 43.3034C127.531 42.5299 127.692 41.4285 127.459 40.458C127.069 38.8017 125.641 37.3922 124.132 36.8076C121.564 35.8122 119.467 37.2746 118.63 39.4874C117.956 37.5661 116.995 35.7873 115.528 34.3464C113.007 31.8703 108.749 32.1204 107.721 35.9728C107.292 37.5844 107.55 39.6133 108.613 40.9151Z" fill="#DBBE67"/>
<path d="M57.8822 50.2414C57.8615 50.0742 57.7117 49.9996 57.5906 50.0278C57.7659 51.3197 57.7372 52.6049 57.4727 53.8918C57.5205 53.8719 57.5651 53.8388 57.6002 53.7825C58.193 52.8384 58.0129 51.2998 57.8822 50.2414Z" fill="#DBBE67"/>
<path d="M60.707 49.2097C60.707 48.7525 61.064 48.3799 61.5055 48.3799C61.9454 48.3799 62.304 48.7525 62.304 49.2097C62.304 49.6684 61.9454 50.0394 61.5055 50.0394C61.064 50.0394 60.707 49.6684 60.707 49.2097Z" fill="#DBBE67"/>
<path d="M46.9062 96.2736C46.9062 95.8148 47.2633 95.4438 47.7031 95.4438C48.1446 95.4438 48.5016 95.8148 48.5016 96.2736C48.5016 96.7308 48.1446 97.1034 47.7031 97.1034C47.2633 97.1034 46.9062 96.7308 46.9062 96.2736Z" fill="#DBBE67"/>
<path d="M44.3789 99.3859C44.3789 98.9288 44.7359 98.5562 45.1774 98.5562C45.6173 98.5562 45.9758 98.9288 45.9758 99.3859C45.9758 99.8447 45.6173 100.216 45.1774 100.216C44.7359 100.216 44.3789 99.8447 44.3789 99.3859Z" fill="#DBBE67"/>
<path d="M45.457 103.808C45.457 103.351 45.8156 102.978 46.2555 102.978C46.697 102.978 47.054 103.351 47.054 103.808C47.054 104.267 46.697 104.638 46.2555 104.638C45.8156 104.638 45.457 104.267 45.457 103.808Z" fill="#DBBE67"/>
<path d="M51.2227 96.2736C51.2227 95.8148 51.5797 95.4438 52.0211 95.4438C52.4626 95.4438 52.8196 95.8148 52.8196 96.2736C52.8196 96.7308 52.4626 97.1034 52.0211 97.1034C51.5797 97.1034 51.2227 96.7308 51.2227 96.2736Z" fill="#DBBE67"/>
<path d="M54.6523 99.3859C54.6523 98.9288 55.0093 98.5562 55.4492 98.5562C55.8907 98.5562 56.2477 98.9288 56.2477 99.3859C56.2477 99.8447 55.8907 100.216 55.4492 100.216C55.0093 100.216 54.6523 99.8447 54.6523 99.3859Z" fill="#DBBE67"/>
<path d="M57.2148 102.468C57.2148 102.011 57.5718 101.64 58.0133 101.64C58.4532 101.64 58.8118 102.011 58.8118 102.468C58.8118 102.927 58.4532 103.298 58.0133 103.298C57.5718 103.298 57.2148 102.927 57.2148 102.468Z" fill="#DBBE67"/>
<path d="M60.707 105.467C60.707 105.009 61.064 104.638 61.5055 104.638C61.9454 104.638 62.304 105.009 62.304 105.467C62.304 105.925 61.9454 106.297 61.5055 106.297C61.064 106.297 60.707 105.925 60.707 105.467Z" fill="#DBBE67"/>
<path d="M63.1836 46.4255C63.1836 45.9667 63.5422 45.5957 63.9821 45.5957C64.4235 45.5957 64.7805 45.9667 64.7805 46.4255C64.7805 46.8843 64.4235 47.2553 63.9821 47.2553C63.5422 47.2553 63.1836 46.8843 63.1836 46.4255Z" fill="#DBBE67"/>
<mask id="mask2_324_13680" style="mask-type:luminance" maskUnits="userSpaceOnUse" x="35" y="86" width="12" height="7">
<path d="M35.125 86.896H46.337V92.832H35.125V86.896Z" fill="white"/>
</mask>
<g mask="url(#mask2_324_13680)">
<path d="M46.2554 89.8423C46.3048 89.9963 43.2257 93.2442 40.0526 92.6264C36.8778 92.007 37.8197 87.8829 35.1406 87.2635C35.1406 87.2635 37.8707 85.8706 40.698 88.7061C43.0966 91.1126 46.2554 89.8423 46.2554 89.8423Z" fill="#DBBE67"/>
</g>
<mask id="mask3_324_13680" style="mask-type:luminance" maskUnits="userSpaceOnUse" x="85" y="122" width="18" height="12">
<path d="M85.582 122.512H102.122V133.993H85.582V122.512Z" fill="white"/>
</mask>
<g mask="url(#mask3_324_13680)">
<path d="M93.887 131.388C90.3075 124.589 93.887 124.493 93.887 124.493C93.887 124.493 97.4666 124.589 93.887 131.388ZM99.4317 127.173C98.8356 125.97 98.3527 124.664 97.4267 123.715C96.4992 122.766 94.9453 122.154 93.887 122.938C92.8288 122.154 91.2733 122.766 90.3473 123.715C89.4213 124.664 88.9384 125.97 88.3424 127.173C87.7479 128.377 86.9335 129.586 85.7031 130.02C87.3829 130.659 89.3687 130.336 90.784 129.195C91.3593 131.155 92.4511 132.591 93.887 133.993C95.323 132.591 96.4131 131.155 96.9901 129.195C98.4053 130.336 100.39 130.659 102.071 130.02C100.841 129.586 100.026 128.377 99.4317 127.173Z" fill="#DBBE67"/>
</g>
<path d="M68.158 115.031C58.3469 112.372 52.7592 118.32 52.9058 118.083C55.4781 113.886 61.7926 113.043 66.1212 113.558C72.807 114.352 78.825 118.042 85.6478 117.957C86.0909 117.952 85.004 119.594 68.158 115.031ZM73.4174 119.468C67.9349 119.052 64.7633 122.061 64.8303 121.969C68.9406 116.357 74.5585 118.974 81.4802 119.741C81.8627 119.782 79.7191 119.946 73.4174 119.468ZM57.8672 111.228C61.4117 109.524 65.7483 110.32 69.3501 111.422C69.7056 111.531 65.31 111.253 63.3274 111.155C61.5057 111.066 57.7046 111.307 57.8672 111.228ZM96.0072 107.95C94.7434 106.206 92.807 105.136 90.7096 105.014C89.2035 104.926 86.6152 105.439 86.008 107.573C85.9602 107.74 85.9379 108.063 85.9538 108.376C85.9522 108.404 85.9459 108.429 85.9459 108.455C85.9459 109.481 86.7459 110.312 87.7325 110.312C88.719 110.312 89.5175 109.481 89.5175 108.455C89.5175 107.43 88.719 106.6 87.7325 106.6C87.6496 106.6 87.5715 106.614 87.4918 106.625C89.0521 105.216 92.1551 105.756 93.4971 107.22C94.2828 108.078 94.6573 109.608 94.5728 110.769C94.4708 112.17 93.7234 113.404 92.7528 114.343C90.3446 116.682 87.5205 117.018 84.384 116.394C79.284 115.362 74.8773 112.357 70.2076 110.165C68.3015 109.27 66.3109 108.391 64.2135 108.144C62.0571 107.889 59.7876 108.273 57.6839 108.782C55.7172 109.257 53.784 109.982 52.0611 111.087C50.6172 112.013 48.3047 113.709 47.9923 115.587C50.5343 114.239 53.5688 112.977 56.4726 112.977C55.3953 112.987 53.6661 114.472 52.8341 115.113C51.6755 116.005 50.6252 117.046 49.7088 118.204C47.9222 120.46 46.1595 123.425 46.2121 126.444C46.2041 126.018 50.6682 121.217 60.0681 118.761C60.9941 118.519 61.9567 118.461 62.9114 118.403C63.5521 118.363 65.1713 118.694 65.6957 118.401C63.976 119.411 62.5528 120.904 61.6858 122.78C60.7965 124.711 60.1351 127.978 61.4691 129.862C62.2835 128.287 62.9592 126.578 64.2756 125.374C65.3849 124.357 66.7635 123.716 68.1771 123.305C71.0666 122.467 74.1027 122.532 77.0735 122.532C82.4986 122.573 88.6983 123.103 93.368 119.652C96.8487 117.074 98.8202 111.827 96.0072 107.95Z" fill="#DBBE67"/>
<path d="M87.8351 124.274C87.8351 124.274 83.8651 123.461 79.4663 126.883C76.2247 129.407 72.8555 128.448 72.8555 128.448C72.8555 128.448 78.3077 132.743 82.3957 128.907C86.2972 125.243 87.8351 124.274 87.8351 124.274Z" fill="#DBBE67"/>
<path d="M101.109 43.3482C101.333 43.06 101.831 43.3598 102.011 43.5635C102.306 43.8997 102.384 44.3734 102.215 44.7891C102.116 45.0343 101.757 45.0227 101.748 44.7246C101.738 44.3668 101.705 44.0223 101.434 43.7722C101.354 43.6977 100.983 43.5105 101.109 43.3482ZM99.5547 44.5689C99.5547 45.5941 100.355 46.4255 101.341 46.4255C102.328 46.4255 103.128 45.5941 103.128 44.5689C103.128 43.5436 102.328 42.7139 101.341 42.7139C100.355 42.7139 99.5547 43.5436 99.5547 44.5689Z" fill="#DBBE67"/>
<path d="M108.049 45.5778C108.402 45.5198 108.754 45.7931 108.953 46.0763C109.203 46.4341 109.251 46.8316 109.186 47.2572C109.152 47.4692 108.822 47.4609 108.783 47.2572C108.724 46.9657 108.65 46.656 108.5 46.3993C108.357 46.1558 108.118 46.0316 107.959 45.8096C107.904 45.7335 107.959 45.591 108.049 45.5778ZM106.54 47.2903C106.782 48.2841 107.755 48.8853 108.711 48.6319C109.667 48.3801 110.244 47.3698 110.002 46.3761C109.76 45.3823 108.787 44.7811 107.831 45.0345C106.875 45.2863 106.296 46.2966 106.54 47.2903Z" fill="#DBBE67"/>
<path d="M114.448 49.1317C114.803 49.0406 115.17 49.347 115.357 49.6368C115.591 50.0029 115.647 50.3987 115.5 50.8111C115.427 51.0165 115.095 51.0065 115.109 50.7565C115.124 50.4881 115.066 50.1784 114.931 49.9449C114.789 49.6998 114.56 49.6004 114.38 49.4016C114.303 49.3155 114.332 49.1631 114.448 49.1317ZM112.754 50.5461C112.754 51.5713 113.554 52.4028 114.541 52.4028C115.527 52.4028 116.327 51.5713 116.327 50.5461C116.327 49.5209 115.527 48.6895 114.541 48.6895C113.554 48.6895 112.754 49.5209 112.754 50.5461Z" fill="#DBBE67"/>
<path d="M119.628 53.801C119.946 53.6139 120.374 53.7894 120.621 54.0312C120.927 54.3343 121.039 54.7302 120.973 55.1542C120.935 55.4026 120.562 55.3827 120.51 55.1542C120.452 54.9074 120.373 54.654 120.21 54.4585C120.043 54.2598 119.829 54.1985 119.628 54.0561C119.542 53.9948 119.53 53.859 119.628 53.801ZM118.102 54.9289C118.102 55.9541 118.902 56.7856 119.888 56.7856C120.875 56.7856 121.673 55.9541 121.673 54.9289C121.673 53.9037 120.875 53.0723 119.888 53.0723C118.902 53.0723 118.102 53.9037 118.102 54.9289Z" fill="#DBBE67"/>
<path d="M124.236 58.8124C124.475 58.6965 124.761 58.8671 124.94 59.031C125.227 59.2944 125.316 59.6289 125.23 60.0099C125.182 60.2269 124.899 60.1556 124.879 59.9602C124.833 59.4898 124.57 59.3159 124.236 59.0774C124.153 59.0194 124.127 58.8654 124.236 58.8124ZM122.344 60.1374C122.344 61.161 123.144 61.9924 124.129 61.9924C125.117 61.9924 125.915 61.161 125.915 60.1374C125.915 59.1105 125.117 58.2808 124.129 58.2808C123.144 58.2808 122.344 59.1105 122.344 60.1374Z" fill="#DBBE67"/>
<path d="M127.889 65.3317C128.497 65.3035 128.862 65.9843 128.798 66.5358C128.779 66.7097 128.513 66.7892 128.474 66.5805C128.435 66.3735 128.36 66.1383 128.245 65.9611C128.129 65.7805 127.955 65.6828 127.807 65.5371C127.73 65.4625 127.792 65.3367 127.889 65.3317ZM125.918 66.6335C125.918 67.6587 126.718 68.4902 127.705 68.4902C128.691 68.4902 129.491 67.6587 129.491 66.6335C129.491 65.6083 128.691 64.7769 127.705 64.7769C126.718 64.7769 125.918 65.6083 125.918 66.6335Z" fill="#DBBE67"/>
<path d="M130.045 73.088C130.364 73.0499 130.694 73.3331 130.863 73.5915C131.067 73.9012 131.142 74.2871 131.01 74.6415C130.936 74.837 130.616 74.895 130.57 74.6415C130.524 74.3881 130.504 74.1149 130.372 73.8896C130.245 73.676 130.028 73.5584 129.897 73.3546C129.819 73.2304 129.927 73.1012 130.045 73.088ZM128.168 74.4875C128.168 75.5127 128.968 76.3442 129.955 76.3442C130.941 76.3442 131.741 75.5127 131.741 74.4875C131.741 73.4623 130.941 72.6309 129.955 72.6309C128.968 72.6309 128.168 73.4623 128.168 74.4875Z" fill="#DBBE67"/>
<path d="M130.591 80.7331C131.359 80.4184 131.882 81.3989 131.738 82.063C131.692 82.28 131.383 82.2651 131.33 82.063C131.27 81.8411 131.23 81.5943 131.085 81.4121C130.942 81.2332 130.739 81.1885 130.546 81.0908C130.384 81.0097 130.455 80.7877 130.591 80.7331ZM128.863 81.9487C128.863 82.974 129.663 83.8054 130.65 83.8054C131.636 83.8054 132.436 82.974 132.436 81.9487C132.436 80.9252 131.636 80.0938 130.65 80.0938C129.663 80.0938 128.863 80.9252 128.863 81.9487Z" fill="#DBBE67"/>
<path d="M127.181 49.2097C127.181 48.7525 126.824 48.3799 126.384 48.3799C125.943 48.3799 125.586 48.7525 125.586 49.2097C125.586 49.6684 125.943 50.0394 126.384 50.0394C126.824 50.0394 127.181 49.6684 127.181 49.2097Z" fill="#DBBE67"/>
<path d="M140.978 96.2736C140.978 95.8148 140.621 95.4438 140.181 95.4438C139.74 95.4438 139.383 95.8148 139.383 96.2736C139.383 96.7308 139.74 97.1034 140.181 97.1034C140.621 97.1034 140.978 96.7308 140.978 96.2736Z" fill="#DBBE67"/>
<path d="M143.511 99.3859C143.511 98.9288 143.152 98.5562 142.713 98.5562C142.271 98.5562 141.914 98.9288 141.914 99.3859C141.914 99.8447 142.271 100.216 142.713 100.216C143.152 100.216 143.511 99.8447 143.511 99.3859Z" fill="#DBBE67"/>
<path d="M142.429 103.808C142.429 103.351 142.072 102.978 141.631 102.978C141.189 102.978 140.832 103.351 140.832 103.808C140.832 104.267 141.189 104.638 141.631 104.638C142.072 104.638 142.429 104.267 142.429 103.808Z" fill="#DBBE67"/>
<path d="M136.663 96.2736C136.663 95.8148 136.306 95.4438 135.865 95.4438C135.425 95.4438 135.066 95.8148 135.066 96.2736C135.066 96.7308 135.425 97.1034 135.865 97.1034C136.306 97.1034 136.663 96.7308 136.663 96.2736Z" fill="#DBBE67"/>
<path d="M133.232 99.3859C133.232 98.9288 132.875 98.5562 132.435 98.5562C131.994 98.5562 131.637 98.9288 131.637 99.3859C131.637 99.8447 131.994 100.216 132.435 100.216C132.875 100.216 133.232 99.8447 133.232 99.3859Z" fill="#DBBE67"/>
<path d="M130.67 102.468C130.67 102.011 130.313 101.64 129.873 101.64C129.431 101.64 129.074 102.011 129.074 102.468C129.074 102.927 129.431 103.298 129.873 103.298C130.313 103.298 130.67 102.927 130.67 102.468Z" fill="#DBBE67"/>
<path d="M127.181 105.467C127.181 105.009 126.824 104.638 126.384 104.638C125.943 104.638 125.586 105.009 125.586 105.467C125.586 105.925 125.943 106.297 126.384 106.297C126.824 106.297 127.181 105.925 127.181 105.467Z" fill="#DBBE67"/>
<path d="M124.702 46.4255C124.702 45.9667 124.345 45.5957 123.904 45.5957C123.462 45.5957 123.105 45.9667 123.105 46.4255C123.105 46.8843 123.462 47.2553 123.904 47.2553C124.345 47.2553 124.702 46.8843 124.702 46.4255Z" fill="#DBBE67"/>
<mask id="mask4_324_13680" style="mask-type:luminance" maskUnits="userSpaceOnUse" x="141" y="86" width="12" height="7">
<path d="M141.543 86.896H152.629V92.7127H141.543V86.896Z" fill="white"/>
</mask>
<g mask="url(#mask4_324_13680)">
<path d="M141.633 89.8423C141.584 89.9963 144.663 93.2442 147.836 92.6264C151.013 92.007 150.069 87.8829 152.748 87.2635C152.748 87.2635 150.02 85.8706 147.191 88.7061C144.792 91.1126 141.633 89.8423 141.633 89.8423Z" fill="#DBBE67"/>
</g>
<path d="M101.96 117.957C108.784 118.042 114.8 114.352 121.486 113.558C125.815 113.043 132.131 113.886 134.703 118.083C134.848 118.32 129.26 112.372 119.451 115.031C102.603 119.594 101.516 117.952 101.96 117.957ZM106.129 119.741C113.049 118.974 118.668 116.357 122.779 121.969C122.846 122.061 119.672 119.052 114.19 119.468C107.89 119.946 105.745 119.782 106.129 119.741ZM124.28 111.155C122.299 111.253 117.902 111.531 118.259 111.422C121.859 110.32 126.197 109.524 129.74 111.228C129.903 111.307 126.102 111.066 124.28 111.155ZM94.2394 119.652C98.9107 123.103 105.109 122.573 110.534 122.532C113.506 122.532 116.541 122.467 119.43 123.305C120.845 123.716 122.222 124.357 123.333 125.374C124.648 126.578 125.324 128.287 126.14 129.862C127.474 127.978 126.812 124.711 125.922 122.78C125.056 120.904 123.633 119.411 121.913 118.401C122.438 118.694 124.055 118.363 124.698 118.403C125.651 118.461 126.613 118.519 127.539 118.761C136.941 121.217 141.403 126.018 141.397 126.444C141.449 123.425 139.685 120.46 137.899 118.204C136.984 117.046 135.933 116.005 134.775 115.113C133.941 114.472 132.212 112.987 131.135 112.977C134.04 112.977 137.073 114.239 139.617 115.587C139.304 113.709 136.992 112.013 135.548 111.087C133.823 109.982 131.89 109.257 129.923 108.782C127.82 108.273 125.552 107.889 123.394 108.144C121.298 108.391 119.306 109.27 117.401 110.165C112.73 112.357 108.323 115.362 103.223 116.394C100.088 117.018 97.2627 116.682 94.8546 114.343C93.884 113.404 93.1365 112.17 93.0345 110.769C92.9516 109.608 93.3246 108.078 94.1103 107.22C95.4522 105.756 98.5569 105.216 100.117 106.625C100.037 106.614 99.9578 106.6 99.8765 106.6C98.89 106.6 98.0899 107.43 98.0899 108.455C98.0899 109.481 98.89 110.312 99.8765 110.312C100.863 110.312 101.661 109.481 101.661 108.455C101.661 108.429 101.655 108.404 101.655 108.376C101.669 108.063 101.647 107.74 101.599 107.573C100.992 105.439 98.4039 104.926 96.8978 105.014C94.8004 105.136 92.8656 106.206 91.6002 107.95C88.7888 111.827 90.7602 117.074 94.2394 119.652Z" fill="#DBBE67"/>
<path d="M100.051 124.274C100.051 124.274 104.021 123.461 108.42 126.883C111.663 129.407 115.03 128.448 115.03 128.448C115.03 128.448 109.578 132.743 105.49 128.907C101.589 125.243 100.051 124.274 100.051 124.274Z" fill="#DBBE67"/>
<path d="M93.8071 48.0337C75.8137 48.0337 61.1719 63.2497 61.1719 81.9487C61.1719 98.9369 73.2525 113.045 88.9573 115.486C88.9908 115.494 89.0242 115.504 89.0609 115.504C89.2458 115.504 89.3956 115.349 89.3956 115.157C89.3956 114.974 89.2585 114.829 89.0864 114.814C73.7258 112.404 61.8333 98.5791 61.8333 81.9487C61.8333 63.6273 76.177 48.721 93.8071 48.721C111.431 48.721 125.775 63.6273 125.775 81.9487C125.775 98.6702 113.965 112.523 98.4784 114.814C98.2696 114.809 98.1198 114.964 98.1198 115.157C98.1198 115.349 98.2696 115.504 98.4545 115.504C114.279 113.174 126.436 99.0263 126.436 81.9487C126.436 63.2497 111.802 48.0337 93.8071 48.0337Z" fill="#DBBE67"/>
<mask id="mask5_324_13680" style="mask-type:luminance" maskUnits="userSpaceOnUse" x="79" y="17" width="29" height="21">
<path d="M79.3828 17.0869H107.943V37.2882H79.3828V17.0869Z" fill="white"/>
</mask>
<g mask="url(#mask5_324_13680)">
<path d="M101.107 36.0477C100.804 36.0477 100.554 35.7943 100.554 35.4729C100.554 35.1583 100.804 34.8982 101.107 34.8982C101.416 34.8982 101.66 35.1583 101.66 35.4729C101.66 35.7943 101.416 36.0477 101.107 36.0477ZM98.6077 36.0477C98.3049 36.0477 98.0547 35.7943 98.0547 35.4729C98.0547 35.1583 98.3049 34.8982 98.6077 34.8982C98.9169 34.8982 99.1607 35.1583 99.1607 35.4729C99.1607 35.7943 98.9169 36.0477 98.6077 36.0477ZM96.1087 36.0477C95.8059 36.0477 95.5572 35.7943 95.5572 35.4729C95.5572 35.1583 95.8059 34.8982 96.1087 34.8982C96.4131 34.8982 96.6633 35.1583 96.6633 35.4729C96.6633 35.7943 96.4131 36.0477 96.1087 36.0477ZM93.6432 36.041C93.3547 36.0212 93.1252 35.7843 93.1252 35.4729C93.1252 35.1682 93.3547 34.9264 93.6432 34.9049C93.9332 34.9264 94.1627 35.1682 94.1627 35.4729C94.1627 35.7843 93.9332 36.0212 93.6432 36.041ZM91.1792 36.0477C90.8748 36.0477 90.6262 35.7943 90.6262 35.4729C90.6262 35.1583 90.8748 34.8982 91.1792 34.8982C91.482 34.8982 91.7322 35.1583 91.7322 35.4729C91.7322 35.7943 91.482 36.0477 91.1792 36.0477ZM88.6802 36.0477C88.371 36.0477 88.1272 35.7943 88.1272 35.4729C88.1272 35.1583 88.371 34.8982 88.6802 34.8982C88.983 34.8982 89.2332 35.1583 89.2332 35.4729C89.2332 35.7943 88.983 36.0477 88.6802 36.0477ZM86.1812 36.0477C85.872 36.0477 85.6282 35.7943 85.6282 35.4729C85.6282 35.1583 85.872 34.8982 86.1812 34.8982C86.4856 34.8982 86.7342 35.1583 86.7342 35.4729C86.7342 35.7943 86.4856 36.0477 86.1812 36.0477ZM100.31 27.6654C100.136 28.2285 100.174 28.838 100.38 29.3895C100.727 30.3137 101.102 32.0147 99.7297 32.9886C97.7789 34.3864 95.8824 32.5778 95.5238 30.5224C95.1556 28.4256 95.6433 26.9052 97.2323 26.3984C98.8133 25.8915 93.6129 17.0869 93.6129 17.0869C93.6129 17.0869 88.4746 25.8915 90.0572 26.3984C91.6446 26.9052 92.1323 28.4256 91.7641 30.5224C91.4071 32.5778 89.509 34.3864 87.5582 32.9886C86.186 32.0147 86.5605 30.3137 86.908 29.3895C87.1136 28.838 87.1518 28.2285 86.9781 27.6654C85.6505 23.3691 79.4492 23.4237 79.4492 23.4237C85.4879 32.1041 85.4226 37.0447 85.4226 37.0447H101.865C101.865 37.0447 101.8 32.1041 107.839 23.4237C107.839 23.4237 101.639 23.3691 100.31 27.6654Z" fill="#DBBE67"/>
</g>
<path d="M100.921 38.252H86.3728C85.8835 38.252 85.4883 38.6627 85.4883 39.1695C85.4883 39.678 85.8835 40.0887 86.3728 40.0887H100.921C101.408 40.0887 101.803 39.678 101.803 39.1695C101.803 38.6627 101.408 38.252 100.921 38.252Z" fill="#DBBE67"/>
<mask id="mask6_324_13680" style="mask-type:luminance" maskUnits="userSpaceOnUse" x="3" y="-5" width="185" height="191">
<path d="M187.299 -4.8999H3.69922V185.9H187.299V-4.8999Z" fill="black" fill-opacity="0.25"/>
</mask>
<g mask="url(#mask6_324_13680)">
<mask id="mask7_324_13680" style="mask-type:luminance" maskUnits="userSpaceOnUse" x="66" y="53" width="56" height="59">
<path d="M121.408 53.8242H66.3281V111.064H121.408V53.8242Z" fill="white"/>
</mask>
<g mask="url(#mask7_324_13680)">
<mask id="mask8_324_13680" style="mask-type:luminance" maskUnits="userSpaceOnUse" x="93" y="54" width="2" height="57">
<path d="M93.6641 54.1885H94.4801V110.792H93.6641V54.1885Z" fill="white"/>
</mask>
<g mask="url(#mask8_324_13680)">
<path d="M93.9417 110.756C93.8222 110.756 93.7266 110.655 93.7266 110.531V54.4121C93.7266 54.2879 93.8222 54.1885 93.9417 54.1885C94.0612 54.1885 94.1585 54.2879 94.1585 54.4121V110.531C94.1585 110.655 94.0612 110.756 93.9417 110.756Z" fill="#DBBE67"/>
</g>
<path d="M98.632 110.33C98.5284 110.33 98.4375 110.252 98.42 110.145L89.0424 54.8773C89.0217 54.7547 89.0998 54.6388 89.2177 54.6172C89.3356 54.5957 89.4472 54.6769 89.4679 54.7994L98.8455 110.065C98.8663 110.188 98.7866 110.304 98.6702 110.325C98.6575 110.329 98.6447 110.33 98.632 110.33Z" fill="#DBBE67"/>
<path d="M98.632 110.33C98.5284 110.33 98.4375 110.252 98.42 110.145L89.0424 54.8773C89.0217 54.7547 89.0998 54.6388 89.2177 54.6172C89.3356 54.5957 89.4472 54.6769 89.4679 54.7994L98.8455 110.065C98.8663 110.188 98.7866 110.304 98.6702 110.325C98.6575 110.329 98.6447 110.33 98.632 110.33Z" fill="#DBBE67"/>
<path d="M103.179 109.063C103.09 109.063 103.007 109.007 102.975 108.916L84.5048 56.1809C84.465 56.065 84.5224 55.9358 84.6339 55.8944C84.7471 55.8513 84.8714 55.9109 84.9112 56.0285L103.381 108.762C103.421 108.879 103.364 109.007 103.252 109.05C103.228 109.06 103.203 109.063 103.179 109.063Z" fill="#DBBE67"/>
<path d="M103.179 109.063C103.09 109.063 103.007 109.007 102.975 108.916L84.5048 56.1809C84.465 56.065 84.5224 55.9358 84.6339 55.8944C84.7471 55.8513 84.8714 55.9109 84.9112 56.0285L103.381 108.762C103.421 108.879 103.364 109.007 103.252 109.05C103.228 109.06 103.203 109.063 103.179 109.063Z" fill="#DBBE67"/>
<path d="M107.443 106.996C107.368 106.996 107.296 106.957 107.256 106.884L80.2551 58.2845C80.1962 58.1769 80.2312 58.0394 80.3348 57.9781C80.4368 57.9152 80.5691 57.9516 80.6297 58.0593L107.629 106.66C107.69 106.768 107.655 106.905 107.551 106.967C107.516 106.987 107.48 106.996 107.443 106.996Z" fill="#DBBE67"/>
<path d="M107.443 106.996C107.368 106.996 107.296 106.957 107.256 106.884L80.2551 58.2845C80.1962 58.1769 80.2312 58.0394 80.3348 57.9781C80.4368 57.9152 80.5691 57.9516 80.6297 58.0593L107.629 106.66C107.69 106.768 107.655 106.905 107.551 106.967C107.516 106.987 107.48 106.996 107.443 106.996Z" fill="#DBBE67"/>
<path d="M111.299 104.191C111.236 104.191 111.176 104.164 111.133 104.111L76.4225 61.1214C76.3444 61.027 76.3572 60.8845 76.448 60.805C76.5404 60.7255 76.6759 60.7371 76.7524 60.8332L111.464 103.823C111.541 103.917 111.528 104.06 111.437 104.139C111.397 104.174 111.348 104.191 111.299 104.191Z" fill="#DBBE67"/>
<path d="M111.299 104.191C111.236 104.191 111.176 104.164 111.133 104.111L76.4225 61.1214C76.3444 61.027 76.3572 60.8845 76.448 60.805C76.5404 60.7255 76.6759 60.7371 76.7524 60.8332L111.464 103.823C111.541 103.917 111.528 104.06 111.437 104.139C111.397 104.174 111.348 104.191 111.299 104.191Z" fill="#DBBE67"/>
<path d="M114.626 100.732C114.577 100.732 114.527 100.716 114.488 100.679L73.1202 64.608C73.0293 64.5285 73.0166 64.386 73.0931 64.2916C73.1696 64.1972 73.3066 64.184 73.3975 64.2635L114.765 100.337C114.857 100.416 114.868 100.557 114.792 100.653C114.749 100.706 114.688 100.732 114.626 100.732Z" fill="#DBBE67"/>
<path d="M114.626 100.732C114.577 100.732 114.527 100.716 114.488 100.679L73.1202 64.608C73.0293 64.5285 73.0166 64.386 73.0931 64.2916C73.1696 64.1972 73.3066 64.184 73.3975 64.2635L114.765 100.337C114.857 100.416 114.868 100.557 114.792 100.653C114.749 100.706 114.688 100.732 114.626 100.732Z" fill="#DBBE67"/>
<path d="M117.326 96.7262C117.289 96.7262 117.252 96.7163 117.217 96.6964L70.452 68.6362C70.3484 68.5749 70.3134 68.4374 70.3723 68.3298C70.4313 68.2221 70.5636 68.1857 70.6672 68.2486L117.434 96.3072C117.538 96.3701 117.573 96.5076 117.512 96.6136C117.472 96.6864 117.401 96.7262 117.326 96.7262Z" fill="#DBBE67"/>
<path d="M117.326 96.7262C117.289 96.7262 117.252 96.7163 117.217 96.6964L70.452 68.6362C70.3484 68.5749 70.3134 68.4374 70.3723 68.3298C70.4313 68.2221 70.5636 68.1857 70.6672 68.2486L117.434 96.3072C117.538 96.3701 117.573 96.5076 117.512 96.6136C117.472 96.6864 117.401 96.7262 117.326 96.7262Z" fill="#DBBE67"/>
<path d="M119.316 92.2936C119.292 92.2936 119.267 92.2886 119.243 92.2803L68.4978 73.086C68.3863 73.043 68.3273 72.9138 68.3687 72.7979C68.4102 72.6819 68.5329 72.6206 68.6461 72.6637L119.389 91.858C119.503 91.8994 119.56 92.0286 119.519 92.1462C119.487 92.2373 119.404 92.2936 119.316 92.2936Z" fill="#DBBE67"/>
<path d="M119.316 92.2936C119.292 92.2936 119.267 92.2886 119.243 92.2803L68.4978 73.086C68.3863 73.043 68.3273 72.9138 68.3687 72.7979C68.4102 72.6819 68.5329 72.6206 68.6461 72.6637L119.389 91.858C119.503 91.8994 119.56 92.0286 119.519 92.1462C119.487 92.2373 119.404 92.2936 119.316 92.2936Z" fill="#DBBE67"/>
<path d="M120.532 87.5683C120.521 87.5683 120.508 87.5683 120.496 87.565L67.3138 77.8197C67.1974 77.7981 67.1193 77.6822 67.1401 77.5596C67.1608 77.4387 67.2723 77.3559 67.3903 77.3774L120.571 87.1228C120.688 87.1443 120.767 87.2619 120.746 87.3828C120.727 87.4922 120.636 87.5683 120.532 87.5683Z" fill="#DBBE67"/>
<path d="M120.532 87.5683C120.521 87.5683 120.508 87.5683 120.496 87.565L67.3138 77.8197C67.1974 77.7981 67.1193 77.6822 67.1401 77.5596C67.1608 77.4387 67.2723 77.3559 67.3903 77.3774L120.571 87.1228C120.688 87.1443 120.767 87.2619 120.746 87.3828C120.727 87.4922 120.636 87.5683 120.532 87.5683Z" fill="#DBBE67"/>
<mask id="mask9_324_13680" style="mask-type:luminance" maskUnits="userSpaceOnUse" x="66" y="82" width="56" height="2">
<path d="M66.7266 82.2319H121.195V83.0799H66.7266V82.2319Z" fill="white"/>
</mask>
<g mask="url(#mask9_324_13680)">
<path d="M120.944 82.6959H66.9433C66.8238 82.6959 66.7266 82.5965 66.7266 82.4723C66.7266 82.3481 66.8238 82.2471 66.9433 82.2471H120.944C121.064 82.2471 121.16 82.3481 121.16 82.4723C121.16 82.5965 121.064 82.6959 120.944 82.6959Z" fill="#DBBE67"/>
<path d="M120.944 82.6959H66.9433C66.8238 82.6959 66.7266 82.5965 66.7266 82.4723C66.7266 82.3481 66.8238 82.2471 66.9433 82.2471H120.944C121.064 82.2471 121.16 82.3481 121.16 82.4723C121.16 82.5965 121.064 82.6959 120.944 82.6959Z" fill="#DBBE67"/>
</g>
<path d="M67.352 87.5683C67.2484 87.5683 67.1576 87.4922 67.1401 87.3828C67.1193 87.2619 67.1974 87.1443 67.3138 87.1228L120.496 77.3774C120.612 77.3559 120.725 77.4387 120.746 77.5596C120.767 77.6822 120.688 77.7981 120.571 77.8197L67.3903 87.565C67.3775 87.5683 67.3648 87.5683 67.352 87.5683Z" fill="#DBBE67"/>
<path d="M67.352 87.5683C67.2484 87.5683 67.1576 87.4922 67.1401 87.3828C67.1193 87.2619 67.1974 87.1443 67.3138 87.1228L120.496 77.3774C120.612 77.3559 120.725 77.4387 120.746 77.5596C120.767 77.6822 120.688 77.7981 120.571 77.8197L67.3903 87.565C67.3775 87.5683 67.3648 87.5683 67.352 87.5683Z" fill="#DBBE67"/>
<path d="M68.5712 92.2939C68.4835 92.2939 68.4006 92.2376 68.3687 92.1465C68.3273 92.0289 68.3863 91.8997 68.4978 91.8583L119.243 72.664C119.354 72.6226 119.479 72.6822 119.519 72.7982C119.56 72.9141 119.503 73.0433 119.389 73.0864L68.6461 92.2806C68.6206 92.2889 68.5967 92.2939 68.5712 92.2939Z" fill="#DBBE67"/>
<path d="M68.5712 92.2939C68.4835 92.2939 68.4006 92.2376 68.3687 92.1465C68.3273 92.0289 68.3863 91.8997 68.4978 91.8583L119.243 72.664C119.354 72.6226 119.479 72.6822 119.519 72.7982C119.56 72.9141 119.503 73.0433 119.389 73.0864L68.6461 92.2806C68.6206 92.2889 68.5967 92.2939 68.5712 92.2939Z" fill="#DBBE67"/>
<path d="M70.5588 96.7262C70.4855 96.7262 70.4122 96.6864 70.3723 96.6136C70.3134 96.5076 70.3484 96.3701 70.452 96.3072L117.217 68.2486C117.321 68.1857 117.453 68.2221 117.512 68.3298C117.573 68.4374 117.538 68.5749 117.434 68.6362L70.6672 96.6964C70.6337 96.7163 70.5955 96.7262 70.5588 96.7262Z" fill="#DBBE67"/>
<path d="M70.5588 96.7262C70.4855 96.7262 70.4122 96.6864 70.3723 96.6136C70.3134 96.5076 70.3484 96.3701 70.452 96.3072L117.217 68.2486C117.321 68.1857 117.453 68.2221 117.512 68.3298C117.573 68.4374 117.538 68.5749 117.434 68.6362L70.6672 96.6964C70.6337 96.7163 70.5955 96.7262 70.5588 96.7262Z" fill="#DBBE67"/>
<path d="M73.2588 100.732C73.1983 100.732 73.1361 100.706 73.0931 100.653C73.0166 100.557 73.0293 100.416 73.1202 100.337L114.488 64.2635C114.578 64.184 114.715 64.1972 114.792 64.2916C114.868 64.386 114.857 64.5285 114.765 64.608L73.3975 100.679C73.3576 100.716 73.3082 100.732 73.2588 100.732Z" fill="#DBBE67"/>
<path d="M73.2588 100.732C73.1983 100.732 73.1361 100.706 73.0931 100.653C73.0166 100.557 73.0293 100.416 73.1202 100.337L114.488 64.2635C114.578 64.184 114.715 64.1972 114.792 64.2916C114.868 64.386 114.857 64.5285 114.765 64.608L73.3975 100.679C73.3576 100.716 73.3082 100.732 73.2588 100.732Z" fill="#DBBE67"/>
<path d="M76.5867 104.191C76.5388 104.191 76.4894 104.174 76.448 104.139C76.3572 104.06 76.3444 103.917 76.4225 103.823L111.133 60.8332C111.209 60.7371 111.346 60.7255 111.437 60.805C111.528 60.8845 111.541 61.027 111.464 61.1214L76.7524 104.111C76.7094 104.164 76.6488 104.191 76.5867 104.191Z" fill="#DBBE67"/>
<path d="M76.5867 104.191C76.5388 104.191 76.4894 104.174 76.448 104.139C76.3572 104.06 76.3444 103.917 76.4225 103.823L111.133 60.8332C111.209 60.7371 111.346 60.7255 111.437 60.805C111.528 60.8845 111.541 61.027 111.464 61.1214L76.7524 104.111C76.7094 104.164 76.6488 104.191 76.5867 104.191Z" fill="#DBBE67"/>
<path d="M80.4416 106.996C80.405 106.996 80.3683 106.987 80.3348 106.967C80.2312 106.905 80.1962 106.768 80.2551 106.66L107.256 58.0593C107.315 57.9516 107.448 57.9152 107.551 57.9781C107.655 58.0394 107.69 58.1769 107.629 58.2845L80.6297 106.884C80.5898 106.957 80.5165 106.996 80.4416 106.996Z" fill="#DBBE67"/>
<path d="M80.4416 106.996C80.405 106.996 80.3683 106.987 80.3348 106.967C80.2312 106.905 80.1962 106.768 80.2551 106.66L107.256 58.0593C107.315 57.9516 107.448 57.9152 107.551 57.9781C107.655 58.0394 107.69 58.1769 107.629 58.2845L80.6297 106.884C80.5898 106.957 80.5165 106.996 80.4416 106.996Z" fill="#DBBE67"/>
<path d="M84.7088 109.063C84.6833 109.063 84.6594 109.06 84.6339 109.05C84.5224 109.007 84.465 108.879 84.5048 108.762L102.975 56.0285C103.016 55.9109 103.139 55.8513 103.252 55.8944C103.364 55.9358 103.421 56.065 103.381 56.1809L84.9112 108.916C84.8794 109.007 84.7965 109.063 84.7088 109.063Z" fill="#DBBE67"/>
<path d="M84.7088 109.063C84.6833 109.063 84.6594 109.06 84.6339 109.05C84.5224 109.007 84.465 108.879 84.5048 108.762L102.975 56.0285C103.016 55.9109 103.139 55.8513 103.252 55.8944C103.364 55.9358 103.421 56.065 103.381 56.1809L84.9112 108.916C84.8794 109.007 84.7965 109.063 84.7088 109.063Z" fill="#DBBE67"/>
<path d="M89.2544 110.33C89.2432 110.33 89.2305 110.329 89.2177 110.325C89.0998 110.304 89.0217 110.188 89.0424 110.065L98.42 54.7994C98.4407 54.6769 98.5523 54.5957 98.6702 54.6172C98.7866 54.6388 98.8663 54.7547 98.8455 54.8773L89.4679 110.145C89.4488 110.252 89.358 110.33 89.2544 110.33Z" fill="#DBBE67"/>
</g>
</g>
<path d="M98.0585 95.5378C98.7805 95.5378 99.3367 95.3507 99.7288 94.9747C100.369 94.3089 100.704 93.6 100.73 92.8481V81.7777H87.1891V92.8017C87.1891 93.557 87.4521 94.2029 87.9796 94.7362C88.5103 95.2712 89.1399 95.5378 89.8666 95.5378H90.3639L90.4085 95.9751H77.7031V95.5378H78.2514C78.9733 95.5378 79.5917 95.2712 80.1065 94.7362C80.6197 94.2029 80.8922 93.557 80.9225 92.8017V68.7463C80.8922 67.9961 80.6197 67.3534 80.1065 66.8185C79.5917 66.2802 78.9733 66.0102 78.2514 66.0102H77.7031V65.5796H90.4085L90.3639 66.0102H89.8666C89.1399 66.0102 88.5103 66.2802 87.9796 66.8185C87.4521 67.3534 87.1891 67.9961 87.1891 68.7463V79.9095H100.73V68.7463C100.704 67.9961 100.432 67.3534 99.9136 66.8185C99.3988 66.2802 98.7805 66.0102 98.0585 66.0102H97.5103V65.5796H110.216V66.0102H109.674C108.947 66.0102 108.317 66.2802 107.787 66.8185C107.259 67.3534 106.996 67.9961 106.996 68.7463V92.8017C106.996 93.557 107.259 94.2029 107.787 94.7362C108.317 95.2712 108.947 95.5378 109.674 95.5378H110.216V95.9751H97.5103V95.5378H98.0585Z" fill="white"/>
<path d="M48.5798 150.332C48.7997 150.332 48.9894 150.251 49.1472 150.087C49.3034 149.925 49.3862 149.728 49.3958 149.498V142.124C49.3783 141.895 49.3145 141.727 49.2046 141.621C49.0006 141.427 48.7918 141.329 48.5798 141.329H48.4141V141.197H53.2909C53.7069 141.197 54.0512 141.163 54.3237 141.097C54.5946 141.031 54.7604 140.985 54.8209 140.958V143.277L54.6934 143.264V143.118C54.6934 142.571 54.4974 142.182 54.1069 141.952C53.9189 141.837 53.6989 141.776 53.4439 141.766H51.3019V145.622H52.9849C53.2989 145.614 53.5587 145.501 53.7627 145.284C53.9667 145.069 54.0687 144.801 54.0687 144.483V144.363H54.1962V147.417H54.0687V147.311C54.0687 146.99 53.9683 146.722 53.7691 146.51C53.5683 146.298 53.3164 146.188 53.0104 146.179H51.3019V149.895H52.9722C53.5922 149.895 54.1133 149.71 54.5341 149.339C54.9548 148.968 55.2672 148.443 55.4712 147.762H55.5987L55.0122 150.465H48.4141V150.332H48.5798Z" fill="white"/>
<path d="M57.8516 149.233C57.8516 148.597 57.9822 148.054 58.2468 147.603H58.3616C58.352 147.674 58.3488 147.746 58.3488 147.815C58.3488 148.425 58.5592 148.958 58.9799 149.412C59.4007 149.867 59.9744 150.094 60.7012 150.094C61.2702 150.094 61.7148 149.953 62.0336 149.67C62.3523 149.389 62.5117 149.031 62.5117 148.597C62.5117 148.342 62.432 148.112 62.2758 147.908C62.118 147.706 61.8567 147.481 61.4917 147.232L59.2796 145.715C58.454 145.142 58.0428 144.435 58.0428 143.595C58.0428 143.507 58.0508 143.419 58.0683 143.33C58.1193 142.633 58.3807 142.071 58.8524 141.647C59.3242 141.223 59.9521 141.011 60.7394 141.011C61.2064 141.011 61.7849 141.056 62.4734 141.144H63.2767L63.1109 143.091H62.9834C62.9834 142.633 62.8193 142.263 62.4926 141.985C62.1643 141.707 61.7292 141.568 61.1857 141.568C60.5259 141.568 60.0477 141.78 59.7513 142.204C59.5983 142.407 59.5218 142.611 59.5218 142.813C59.5218 143.017 59.5601 143.189 59.6366 143.33C59.7545 143.56 60.0127 143.807 60.4079 144.072L62.8432 145.715C63.6082 146.237 63.9907 146.914 63.9907 147.749C63.9907 148.686 63.6815 149.403 63.0663 149.902C62.4495 150.402 61.6319 150.651 60.6119 150.651C60.0382 150.651 59.5059 150.578 59.0182 150.432C58.5289 150.286 58.1703 150.091 57.9408 149.842C57.8802 149.675 57.8516 149.471 57.8516 149.233Z" fill="white"/>
<path d="M77.938 150.333H78.142V150.465H74.3233V150.346H74.5146C74.658 150.338 74.7823 150.276 74.8843 150.16C74.9863 150.046 75.0278 149.919 75.0118 149.776L74.5146 144.973L72.1176 149.259C71.802 149.808 71.6411 150.298 71.6331 150.73H71.5056L68.2352 145.013L67.738 149.776C67.7204 149.919 67.7635 150.048 67.8655 150.167C67.9675 150.286 68.0902 150.346 68.2352 150.346H68.4265V150.465H65.7617V150.333H65.9657C66.2032 150.333 66.4088 150.258 66.5841 150.107C66.7578 149.958 66.8614 149.755 66.8965 149.498L67.9547 141.011H68.0695L72.0156 147.762L75.8087 141.011H75.9235L77.0072 149.498C77.0487 149.755 77.157 149.958 77.3323 150.107C77.5061 150.258 77.7085 150.333 77.938 150.333Z" fill="white"/>
<path d="M80.0173 150.332C80.2372 150.332 80.4269 150.251 80.5847 150.087C80.7409 149.925 80.8237 149.728 80.8333 149.498V142.124C80.8158 141.895 80.752 141.727 80.6421 141.621C80.4381 141.427 80.2293 141.329 80.0173 141.329H79.8516V141.197H84.7284C85.1444 141.197 85.4887 141.163 85.7612 141.097C86.0321 141.031 86.1979 140.985 86.2584 140.958V143.277L86.1309 143.264V143.118C86.1309 142.571 85.9349 142.182 85.5444 141.952C85.3564 141.837 85.1364 141.776 84.8814 141.766H82.7394V145.622H84.4224C84.7364 145.614 84.9962 145.501 85.2002 145.284C85.4042 145.069 85.5062 144.801 85.5062 144.483V144.363H85.6337V147.417H85.5062V147.311C85.5062 146.99 85.4058 146.722 85.2066 146.51C85.0058 146.298 84.7539 146.188 84.4479 146.179H82.7394V149.895H84.4097C85.0297 149.895 85.5508 149.71 85.9716 149.339C86.3923 148.968 86.7047 148.443 86.9087 147.762H87.0362L86.4497 150.465H79.8516V150.332H80.0173Z" fill="white"/>
<path d="M92.7009 141.78H92.1527C92.1352 141.78 92.1224 141.78 92.1144 141.78V149.498C92.1224 149.728 92.2053 149.925 92.3631 150.088C92.5192 150.251 92.7089 150.333 92.9304 150.333H93.0962V150.465H89.2266V150.333H89.3923C89.6983 150.333 89.931 150.197 90.0936 149.922C90.1605 149.799 90.1987 149.662 90.2083 149.511V142.164C90.1987 141.935 90.1159 141.738 89.9597 141.574C89.8019 141.412 89.6122 141.329 89.3923 141.329H89.2266V141.197H93.5934C94.4174 141.197 95.1139 141.382 95.6844 141.753C95.9729 141.939 96.2024 142.197 96.3729 142.528C96.5419 142.86 96.6279 143.294 96.6279 143.827C96.6279 144.362 96.4494 144.877 96.0924 145.371C95.7354 145.866 95.2159 146.149 94.5369 146.219C95.0294 146.387 95.4629 146.773 95.8374 147.378C96.7554 148.907 97.4344 149.816 97.8774 150.107C98.0974 150.25 98.3715 150.324 98.6998 150.333V150.465H97.4567C96.7172 150.465 96.102 150.364 95.6143 150.16C95.125 149.958 94.7409 149.601 94.4604 149.087C94.2979 148.796 93.9457 148.044 93.4022 146.828C93.1631 146.29 92.8747 145.993 92.5352 145.94V145.808H92.9304C93.3129 145.808 93.6508 145.689 93.9441 145.45C94.2373 145.212 94.4349 144.824 94.5369 144.284C94.5704 144.099 94.5879 143.953 94.5879 143.847C94.5879 143.123 94.4477 142.6 94.1672 142.277C93.8867 141.955 93.5249 141.79 93.0834 141.78C92.9974 141.78 92.8699 141.78 92.7009 141.78Z" fill="white"/>
<path d="M108.872 150.333H108.987V150.465H104.92V150.333H105.035C105.221 150.333 105.36 150.273 105.449 150.154C105.538 150.034 105.583 149.922 105.583 149.816C105.583 149.71 105.561 149.604 105.519 149.498L104.894 147.868H101.917L101.254 149.498C101.211 149.614 101.19 149.721 101.19 149.822C101.19 149.925 101.237 150.034 101.331 150.154C101.423 150.273 101.563 150.333 101.751 150.333H101.853V150.465H99.125V150.333H99.2397C99.4358 150.333 99.6302 150.271 99.8262 150.147C100.021 150.024 100.183 149.839 100.311 149.591L103.25 142.667C103.648 141.793 103.862 141.215 103.887 140.932H104.002L107.789 149.564C107.916 149.821 108.077 150.013 108.273 150.14C108.468 150.27 108.668 150.333 108.872 150.333ZM102.134 147.312H104.678L103.441 144.059L102.134 147.312Z" fill="white"/>
<path d="M110.592 150.333C110.811 150.333 111.001 150.251 111.159 150.088C111.315 149.925 111.398 149.728 111.408 149.498V142.164C111.398 141.935 111.315 141.738 111.159 141.574C111.001 141.412 110.811 141.329 110.592 141.329H110.426V141.197H114.295L114.283 141.329H114.13C113.908 141.329 113.717 141.412 113.556 141.574C113.393 141.738 113.314 141.935 113.314 142.164V149.895H114.984C115.604 149.895 116.125 149.71 116.546 149.339C116.967 148.968 117.279 148.443 117.483 147.762H117.61L117.024 150.465H110.426V150.333H110.592Z" fill="white"/>
<path d="M124.192 141.197C125.697 141.197 126.884 141.612 127.756 142.442C128.631 143.274 129.069 144.403 129.069 145.834C129.069 147.262 128.631 148.39 127.756 149.22C126.884 150.051 125.697 150.465 124.192 150.465H119.57V150.333H119.736C119.956 150.333 120.146 150.251 120.303 150.088C120.46 149.925 120.542 149.728 120.552 149.498V142.085C120.552 141.873 120.469 141.694 120.303 141.548C120.138 141.402 119.948 141.329 119.736 141.329H119.57V141.197H124.192ZM124.026 149.895C124.638 149.895 125.168 149.733 125.614 149.405C126.06 149.079 126.401 148.61 126.64 148.001C126.878 147.388 126.997 146.719 126.997 145.993C126.997 145.269 126.927 144.653 126.787 144.145C126.647 143.638 126.449 143.207 126.194 142.853C125.666 142.121 124.944 141.753 124.026 141.753H122.458V149.895H124.026Z" fill="white"/>
<path d="M140.286 150.333H140.401V150.465H136.334V150.333H136.449C136.635 150.333 136.774 150.273 136.863 150.154C136.952 150.034 136.997 149.922 136.997 149.816C136.997 149.71 136.975 149.604 136.933 149.498L136.308 147.868H133.331L132.668 149.498C132.625 149.614 132.605 149.721 132.605 149.822C132.605 149.925 132.651 150.034 132.745 150.154C132.837 150.273 132.977 150.333 133.166 150.333H133.268V150.465H130.539V150.333H130.654C130.85 150.333 131.044 150.271 131.24 150.147C131.435 150.024 131.597 149.839 131.725 149.591L134.664 142.667C135.062 141.793 135.276 141.215 135.301 140.932H135.416L139.203 149.564C139.33 149.821 139.491 150.013 139.687 150.14C139.882 150.27 140.082 150.333 140.286 150.333ZM133.548 147.312H136.092L134.855 144.059L133.548 147.312Z" fill="white"/>
<path d="M58.3135 161.998L57.2808 160.467C57.1533 160.477 57.0529 160.48 56.9812 160.48H55.7954V161.998H55.1133V157.016H56.9812C57.6011 157.016 58.0904 157.171 58.4474 157.479C58.8044 157.789 58.9829 158.213 58.9829 158.751C58.9829 159.136 58.8905 159.465 58.7088 159.738C58.5255 160.008 58.2641 160.206 57.9247 160.328L59.0594 161.998H58.3135ZM56.962 159.878C57.3955 159.878 57.7238 159.782 57.9502 159.586C58.1797 159.392 58.2944 159.114 58.2944 158.751C58.2944 158.394 58.1797 158.12 57.9502 157.93C57.7238 157.736 57.3955 157.638 56.962 157.638H55.7954V159.878H56.962Z" fill="#DBBE67"/>
<path d="M66.1072 161.381V161.998H62.6328V157.016H66.0116V157.638H63.3149V159.169H65.7183V159.772H63.3149V161.381H66.1072Z" fill="#DBBE67"/>
<path d="M71.1563 162.058C70.7945 162.058 70.4455 162 70.1108 161.885C69.7745 161.766 69.5116 161.614 69.3203 161.428L69.5753 160.872C69.757 161.044 69.9913 161.183 70.2766 161.289C70.5602 161.395 70.8535 161.448 71.1563 161.448C71.5516 161.448 71.8464 161.38 72.0424 161.243C72.2417 161.102 72.3421 160.915 72.3421 160.68C72.3421 160.512 72.2863 160.375 72.1763 160.269C72.0695 160.159 71.9372 160.077 71.7811 160.024C71.6233 159.967 71.4002 159.901 71.1117 159.825C70.7547 159.737 70.463 159.649 70.2383 159.56C70.0168 159.467 69.8271 159.328 69.6709 159.143C69.5132 158.954 69.4351 158.699 69.4351 158.381C69.4351 158.116 69.502 157.877 69.6391 157.665C69.7745 157.453 69.9785 157.284 70.2511 157.155C70.5268 157.027 70.8662 156.963 71.2711 156.963C71.5547 156.963 71.8337 157.001 72.1062 157.076C72.3819 157.152 72.6178 157.259 72.8138 157.4L72.5843 157.97C72.3835 157.837 72.1699 157.738 71.9404 157.672C71.7141 157.602 71.491 157.566 71.2711 157.566C70.8838 157.566 70.5921 157.639 70.3977 157.784C70.2064 157.93 70.1108 158.121 70.1108 158.354C70.1108 158.526 70.1634 158.666 70.2702 158.772C70.3802 158.878 70.5156 158.962 70.6782 159.023C70.8392 159.081 71.0607 159.143 71.3412 159.209C71.7014 159.298 71.9914 159.388 72.2082 159.48C72.4281 159.57 72.6178 159.706 72.7756 159.891C72.9317 160.077 73.0114 160.327 73.0114 160.64C73.0114 160.901 72.9413 161.14 72.8011 161.355C72.664 161.572 72.4568 161.744 72.1763 161.872C71.899 161.996 71.5595 162.058 71.1563 162.058Z" fill="#DBBE67"/>
<path d="M78.7141 162.058C78.2296 162.058 77.7929 161.948 77.4072 161.726C77.0199 161.506 76.7155 161.201 76.4956 160.812C76.274 160.424 76.1641 159.989 76.1641 159.507C76.1641 159.03 76.274 158.598 76.4956 158.208C76.7155 157.816 77.0199 157.511 77.4072 157.294C77.7929 157.074 78.2296 156.963 78.7141 156.963C79.1938 156.963 79.6273 157.074 80.0146 157.294C80.405 157.511 80.7094 157.814 80.9262 158.202C81.1461 158.591 81.2577 159.027 81.2577 159.507C81.2577 159.994 81.1461 160.431 80.9262 160.819C80.7094 161.203 80.405 161.506 80.0146 161.726C79.6273 161.948 79.1938 162.058 78.7141 162.058ZM78.7141 161.422C79.0663 161.422 79.3834 161.34 79.6639 161.176C79.9444 161.009 80.1644 160.779 80.3269 160.487C80.4879 160.196 80.5692 159.87 80.5692 159.507C80.5692 159.146 80.4879 158.818 80.3269 158.526C80.1644 158.235 79.9444 158.008 79.6639 157.844C79.3834 157.677 79.0663 157.592 78.7141 157.592C78.3602 157.592 78.0415 157.677 77.7578 157.844C77.4725 158.008 77.2494 158.235 77.0884 158.526C76.9259 158.818 76.8462 159.146 76.8462 159.507C76.8462 159.87 76.9259 160.196 77.0884 160.487C77.2494 160.779 77.4725 161.009 77.7578 161.176C78.0415 161.34 78.3602 161.422 78.7141 161.422Z" fill="#DBBE67"/>
<path d="M88.044 161.998L87.0113 160.467C86.8838 160.477 86.7833 160.48 86.7116 160.48H85.5259V161.998H84.8438V157.016H86.7116C87.3316 157.016 87.8209 157.171 88.1779 157.479C88.5349 157.789 88.7134 158.213 88.7134 158.751C88.7134 159.136 88.6209 159.465 88.4393 159.738C88.256 160.008 87.9946 160.206 87.6551 160.328L88.7899 161.998H88.044ZM86.6925 159.878C87.126 159.878 87.4543 159.782 87.6806 159.586C87.9101 159.392 88.0249 159.114 88.0249 158.751C88.0249 158.394 87.9101 158.12 87.6806 157.93C87.4543 157.736 87.126 157.638 86.6925 157.638H85.5259V159.878H86.6925Z" fill="#DBBE67"/>
<path d="M93.3127 157.638H91.668V157.016H95.6332V157.638H93.9885V161.998H93.3127V157.638Z" fill="#DBBE67"/>
<path d="M106.811 162.077L106.174 161.415C105.748 161.844 105.213 162.057 104.567 162.057C104.248 162.057 103.962 162.001 103.707 161.892C103.452 161.783 103.251 161.63 103.107 161.435C102.962 161.236 102.891 161.011 102.891 160.759C102.891 160.454 102.98 160.186 103.158 159.951C103.34 159.717 103.64 159.477 104.057 159.229C103.848 159.013 103.7 158.816 103.611 158.639C103.525 158.463 103.483 158.28 103.483 158.089C103.483 157.755 103.6 157.485 103.834 157.281C104.067 157.079 104.382 156.976 104.778 156.976C105.143 156.976 105.431 157.069 105.645 157.254C105.861 157.44 105.97 157.695 105.97 158.016C105.97 158.265 105.888 158.49 105.727 158.692C105.57 158.891 105.31 159.099 104.95 159.315L106.129 160.54C106.269 160.272 106.368 159.969 106.429 159.633L106.951 159.812C106.87 160.249 106.732 160.63 106.537 160.951L107.181 161.62L106.811 162.077ZM104.778 157.473C104.561 157.473 104.39 157.529 104.268 157.639C104.148 157.75 104.089 157.895 104.089 158.076C104.089 158.205 104.121 158.328 104.185 158.447C104.252 158.566 104.384 158.728 104.58 158.93C104.894 158.745 105.111 158.586 105.23 158.453C105.353 158.321 105.415 158.179 105.415 158.023C105.415 157.856 105.358 157.723 105.243 157.625C105.131 157.524 104.977 157.473 104.778 157.473ZM104.612 161.488C105.087 161.488 105.479 161.332 105.785 161.017L104.421 159.606C104.092 159.797 103.863 159.974 103.732 160.136C103.6 160.3 103.534 160.484 103.534 160.686C103.534 160.925 103.633 161.12 103.834 161.269C104.033 161.415 104.293 161.488 104.612 161.488Z" fill="#DBBE67"/>
<path d="M116.32 162.058C115.959 162.058 115.61 162 115.275 161.885C114.939 161.766 114.676 161.614 114.484 161.428L114.739 160.872C114.921 161.044 115.155 161.183 115.441 161.289C115.724 161.395 116.018 161.448 116.32 161.448C116.716 161.448 117.01 161.38 117.207 161.243C117.406 161.102 117.506 160.915 117.506 160.68C117.506 160.512 117.45 160.375 117.34 160.269C117.234 160.159 117.101 160.077 116.945 160.024C116.787 159.967 116.564 159.901 116.276 159.825C115.919 159.737 115.627 159.649 115.402 159.56C115.181 159.467 114.991 159.328 114.835 159.143C114.677 158.954 114.599 158.699 114.599 158.381C114.599 158.116 114.666 157.877 114.803 157.665C114.939 157.453 115.143 157.284 115.415 157.155C115.691 157.027 116.03 156.963 116.435 156.963C116.719 156.963 116.998 157.001 117.27 157.076C117.546 157.152 117.782 157.259 117.978 157.4L117.748 157.97C117.548 157.837 117.334 157.738 117.105 157.672C116.878 157.602 116.655 157.566 116.435 157.566C116.048 157.566 115.756 157.639 115.562 157.784C115.371 157.93 115.275 158.121 115.275 158.354C115.275 158.526 115.327 158.666 115.434 158.772C115.544 158.878 115.68 158.962 115.842 159.023C116.003 159.081 116.225 159.143 116.505 159.209C116.865 159.298 117.156 159.388 117.372 159.48C117.592 159.57 117.782 159.706 117.94 159.891C118.096 160.077 118.176 160.327 118.176 160.64C118.176 160.901 118.105 161.14 117.965 161.355C117.828 161.572 117.621 161.744 117.34 161.872C117.063 161.996 116.724 162.058 116.32 162.058Z" fill="#DBBE67"/>
<path d="M123.587 157.016C124.207 157.016 124.696 157.171 125.053 157.479C125.41 157.789 125.588 158.213 125.588 158.751C125.588 159.295 125.41 159.722 125.053 160.03C124.696 160.335 124.207 160.487 123.587 160.487H122.401V161.998H121.719V157.016H123.587ZM123.568 159.871C124.001 159.871 124.329 159.777 124.556 159.586C124.785 159.392 124.9 159.114 124.9 158.751C124.9 158.394 124.785 158.12 124.556 157.93C124.329 157.736 124.001 157.638 123.568 157.638H122.401V159.871H123.568Z" fill="#DBBE67"/>
<path d="M132.257 160.752H129.707L129.184 161.998H128.477L130.644 157.016H131.326L133.5 161.998H132.78L132.257 160.752ZM132.015 160.182L130.982 157.744L129.949 160.182H132.015Z" fill="#DBBE67"/>
</g>
<defs>
<clipPath id="clip0_324_13680">
<rect width="153" height="159" fill="white" transform="translate(19 11)"/>
</clipPath>
</defs>
</svg>
