<svg width="343" height="364" viewBox="0 0 343 364" fill="none" xmlns="http://www.w3.org/2000/svg">
<circle cx="167.057" cy="166.005" r="165.28" fill="#1F2F1A"/>
<g clip-path="url(#clip0_324_13683)">
<mask id="mask0_324_13683" style="mask-type:luminance" maskUnits="userSpaceOnUse" x="135" y="19" width="65" height="47">
<path d="M135.371 19.7319H199.398V65.1172H135.371V19.7319Z" fill="white"/>
</mask>
<g mask="url(#mask0_324_13683)">
<path d="M184.072 62.3301C183.393 62.3301 182.832 61.7608 182.832 61.0389C182.832 60.332 183.393 59.7478 184.072 59.7478C184.765 59.7478 185.312 60.332 185.312 61.0389C185.312 61.7608 184.765 62.3301 184.072 62.3301ZM178.47 62.3301C177.791 62.3301 177.23 61.7608 177.23 61.0389C177.23 60.332 177.791 59.7478 178.47 59.7478C179.163 59.7478 179.709 60.332 179.709 61.0389C179.709 61.7608 179.163 62.3301 178.47 62.3301ZM172.867 62.3301C172.188 62.3301 171.631 61.7608 171.631 61.0389C171.631 60.332 172.188 59.7478 172.867 59.7478C173.55 59.7478 174.111 60.332 174.111 61.0389C174.111 61.7608 173.55 62.3301 172.867 62.3301ZM167.34 62.3153C166.693 62.2706 166.179 61.7385 166.179 61.0389C166.179 60.3543 166.693 59.811 167.34 59.7626C167.99 59.811 168.505 60.3543 168.505 61.0389C168.505 61.7385 167.99 62.2706 167.34 62.3153ZM161.816 62.3301C161.134 62.3301 160.576 61.7608 160.576 61.0389C160.576 60.332 161.134 59.7478 161.816 59.7478C162.495 59.7478 163.056 60.332 163.056 61.0389C163.056 61.7608 162.495 62.3301 161.816 62.3301ZM156.214 62.3301C155.521 62.3301 154.974 61.7608 154.974 61.0389C154.974 60.332 155.521 59.7478 156.214 59.7478C156.893 59.7478 157.454 60.332 157.454 61.0389C157.454 61.7608 156.893 62.3301 156.214 62.3301ZM150.612 62.3301C149.918 62.3301 149.372 61.7608 149.372 61.0389C149.372 60.332 149.918 59.7478 150.612 59.7478C151.294 59.7478 151.851 60.332 151.851 61.0389C151.851 61.7608 151.294 62.3301 150.612 62.3301ZM182.285 43.4981C181.896 44.7632 181.982 46.1326 182.443 47.3717C183.222 49.448 184.061 53.2695 180.985 55.4574C176.612 58.598 172.36 54.5346 171.556 49.9168C170.731 45.206 171.824 41.7901 175.386 40.6515C178.93 39.5129 167.272 19.7319 167.272 19.7319C167.272 19.7319 155.753 39.5129 159.301 40.6515C162.859 41.7901 163.953 45.206 163.127 49.9168C162.327 54.5346 158.072 58.598 153.699 55.4574C150.622 53.2695 151.462 49.448 152.241 47.3717C152.702 46.1326 152.787 44.7632 152.398 43.4981C149.422 33.8458 135.52 33.9685 135.52 33.9685C149.057 53.4704 148.911 64.5702 148.911 64.5702H185.773C185.773 64.5702 185.626 53.4704 199.164 33.9685C199.164 33.9685 185.265 33.8458 182.285 43.4981Z" fill="#DBBE67"/>
</g>
<path d="M183.647 67.2827H151.034C149.937 67.2827 149.051 68.2055 149.051 69.3442C149.051 70.4865 149.937 71.4093 151.034 71.4093H183.647C184.741 71.4093 185.627 70.4865 185.627 69.3442C185.627 68.2055 184.741 67.2827 183.647 67.2827Z" fill="#DBBE67"/>
<mask id="mask1_324_13683" style="mask-type:luminance" maskUnits="userSpaceOnUse" x="135" y="19" width="65" height="47">
<path d="M135.371 19.7319H199.398V65.1172H135.371V19.7319Z" fill="white"/>
</mask>
<g mask="url(#mask1_324_13683)">
<path d="M184.072 62.3301C183.393 62.3301 182.832 61.7608 182.832 61.0389C182.832 60.332 183.393 59.7478 184.072 59.7478C184.765 59.7478 185.312 60.332 185.312 61.0389C185.312 61.7608 184.765 62.3301 184.072 62.3301ZM178.47 62.3301C177.791 62.3301 177.23 61.7608 177.23 61.0389C177.23 60.332 177.791 59.7478 178.47 59.7478C179.163 59.7478 179.709 60.332 179.709 61.0389C179.709 61.7608 179.163 62.3301 178.47 62.3301ZM172.867 62.3301C172.188 62.3301 171.631 61.7608 171.631 61.0389C171.631 60.332 172.188 59.7478 172.867 59.7478C173.55 59.7478 174.111 60.332 174.111 61.0389C174.111 61.7608 173.55 62.3301 172.867 62.3301ZM167.34 62.3153C166.693 62.2706 166.179 61.7385 166.179 61.0389C166.179 60.3543 166.693 59.811 167.34 59.7626C167.99 59.811 168.505 60.3543 168.505 61.0389C168.505 61.7385 167.99 62.2706 167.34 62.3153ZM161.816 62.3301C161.134 62.3301 160.576 61.7608 160.576 61.0389C160.576 60.332 161.134 59.7478 161.816 59.7478C162.495 59.7478 163.056 60.332 163.056 61.0389C163.056 61.7608 162.495 62.3301 161.816 62.3301ZM156.214 62.3301C155.521 62.3301 154.974 61.7608 154.974 61.0389C154.974 60.332 155.521 59.7478 156.214 59.7478C156.893 59.7478 157.454 60.332 157.454 61.0389C157.454 61.7608 156.893 62.3301 156.214 62.3301ZM150.612 62.3301C149.918 62.3301 149.372 61.7608 149.372 61.0389C149.372 60.332 149.918 59.7478 150.612 59.7478C151.294 59.7478 151.851 60.332 151.851 61.0389C151.851 61.7608 151.294 62.3301 150.612 62.3301ZM182.285 43.4981C181.896 44.7632 181.982 46.1326 182.443 47.3717C183.222 49.448 184.061 53.2695 180.985 55.4574C176.612 58.598 172.36 54.5346 171.556 49.9168C170.731 45.206 171.824 41.7901 175.386 40.6515C178.93 39.5129 167.272 19.7319 167.272 19.7319C167.272 19.7319 155.753 39.5129 159.301 40.6515C162.859 41.7901 163.953 45.206 163.127 49.9168C162.327 54.5346 158.072 58.598 153.699 55.4574C150.622 53.2695 151.462 49.448 152.241 47.3717C152.702 46.1326 152.787 44.7632 152.398 43.4981C149.422 33.8458 135.52 33.9685 135.52 33.9685C149.057 53.4704 148.911 64.5702 148.911 64.5702H185.773C185.773 64.5702 185.626 53.4704 199.164 33.9685C199.164 33.9685 185.265 33.8458 182.285 43.4981Z" fill="#DBBE67"/>
</g>
<path d="M183.647 67.2827H151.034C149.937 67.2827 149.051 68.2055 149.051 69.3442C149.051 70.4865 149.937 71.4093 151.034 71.4093H183.647C184.741 71.4093 185.627 70.4865 185.627 69.3442C185.627 68.2055 184.741 67.2827 183.647 67.2827Z" fill="#DBBE67"/>
<path d="M171.013 77.4748C169.634 75.6738 167.115 75.3798 165.386 76.8161C163.657 78.2524 163.374 80.8758 164.754 82.6767C166.133 84.4777 168.652 84.7717 170.381 83.3354C172.11 81.899 172.392 79.2757 171.013 77.4748Z" fill="#DBBE67"/>
<path d="M151.212 79.6849C150.605 80.2467 150.53 81.0207 150.509 81.8244C150.491 82.4942 149.683 82.5203 149.462 81.9696C149.083 81.0356 149.258 79.9714 149.923 79.216C150.323 78.7583 151.437 78.0848 151.941 78.7323C152.224 79.0969 151.391 79.5174 151.212 79.6849ZM151.42 77.3071C149.212 77.3071 147.418 79.1714 147.418 81.4747C147.418 83.778 149.212 85.6459 151.42 85.6459C153.631 85.6459 155.425 83.778 155.425 81.4747C155.425 79.1714 153.631 77.3071 151.42 77.3071Z" fill="#DBBE67"/>
<path d="M136.591 84.2618C136.234 84.7604 135.698 85.0395 135.376 85.5865C135.04 86.1632 134.876 86.8591 134.747 87.514C134.658 87.9716 133.915 87.9902 133.84 87.514C133.693 86.5577 133.8 85.6646 134.365 84.8609C134.808 84.2246 135.598 83.6106 136.387 83.7408C136.591 83.7706 136.716 84.0906 136.591 84.2618ZM136.877 82.5203C134.733 81.951 132.553 83.3018 132.01 85.5344C131.467 87.767 132.764 90.0368 134.908 90.6024C137.048 91.1717 139.228 89.821 139.774 87.5884C140.317 85.3558 139.02 83.0859 136.877 82.5203Z" fill="#DBBE67"/>
<path d="M122.19 92.3325C121.79 92.779 121.272 93.0022 120.954 93.553C120.65 94.0776 120.525 94.7734 120.554 95.3763C120.586 95.9381 119.843 95.9605 119.679 95.499C119.35 94.5725 119.478 93.6832 120.004 92.8608C120.418 92.2097 121.24 91.5213 122.037 91.7259C122.298 91.7966 122.362 92.139 122.19 92.3325ZM121.829 90.7324C119.618 90.7324 117.824 92.6004 117.824 94.9037C117.824 97.207 119.618 99.0749 121.829 99.0749C124.041 99.0749 125.835 97.207 125.835 94.9037C125.835 92.6004 124.041 90.7324 121.829 90.7324Z" fill="#DBBE67"/>
<path d="M110.424 102.789C109.974 103.109 109.495 103.247 109.123 103.693C108.755 104.132 108.577 104.701 108.448 105.256C108.33 105.769 107.494 105.814 107.408 105.256C107.262 104.303 107.516 103.414 108.202 102.733C108.755 102.19 109.713 101.795 110.424 102.216C110.645 102.346 110.617 102.651 110.424 102.789ZM109.845 100.579C107.63 100.579 105.84 102.447 105.84 104.75C105.84 107.053 107.63 108.921 109.845 108.921C112.053 108.921 113.847 107.053 113.847 104.75C113.847 102.447 112.053 100.579 109.845 100.579Z" fill="#DBBE67"/>
<path d="M100.094 114.071C99.3437 114.607 98.7541 114.998 98.6505 116.054C98.6076 116.493 97.9752 116.653 97.8645 116.166C97.6751 115.31 97.8716 114.559 98.5147 113.967C98.9149 113.598 99.558 113.215 100.094 113.476C100.337 113.595 100.28 113.941 100.094 114.071ZM100.333 112.281C98.1217 112.281 96.3281 114.145 96.3281 116.453C96.3281 118.752 98.1217 120.62 100.333 120.62C102.545 120.62 104.339 118.752 104.339 116.453C104.339 114.145 102.545 112.281 100.333 112.281Z" fill="#DBBE67"/>
<path d="M92.0969 128.583C91.7646 128.91 91.3752 129.13 91.1143 129.536C90.8571 129.934 90.6892 130.462 90.6034 130.927C90.5141 131.396 89.9174 131.217 89.8745 130.827C89.7316 129.588 90.5498 128.058 91.9111 128.122C92.129 128.133 92.2684 128.416 92.0969 128.583ZM92.3256 126.875C90.1139 126.875 88.3203 128.743 88.3203 131.046C88.3203 133.35 90.1139 135.218 92.3256 135.218C94.5372 135.218 96.3308 133.35 96.3308 131.046C96.3308 128.743 94.5372 126.875 92.3256 126.875Z" fill="#DBBE67"/>
<path d="M87.4034 146.146C87.1104 146.604 86.6245 146.868 86.3387 147.348C86.0421 147.854 85.9992 148.468 85.8956 149.037C85.792 149.607 85.0739 149.476 84.9131 149.037C84.6129 148.241 84.7809 147.374 85.2382 146.678C85.6169 146.098 86.3565 145.461 87.0711 145.547C87.3355 145.577 87.5785 145.867 87.4034 146.146ZM87.2748 144.52C85.0631 144.52 83.2695 146.388 83.2695 148.691C83.2695 150.995 85.0631 152.863 87.2748 152.863C89.4864 152.863 91.28 150.995 91.28 148.691C91.28 146.388 89.4864 144.52 87.2748 144.52Z" fill="#DBBE67"/>
<path d="M85.9484 163.527C85.5161 163.746 85.0623 163.847 84.7408 164.249C84.4156 164.658 84.3263 165.212 84.1941 165.711C84.0726 166.165 83.3795 166.198 83.2759 165.711C82.9579 164.219 84.1262 162.016 85.8484 162.723C86.1521 162.846 86.3129 163.344 85.9484 163.527ZM85.7162 161.287C83.5045 161.287 81.7109 163.155 81.7109 165.454C81.7109 167.757 83.5045 169.625 85.7162 169.625C87.9278 169.625 89.7214 167.757 89.7214 165.454C89.7214 163.155 87.9278 161.287 85.7162 161.287Z" fill="#DBBE67"/>
<path d="M85.9419 103.767C84.7378 108.415 82.0367 112.474 81.1006 117.204C81.0613 117.405 80.7504 117.356 80.7576 117.155C80.9184 113.137 82.6262 109.598 83.8767 105.858C85.4488 101.155 85.9597 90.7437 86.0848 91.2981C87.0138 95.4805 87.0209 99.6108 85.9419 103.767ZM76.3236 184.807C76.5523 184.897 67.6807 182.95 62.1427 176.119C54.4966 166.686 52.7781 159.739 53.0496 160.256C58.1089 169.905 66.0729 180.908 76.3236 184.807ZM68.7955 114.841C68.7812 124.382 65.3726 133.126 64.0435 142.455C62.6715 152.059 66.0515 161.194 71.3036 168.956C71.4251 169.134 71.1464 169.354 71.0142 169.19C65.7799 162.857 62.4464 154.462 62.157 146.075C61.789 135.437 68.7955 114.086 68.7955 114.841ZM70.5748 133.067C67.4592 152.862 70.9213 159.281 70.8427 159.173C63.3575 148.691 70.6891 132.319 70.5748 133.067ZM137.238 62.1625C134.934 53.5074 125.387 52.9456 119.731 58.5085C116.447 61.7458 114.289 65.7421 112.782 70.0585C110.906 65.0872 106.204 61.8016 100.444 64.0379C97.0644 65.3514 93.8595 68.518 92.9841 72.239C92.466 74.4196 92.8269 76.894 94.0917 78.6317C94.7884 79.8522 96.0568 80.6746 97.5146 80.6746C99.7262 80.6746 101.52 78.8066 101.52 76.5033C101.52 74.2 99.7262 72.3358 97.5146 72.3358C97.0036 72.3358 96.5177 72.4437 96.0675 72.626C96.6285 70.4716 98.247 68.5515 100.594 67.3124C105.636 64.6221 110.384 68.3766 110.738 73.8912C111.288 82.509 104.007 91.6404 98.4435 97.1699C94.7205 100.861 90.8797 104.91 87.4818 109.326C89.9471 105.591 91.4084 100.675 90.7796 96.1391C90.4723 93.94 89.647 91.7521 88.0785 90.2041C87.3996 89.538 86.6493 88.9873 85.974 88.2915C85.456 87.7594 83.5052 86.565 83.2729 85.9994C86.5922 94.2191 82.6012 104.645 79.9358 112.567C78.6603 116.337 77.1597 120.013 75.4554 123.582C75.2196 124.062 74.9516 124.538 74.655 125.033C75.4589 118.979 74.8909 112.727 73.0937 106.915C72.1897 103.983 70.9642 101.155 69.4171 98.528C68.7347 97.3708 68.1059 96.2136 67.4449 95.0489C66.9411 94.167 65.3297 92.8535 65.0868 91.9939C65.3726 93.0023 65.587 94.0219 65.7728 95.0563C67.6664 105.613 63.286 116.932 60.5384 126.927C57.7337 137.134 55.1398 148.412 59.2915 158.645C58.4269 158.645 56.1116 155.828 55.4685 155.177C54.2108 153.912 53.0318 152.55 52.1099 150.998C50.0341 147.493 49.7804 144.464 49.4481 140.404C46.4862 145.372 46.9149 152.87 48.0547 158.347C49.2623 164.167 51.8384 169.674 55.5221 174.228C59.0057 178.537 63.5183 181.581 68.0702 184.532C69.9817 185.767 71.761 187.096 73.526 188.469C70.7999 187.65 67.9201 187.356 64.9117 187.836C55.7293 189.317 49.7232 198.37 50.2127 207.792C50.7165 217.307 57.1549 225.91 67.1055 223.346C75.7662 221.121 78.4781 206.847 69.4707 204.588C69.3743 204.566 69.2742 204.573 69.1742 204.596C68.9527 204.555 68.7347 204.525 68.5025 204.525C66.2908 204.525 64.5008 206.389 64.5008 208.696C64.5008 210.999 66.2908 212.864 68.5025 212.864C70.1853 212.864 71.6216 211.785 72.2112 210.255C73.2866 213.827 71.6216 218.103 67.8165 219.841C62.0176 222.497 56.2045 219.067 54.218 213.199C50.7165 202.865 56.5296 190.772 67.7593 190.679C76.5273 190.605 84.4198 198.08 90.3366 204.097C96.6392 210.505 102.595 217.068 109.612 222.624C110.195 223.082 110.695 223.376 111.377 223.156C102.531 211.42 95.771 204.209 92.8626 200.253C87.3175 192.718 83.7052 185.243 80.6325 176.316C76.0628 163.036 74.7051 148.282 78.2101 134.551C79.7322 128.594 82.1689 122.863 85.631 117.572C88.8931 112.586 92.0944 107.671 96.264 103.503C102.599 97.1438 109.848 90.0627 112.607 81.0355C113 79.7332 113.289 78.4345 113.482 77.095C115.236 70.2743 118.523 62.5421 123.536 59.2639C128.031 56.328 133.737 58.1289 134.605 63.9598C135.016 66.665 134.473 69.1543 133.129 70.892C133.004 70.4046 132.804 69.932 132.504 69.5004C131.207 67.6361 128.703 67.2194 126.913 68.5701C125.122 69.9208 124.722 72.5293 126.019 74.3935C126.877 75.6289 128.26 76.2094 129.617 76.0866C131.711 76.1312 133.848 74.9851 135.237 73.266C137.617 70.3413 138.199 65.7831 137.238 62.1625Z" fill="#DBBE67"/>
<path d="M250.049 91.2981C250.17 90.7437 250.685 101.155 252.257 105.858C253.507 109.598 255.215 113.137 255.372 117.155C255.38 117.356 255.072 117.405 255.033 117.204C254.097 112.474 251.396 108.415 250.192 103.767C249.113 99.6108 249.12 95.4805 250.049 91.2981ZM283.084 160.256C283.355 159.739 281.637 166.686 273.991 176.119C268.453 182.95 259.581 184.897 259.81 184.807C270.061 180.908 278.025 169.905 283.084 160.256ZM273.977 146.075C273.687 154.462 270.35 162.857 265.119 169.19C264.984 169.354 264.705 169.134 264.83 168.956C270.082 161.194 273.462 152.059 272.09 142.455C270.757 133.126 267.352 124.382 267.335 114.841C267.335 114.086 274.345 135.437 273.977 146.075ZM265.291 159.173C265.212 159.281 268.671 152.862 265.559 133.067C265.441 132.319 272.776 148.691 265.291 159.173ZM200.896 73.266C202.286 74.9851 204.423 76.1312 206.513 76.0866C207.87 76.2094 209.253 75.6289 210.111 74.3935C211.408 72.5293 211.011 69.9208 209.217 68.5701C207.427 67.2194 204.923 67.6361 203.626 69.5004C203.326 69.932 203.126 70.4046 203.004 70.892C201.657 69.1543 201.118 66.665 201.529 63.9598C202.397 58.1289 208.103 56.328 212.597 59.2639C217.61 62.5421 220.897 70.2743 222.648 77.095C222.841 78.4345 223.13 79.7332 223.513 80.9871C226.285 90.0627 233.531 97.1438 239.87 103.503C244.036 107.671 247.24 112.586 250.503 117.572C253.965 122.863 256.398 128.594 257.92 134.551C261.428 148.282 260.071 163.036 255.497 176.316C252.425 185.243 248.813 192.718 243.271 200.253C240.359 204.209 233.603 211.42 224.752 223.156C225.438 223.376 225.939 223.082 226.518 222.624C233.535 217.068 239.494 210.505 245.797 204.097C251.714 198.08 259.603 190.605 268.374 190.679C279.6 190.772 285.413 202.865 281.916 213.199C279.925 219.067 274.112 222.497 268.314 219.841C264.512 218.103 262.843 213.827 263.919 210.255C264.512 211.785 265.948 212.864 267.628 212.864C269.839 212.864 271.633 210.999 271.633 208.696C271.633 206.389 269.839 204.525 267.628 204.525C267.399 204.525 267.177 204.555 266.959 204.596C266.859 204.573 266.759 204.566 266.663 204.588C257.652 206.847 260.367 221.121 269.025 223.346C278.979 225.91 285.413 217.307 285.917 207.792C286.41 198.37 280.404 189.317 271.222 187.836C268.21 187.356 265.334 187.65 262.604 188.469C264.369 187.096 266.148 185.767 268.063 184.532C272.615 181.581 277.124 178.537 280.611 174.228C284.292 169.674 286.871 164.167 288.079 158.347C289.215 152.87 289.644 145.372 286.685 140.404C286.35 144.464 286.099 147.493 284.02 150.998C283.098 152.55 281.919 153.912 280.665 155.177C280.018 155.828 277.703 158.645 276.842 158.645C280.99 148.412 278.396 137.134 275.592 126.927C272.848 116.932 268.464 105.613 270.361 95.0563C270.547 94.0219 270.757 93.0023 271.047 91.9939C270.8 92.8535 269.189 94.167 268.685 95.0489C268.028 96.2136 267.399 97.3708 266.716 98.528C265.169 101.155 263.944 103.983 263.036 106.915C261.239 112.727 260.675 118.979 261.479 125.033C261.182 124.538 260.914 124.062 260.675 123.582C258.97 120.013 257.473 116.337 256.198 112.567C253.532 104.645 249.538 94.2191 252.857 85.9994C252.628 86.565 250.678 87.7594 250.156 88.2915C249.481 88.9873 248.73 89.538 248.055 90.2041C246.483 91.7521 245.658 93.94 245.354 96.1391C244.725 100.675 246.183 105.591 248.648 109.326C245.254 104.91 241.409 100.861 237.69 97.1699C232.127 91.6404 224.845 82.509 225.392 73.8912C225.749 68.3766 230.494 64.6221 235.539 67.3124C237.883 68.5515 239.501 70.4716 240.062 72.626C239.612 72.4437 239.13 72.3358 238.615 72.3358C236.404 72.3358 234.61 74.2 234.61 76.5033C234.61 78.8066 236.404 80.6746 238.615 80.6746C240.077 80.6746 241.342 79.8522 242.042 78.6317C243.307 76.894 243.668 74.4196 243.146 72.239C242.271 68.518 239.069 65.3514 235.686 64.0379C229.93 61.8016 225.228 65.0872 223.352 70.0585C221.841 65.7421 219.686 61.7458 216.399 58.5085C210.747 52.9456 201.2 53.5074 198.895 62.1625C197.934 65.7831 198.513 70.3413 200.896 73.266Z" fill="#DBBE67"/>
<path d="M87.1643 94.2192C87.1179 93.8433 86.782 93.6759 86.5105 93.7391C86.9035 96.6415 86.8392 99.529 86.2461 102.42C86.3533 102.376 86.4533 102.301 86.5319 102.175C87.8611 100.054 87.4573 96.5969 87.1643 94.2192Z" fill="#DBBE67"/>
<path d="M93.4961 91.9009C93.4961 90.8738 94.2964 90.0366 95.2861 90.0366C96.2722 90.0366 97.0762 90.8738 97.0762 91.9009C97.0762 92.9316 96.2722 93.7651 95.2861 93.7651C94.2964 93.7651 93.4961 92.9316 93.4961 91.9009Z" fill="#DBBE67"/>
<path d="M62.5664 197.637C62.5664 196.606 63.3667 195.773 64.3529 195.773C65.3426 195.773 66.1429 196.606 66.1429 197.637C66.1429 198.664 65.3426 199.501 64.3529 199.501C63.3667 199.501 62.5664 198.664 62.5664 197.637Z" fill="#DBBE67"/>
<path d="M56.8906 204.629C56.8906 203.602 57.691 202.765 58.6807 202.765C59.6668 202.765 60.4707 203.602 60.4707 204.629C60.4707 205.66 59.6668 206.494 58.6807 206.494C57.691 206.494 56.8906 205.66 56.8906 204.629Z" fill="#DBBE67"/>
<path d="M59.3086 214.564C59.3086 213.537 60.1125 212.7 61.0986 212.7C62.0883 212.7 62.8887 213.537 62.8887 214.564C62.8887 215.595 62.0883 216.429 61.0986 216.429C60.1125 216.429 59.3086 215.595 59.3086 214.564Z" fill="#DBBE67"/>
<path d="M72.2422 197.637C72.2422 196.606 73.0425 195.773 74.0322 195.773C75.0219 195.773 75.8222 196.606 75.8222 197.637C75.8222 198.664 75.0219 199.501 74.0322 199.501C73.0425 199.501 72.2422 198.664 72.2422 197.637Z" fill="#DBBE67"/>
<path d="M79.9258 204.629C79.9258 203.602 80.7261 202.765 81.7122 202.765C82.7019 202.765 83.5023 203.602 83.5023 204.629C83.5023 205.66 82.7019 206.494 81.7122 206.494C80.7261 206.494 79.9258 205.66 79.9258 204.629Z" fill="#DBBE67"/>
<path d="M85.6758 211.554C85.6758 210.527 86.4761 209.693 87.4658 209.693C88.4519 209.693 89.2558 210.527 89.2558 211.554C89.2558 212.585 88.4519 213.418 87.4658 213.418C86.4761 213.418 85.6758 212.585 85.6758 211.554Z" fill="#DBBE67"/>
<path d="M93.4961 218.293C93.4961 217.262 94.2964 216.429 95.2861 216.429C96.2722 216.429 97.0762 217.262 97.0762 218.293C97.0762 219.32 96.2722 220.157 95.2861 220.157C94.2964 220.157 93.4961 219.32 93.4961 218.293Z" fill="#DBBE67"/>
<path d="M99.0547 85.646C99.0547 84.6152 99.8586 83.7817 100.845 83.7817C101.834 83.7817 102.635 84.6152 102.635 85.646C102.635 86.6767 101.834 87.5102 100.845 87.5102C99.8586 87.5102 99.0547 86.6767 99.0547 85.646Z" fill="#DBBE67"/>
<mask id="mask2_324_13683" style="mask-type:luminance" maskUnits="userSpaceOnUse" x="36" y="176" width="26" height="14">
<path d="M36.1484 176.569H61.2839V189.905H36.1484V176.569Z" fill="white"/>
</mask>
<g mask="url(#mask2_324_13683)">
<path d="M61.1011 183.189C61.2119 183.535 54.309 190.832 47.1953 189.444C40.0781 188.052 42.1897 178.787 36.1836 177.395C36.1836 177.395 42.304 174.266 48.6424 180.636C54.0196 186.043 61.1011 183.189 61.1011 183.189Z" fill="#DBBE67"/>
</g>
<mask id="mask3_324_13683" style="mask-type:luminance" maskUnits="userSpaceOnUse" x="149" y="256" width="38" height="27">
<path d="M149.27 256.586H186.349V282.38H149.27V256.586Z" fill="white"/>
</mask>
<g mask="url(#mask3_324_13683)">
<path d="M167.886 276.527C159.861 261.252 167.886 261.036 167.886 261.036C167.886 261.036 175.911 261.252 167.886 276.527ZM180.316 267.057C178.98 264.355 177.897 261.42 175.821 259.287C173.742 257.155 170.258 255.782 167.886 257.542C165.514 255.782 162.026 257.155 159.951 259.287C157.875 261.42 156.792 264.355 155.456 267.057C154.123 269.762 152.297 272.478 149.539 273.453C153.305 274.89 157.757 274.164 160.93 271.6C162.219 276.002 164.667 279.228 167.886 282.38C171.105 279.228 173.549 276.002 174.842 271.6C178.015 274.164 182.463 274.89 186.233 273.453C183.475 272.478 181.649 269.762 180.316 267.057Z" fill="#DBBE67"/>
</g>
<path d="M110.206 239.778C88.2107 233.806 75.684 247.168 76.0127 246.636C81.7794 237.207 95.9353 235.313 105.639 236.47C120.628 238.252 134.119 246.543 149.415 246.353C150.408 246.342 147.971 250.029 110.206 239.778ZM121.996 249.747C109.705 248.813 102.595 255.574 102.745 255.365C111.96 242.758 124.554 248.638 140.072 250.361C140.929 250.454 136.123 250.822 121.996 249.747ZM87.1352 231.234C95.0814 227.406 104.803 229.195 112.878 231.67C113.675 231.915 103.821 231.29 99.376 231.071C95.2922 230.87 86.7708 231.413 87.1352 231.234ZM172.639 223.871C169.805 219.952 165.464 217.549 160.762 217.273C157.386 217.076 151.584 218.23 150.222 223.022C150.115 223.398 150.065 224.124 150.101 224.827C150.097 224.89 150.083 224.946 150.083 225.005C150.083 227.309 151.876 229.177 154.088 229.177C156.3 229.177 158.09 227.309 158.09 225.005C158.09 222.702 156.3 220.838 154.088 220.838C153.902 220.838 153.727 220.868 153.549 220.894C157.046 217.727 164.003 218.94 167.011 222.23C168.773 224.157 169.612 227.595 169.423 230.204C169.194 233.352 167.519 236.124 165.343 238.234C159.944 243.488 153.613 244.243 146.581 242.84C135.148 240.522 125.269 233.772 114.8 228.846C110.527 226.836 106.065 224.86 101.363 224.306C96.5284 223.733 91.4406 224.596 86.7243 225.739C82.3154 226.806 77.9814 228.436 74.1191 230.918C70.882 232.998 65.6977 236.809 64.9974 241.028C70.6962 237.999 77.4991 235.164 84.0089 235.164C81.5936 235.186 77.717 238.524 75.852 239.964C73.2544 241.966 70.8999 244.306 68.8455 246.907C64.8402 251.975 60.8886 258.636 61.0065 265.419C60.9886 264.463 70.9964 253.676 92.0694 248.158C94.1453 247.614 96.3033 247.484 98.4435 247.354C99.8798 247.265 103.51 248.009 104.685 247.35C100.83 249.62 97.6396 252.973 95.6959 257.189C93.7022 261.527 92.2195 268.865 95.21 273.1C97.0358 269.561 98.5507 265.721 101.502 263.016C103.989 260.731 107.079 259.291 110.248 258.368C116.726 256.485 123.533 256.63 130.192 256.63C142.355 256.723 156.253 257.914 166.722 250.16C174.525 244.37 178.945 232.581 172.639 223.871Z" fill="#DBBE67"/>
<path d="M154.316 260.545C154.316 260.545 145.416 258.718 135.555 266.406C128.288 272.077 120.734 269.922 120.734 269.922C120.734 269.922 132.957 279.571 142.122 270.953C150.868 262.722 154.316 260.545 154.316 260.545Z" fill="#DBBE67"/>
<path d="M184.077 78.7323C184.581 78.0848 185.696 78.7583 186.1 79.216C186.761 79.9714 186.936 81.0356 186.557 81.9696C186.335 82.5203 185.532 82.4942 185.51 81.8244C185.489 81.0207 185.414 80.2467 184.806 79.6849C184.628 79.5174 183.795 79.0969 184.077 78.7323ZM180.594 81.4747C180.594 83.778 182.387 85.6459 184.599 85.6459C186.811 85.6459 188.604 83.778 188.604 81.4747C188.604 79.1714 186.811 77.3071 184.599 77.3071C182.387 77.3071 180.594 79.1714 180.594 81.4747Z" fill="#DBBE67"/>
<path d="M199.634 83.7408C200.423 83.6106 201.213 84.2246 201.659 84.8609C202.22 85.6646 202.328 86.5577 202.181 87.514C202.106 87.9902 201.366 87.9716 201.277 87.514C201.145 86.8591 200.981 86.1632 200.645 85.5865C200.323 85.0395 199.787 84.7604 199.43 84.2618C199.308 84.0906 199.43 83.7706 199.634 83.7408ZM196.25 87.5884C196.793 89.821 198.973 91.1717 201.116 90.6024C203.26 90.0368 204.553 87.767 204.01 85.5344C203.467 83.3018 201.288 81.951 199.144 82.5203C197 83.0859 195.703 85.3558 196.25 87.5884Z" fill="#DBBE67"/>
<path d="M213.982 91.7259C214.778 91.5213 215.6 92.2097 216.018 92.8608C216.543 93.6832 216.668 94.5725 216.34 95.499C216.175 95.9605 215.432 95.9381 215.464 95.3763C215.497 94.7734 215.368 94.0776 215.064 93.553C214.746 93.0022 214.232 92.779 213.828 92.3325C213.656 92.139 213.721 91.7966 213.982 91.7259ZM210.184 94.9037C210.184 97.207 211.977 99.0749 214.189 99.0749C216.4 99.0749 218.194 97.207 218.194 94.9037C218.194 92.6004 216.4 90.7324 214.189 90.7324C211.977 90.7324 210.184 92.6004 210.184 94.9037Z" fill="#DBBE67"/>
<path d="M225.595 102.216C226.306 101.795 227.267 102.19 227.821 102.733C228.507 103.414 228.757 104.303 228.61 105.256C228.525 105.814 227.688 105.769 227.571 105.256C227.442 104.701 227.263 104.132 226.899 103.693C226.524 103.247 226.045 103.109 225.595 102.789C225.402 102.651 225.373 102.346 225.595 102.216ZM222.172 104.75C222.172 107.053 223.965 108.921 226.177 108.921C228.389 108.921 230.179 107.053 230.179 104.75C230.179 102.447 228.389 100.579 226.177 100.579C223.965 100.579 222.172 102.447 222.172 104.75Z" fill="#DBBE67"/>
<path d="M235.925 113.476C236.461 113.215 237.104 113.598 237.504 113.967C238.147 114.559 238.347 115.31 238.154 116.166C238.047 116.653 237.411 116.493 237.368 116.054C237.264 114.998 236.675 114.607 235.925 114.071C235.739 113.941 235.682 113.595 235.925 113.476ZM231.684 116.453C231.684 118.752 233.477 120.62 235.685 120.62C237.9 120.62 239.691 118.752 239.691 116.453C239.691 114.145 237.9 112.281 235.685 112.281C233.477 112.281 231.684 114.145 231.684 116.453Z" fill="#DBBE67"/>
<path d="M244.107 128.122C245.468 128.058 246.287 129.588 246.144 130.827C246.101 131.217 245.504 131.396 245.418 130.927C245.329 130.462 245.161 129.934 244.904 129.536C244.643 129.13 244.254 128.91 243.921 128.583C243.75 128.416 243.889 128.133 244.107 128.122ZM239.688 131.046C239.688 133.35 241.481 135.218 243.693 135.218C245.904 135.218 247.698 133.35 247.698 131.046C247.698 128.743 245.904 126.875 243.693 126.875C241.481 126.875 239.688 128.743 239.688 131.046Z" fill="#DBBE67"/>
<path d="M248.947 145.547C249.662 145.461 250.401 146.098 250.78 146.678C251.237 147.374 251.405 148.241 251.109 149.037C250.944 149.476 250.226 149.607 250.123 149.037C250.019 148.468 249.976 147.854 249.68 147.348C249.394 146.868 248.908 146.604 248.615 146.146C248.44 145.867 248.683 145.577 248.947 145.547ZM244.738 148.691C244.738 150.995 246.532 152.863 248.744 152.863C250.955 152.863 252.749 150.995 252.749 148.691C252.749 146.388 250.955 144.52 248.744 144.52C246.532 144.52 244.738 146.388 244.738 148.691Z" fill="#DBBE67"/>
<path d="M250.17 162.723C251.892 162.016 253.064 164.219 252.742 165.711C252.639 166.198 251.946 166.165 251.828 165.711C251.692 165.212 251.603 164.658 251.278 164.249C250.956 163.847 250.502 163.746 250.07 163.527C249.705 163.344 249.866 162.846 250.17 162.723ZM246.297 165.454C246.297 167.757 248.09 169.625 250.302 169.625C252.514 169.625 254.307 167.757 254.307 165.454C254.307 163.155 252.514 161.287 250.302 161.287C248.09 161.287 246.297 163.155 246.297 165.454Z" fill="#DBBE67"/>
<path d="M242.522 91.9009C242.522 90.8738 241.721 90.0366 240.735 90.0366C239.746 90.0366 238.945 90.8738 238.945 91.9009C238.945 92.9316 239.746 93.7651 240.735 93.7651C241.721 93.7651 242.522 92.9316 242.522 91.9009Z" fill="#DBBE67"/>
<path d="M273.451 197.637C273.451 196.606 272.651 195.773 271.665 195.773C270.675 195.773 269.875 196.606 269.875 197.637C269.875 198.664 270.675 199.501 271.665 199.501C272.651 199.501 273.451 198.664 273.451 197.637Z" fill="#DBBE67"/>
<path d="M279.131 204.629C279.131 203.602 278.327 202.765 277.341 202.765C276.351 202.765 275.551 203.602 275.551 204.629C275.551 205.66 276.351 206.494 277.341 206.494C278.327 206.494 279.131 205.66 279.131 204.629Z" fill="#DBBE67"/>
<path d="M276.709 214.564C276.709 213.537 275.909 212.7 274.919 212.7C273.929 212.7 273.129 213.537 273.129 214.564C273.129 215.595 273.929 216.429 274.919 216.429C275.909 216.429 276.709 215.595 276.709 214.564Z" fill="#DBBE67"/>
<path d="M263.779 197.637C263.779 196.606 262.979 195.773 261.989 195.773C261.003 195.773 260.199 196.606 260.199 197.637C260.199 198.664 261.003 199.501 261.989 199.501C262.979 199.501 263.779 198.664 263.779 197.637Z" fill="#DBBE67"/>
<path d="M256.092 204.629C256.092 203.602 255.292 202.765 254.306 202.765C253.316 202.765 252.516 203.602 252.516 204.629C252.516 205.66 253.316 206.494 254.306 206.494C255.292 206.494 256.092 205.66 256.092 204.629Z" fill="#DBBE67"/>
<path d="M250.342 211.554C250.342 210.527 249.542 209.693 248.556 209.693C247.566 209.693 246.766 210.527 246.766 211.554C246.766 212.585 247.566 213.418 248.556 213.418C249.542 213.418 250.342 212.585 250.342 211.554Z" fill="#DBBE67"/>
<path d="M242.522 218.293C242.522 217.262 241.721 216.429 240.735 216.429C239.746 216.429 238.945 217.262 238.945 218.293C238.945 219.32 239.746 220.157 240.735 220.157C241.721 220.157 242.522 219.32 242.522 218.293Z" fill="#DBBE67"/>
<path d="M236.963 85.646C236.963 84.6152 236.163 83.7817 235.173 83.7817C234.183 83.7817 233.383 84.6152 233.383 85.646C233.383 86.6767 234.183 87.5102 235.173 87.5102C236.163 87.5102 236.963 86.6767 236.963 85.646Z" fill="#DBBE67"/>
<mask id="mask4_324_13683" style="mask-type:luminance" maskUnits="userSpaceOnUse" x="274" y="176" width="26" height="14">
<path d="M274.719 176.569H299.572V189.637H274.719V176.569Z" fill="white"/>
</mask>
<g mask="url(#mask4_324_13683)">
<path d="M274.919 183.189C274.809 183.535 281.711 190.832 288.825 189.444C295.946 188.052 293.831 178.787 299.837 177.395C299.837 177.395 293.72 174.266 287.378 180.636C282.001 186.043 274.919 183.189 274.919 183.189Z" fill="#DBBE67"/>
</g>
<path d="M185.986 246.353C201.285 246.543 214.773 238.252 229.762 236.47C239.466 235.313 253.625 237.207 259.392 246.636C259.717 247.168 247.19 233.806 225.199 239.778C187.43 250.029 184.993 246.342 185.986 246.353ZM195.333 250.361C210.847 248.638 223.445 242.758 232.659 255.365C232.809 255.574 225.696 248.813 213.405 249.747C199.281 250.822 194.472 250.454 195.333 250.361ZM236.025 231.071C231.584 231.29 221.726 231.915 222.526 231.67C230.598 229.195 240.323 227.406 248.266 231.234C248.63 231.413 240.109 230.87 236.025 231.071ZM168.679 250.16C179.151 257.914 193.046 256.723 205.209 256.63C211.872 256.63 218.675 256.485 225.153 258.368C228.325 259.291 231.412 260.731 233.903 263.016C236.85 265.721 238.365 269.561 240.195 273.1C243.185 268.865 241.702 261.527 239.705 257.189C237.765 252.973 234.574 249.62 230.719 247.35C231.895 248.009 235.521 247.265 236.961 247.354C239.098 247.484 241.256 247.614 243.332 248.158C264.408 253.676 274.412 264.463 274.398 265.419C274.516 258.636 270.561 251.975 266.555 246.907C264.505 244.306 262.15 241.966 259.553 239.964C257.684 238.524 253.807 235.186 251.392 235.164C257.905 235.164 264.705 237.999 270.407 241.028C269.707 236.809 264.523 232.998 261.285 230.918C257.42 228.436 253.086 226.806 248.677 225.739C243.96 224.596 238.876 223.733 234.038 224.306C229.34 224.86 224.874 226.836 220.604 228.846C210.132 233.772 200.253 240.522 188.82 242.84C181.792 244.243 175.457 243.488 170.058 238.234C167.882 236.124 166.207 233.352 165.978 230.204C165.792 227.595 166.628 224.157 168.39 222.23C171.398 218.94 178.358 217.727 181.856 220.894C181.677 220.868 181.499 220.838 181.316 220.838C179.105 220.838 177.311 222.702 177.311 225.005C177.311 227.309 179.105 229.177 181.316 229.177C183.528 229.177 185.318 227.309 185.318 225.005C185.318 224.946 185.304 224.89 185.304 224.827C185.336 224.124 185.286 223.398 185.179 223.022C183.817 218.23 178.015 217.076 174.639 217.273C169.937 217.549 165.599 219.952 162.762 223.871C156.46 232.581 160.879 244.37 168.679 250.16Z" fill="#DBBE67"/>
<path d="M181.703 260.545C181.703 260.545 190.603 258.718 200.465 266.406C207.735 272.077 215.285 269.922 215.285 269.922C215.285 269.922 203.062 279.571 193.897 270.953C185.151 262.722 181.703 260.545 181.703 260.545Z" fill="#DBBE67"/>
<path d="M167.706 89.2593C127.367 89.2593 94.543 123.444 94.543 165.455C94.543 203.621 121.626 235.317 156.833 240.801C156.908 240.82 156.983 240.842 157.065 240.842C157.48 240.842 157.816 240.493 157.816 240.061C157.816 239.652 157.508 239.324 157.123 239.291C122.687 233.877 96.0257 202.817 96.0257 165.455C96.0257 124.293 128.182 90.8035 167.706 90.8035C207.215 90.8035 239.371 124.293 239.371 165.455C239.371 203.022 212.896 234.145 178.178 239.291C177.71 239.28 177.374 239.629 177.374 240.061C177.374 240.493 177.71 240.842 178.124 240.842C213.6 235.607 240.854 203.822 240.854 165.455C240.854 123.444 208.047 89.2593 167.706 89.2593Z" fill="#DBBE67"/>
<mask id="mask5_324_13683" style="mask-type:luminance" maskUnits="userSpaceOnUse" x="135" y="19" width="65" height="47">
<path d="M135.371 19.7319H199.398V65.1172H135.371V19.7319Z" fill="white"/>
</mask>
<g mask="url(#mask5_324_13683)">
<path d="M184.072 62.3301C183.393 62.3301 182.832 61.7608 182.832 61.0389C182.832 60.332 183.393 59.7478 184.072 59.7478C184.765 59.7478 185.312 60.332 185.312 61.0389C185.312 61.7608 184.765 62.3301 184.072 62.3301ZM178.47 62.3301C177.791 62.3301 177.23 61.7608 177.23 61.0389C177.23 60.332 177.791 59.7478 178.47 59.7478C179.163 59.7478 179.709 60.332 179.709 61.0389C179.709 61.7608 179.163 62.3301 178.47 62.3301ZM172.867 62.3301C172.188 62.3301 171.631 61.7608 171.631 61.0389C171.631 60.332 172.188 59.7478 172.867 59.7478C173.55 59.7478 174.111 60.332 174.111 61.0389C174.111 61.7608 173.55 62.3301 172.867 62.3301ZM167.34 62.3153C166.693 62.2706 166.179 61.7385 166.179 61.0389C166.179 60.3543 166.693 59.811 167.34 59.7626C167.99 59.811 168.505 60.3543 168.505 61.0389C168.505 61.7385 167.99 62.2706 167.34 62.3153ZM161.816 62.3301C161.134 62.3301 160.576 61.7608 160.576 61.0389C160.576 60.332 161.134 59.7478 161.816 59.7478C162.495 59.7478 163.056 60.332 163.056 61.0389C163.056 61.7608 162.495 62.3301 161.816 62.3301ZM156.214 62.3301C155.521 62.3301 154.974 61.7608 154.974 61.0389C154.974 60.332 155.521 59.7478 156.214 59.7478C156.893 59.7478 157.454 60.332 157.454 61.0389C157.454 61.7608 156.893 62.3301 156.214 62.3301ZM150.612 62.3301C149.918 62.3301 149.372 61.7608 149.372 61.0389C149.372 60.332 149.918 59.7478 150.612 59.7478C151.294 59.7478 151.851 60.332 151.851 61.0389C151.851 61.7608 151.294 62.3301 150.612 62.3301ZM182.285 43.4981C181.896 44.7632 181.982 46.1326 182.443 47.3717C183.222 49.448 184.061 53.2695 180.985 55.4574C176.612 58.598 172.36 54.5346 171.556 49.9168C170.731 45.206 171.824 41.7901 175.386 40.6515C178.93 39.5129 167.272 19.7319 167.272 19.7319C167.272 19.7319 155.753 39.5129 159.301 40.6515C162.859 41.7901 163.953 45.206 163.127 49.9168C162.327 54.5346 158.072 58.598 153.699 55.4574C150.622 53.2695 151.462 49.448 152.241 47.3717C152.702 46.1326 152.787 44.7632 152.398 43.4981C149.422 33.8458 135.52 33.9685 135.52 33.9685C149.057 53.4704 148.911 64.5702 148.911 64.5702H185.773C185.773 64.5702 185.626 53.4704 199.164 33.9685C199.164 33.9685 185.265 33.8458 182.285 43.4981Z" fill="#DBBE67"/>
</g>
<path d="M183.647 67.2827H151.034C149.937 67.2827 149.051 68.2055 149.051 69.3442C149.051 70.4865 149.937 71.4093 151.034 71.4093H183.647C184.741 71.4093 185.627 70.4865 185.627 69.3442C185.627 68.2055 184.741 67.2827 183.647 67.2827Z" fill="#DBBE67"/>
<mask id="mask6_324_13683" style="mask-type:luminance" maskUnits="userSpaceOnUse" x="-35" y="-30" width="413" height="429">
<path d="M377.299 -29.6646H-34.3008V398.997H377.299V-29.6646Z" fill="black" fill-opacity="0.25"/>
</mask>
<g mask="url(#mask6_324_13683)">
<mask id="mask7_324_13683" style="mask-type:luminance" maskUnits="userSpaceOnUse" x="106" y="102" width="124" height="129">
<path d="M229.582 102.268H106.102V230.866H229.582V102.268Z" fill="white"/>
</mask>
<g mask="url(#mask7_324_13683)">
<mask id="mask8_324_13683" style="mask-type:luminance" maskUnits="userSpaceOnUse" x="167" y="103" width="3" height="128">
<path d="M167.387 103.086H169.216V230.256H167.387V103.086Z" fill="white"/>
</mask>
<g mask="url(#mask8_324_13683)">
<path d="M168.014 230.174C167.746 230.174 167.531 229.947 167.531 229.668V103.589C167.531 103.31 167.746 103.086 168.014 103.086C168.282 103.086 168.5 103.31 168.5 103.589V229.668C168.5 229.947 168.282 230.174 168.014 230.174Z" fill="#DBBE67"/>
</g>
<path d="M178.521 229.218C178.289 229.218 178.085 229.043 178.046 228.801L157.023 104.634C156.977 104.359 157.152 104.099 157.416 104.05C157.681 104.002 157.931 104.184 157.977 104.46L179 228.622C179.047 228.898 178.868 229.158 178.607 229.207C178.578 229.214 178.55 229.218 178.521 229.218Z" fill="#DBBE67"/>
<path d="M178.521 229.218C178.289 229.218 178.085 229.043 178.046 228.801L157.023 104.634C156.977 104.359 157.152 104.099 157.416 104.05C157.681 104.002 157.931 104.184 157.977 104.46L179 228.622C179.047 228.898 178.868 229.158 178.607 229.207C178.578 229.214 178.55 229.218 178.521 229.218Z" fill="#DBBE67"/>
<path d="M188.716 226.371C188.516 226.371 188.331 226.245 188.259 226.04L146.853 107.563C146.763 107.302 146.892 107.012 147.142 106.919C147.396 106.822 147.674 106.956 147.764 107.221L189.17 225.694C189.26 225.958 189.131 226.245 188.881 226.341C188.827 226.364 188.77 226.371 188.716 226.371Z" fill="#DBBE67"/>
<path d="M188.716 226.371C188.516 226.371 188.331 226.245 188.259 226.04L146.853 107.563C146.763 107.302 146.892 107.012 147.142 106.919C147.396 106.822 147.674 106.956 147.764 107.221L189.17 225.694C189.26 225.958 189.131 226.245 188.881 226.341C188.827 226.364 188.77 226.371 188.716 226.371Z" fill="#DBBE67"/>
<path d="M198.276 221.727C198.108 221.727 197.947 221.638 197.858 221.474L137.326 112.288C137.194 112.047 137.272 111.738 137.504 111.6C137.733 111.459 138.03 111.541 138.165 111.782L198.694 220.972C198.83 221.214 198.751 221.523 198.519 221.66C198.441 221.705 198.358 221.727 198.276 221.727Z" fill="#DBBE67"/>
<path d="M198.276 221.727C198.108 221.727 197.947 221.638 197.858 221.474L137.326 112.288C137.194 112.047 137.272 111.738 137.504 111.6C137.733 111.459 138.03 111.541 138.165 111.782L198.694 220.972C198.83 221.214 198.751 221.523 198.519 221.66C198.441 221.705 198.358 221.727 198.276 221.727Z" fill="#DBBE67"/>
<path d="M206.919 215.424C206.779 215.424 206.643 215.364 206.547 215.245L128.732 118.662C128.557 118.45 128.586 118.13 128.79 117.952C128.997 117.773 129.301 117.799 129.472 118.015L207.29 214.598C207.462 214.81 207.433 215.13 207.229 215.308C207.14 215.386 207.029 215.424 206.919 215.424Z" fill="#DBBE67"/>
<path d="M206.919 215.424C206.779 215.424 206.643 215.364 206.547 215.245L128.732 118.662C128.557 118.45 128.586 118.13 128.79 117.952C128.997 117.773 129.301 117.799 129.472 118.015L207.29 214.598C207.462 214.81 207.433 215.13 207.229 215.308C207.14 215.386 207.029 215.424 206.919 215.424Z" fill="#DBBE67"/>
<path d="M214.379 207.655C214.268 207.655 214.157 207.617 214.068 207.535L121.329 126.495C121.126 126.317 121.097 125.997 121.269 125.785C121.44 125.573 121.747 125.543 121.951 125.721L214.69 206.765C214.897 206.944 214.922 207.26 214.75 207.476C214.654 207.595 214.518 207.655 214.379 207.655Z" fill="#DBBE67"/>
<path d="M214.379 207.655C214.268 207.655 214.157 207.617 214.068 207.535L121.329 126.495C121.126 126.317 121.097 125.997 121.269 125.785C121.44 125.573 121.747 125.543 121.951 125.721L214.69 206.765C214.897 206.944 214.922 207.26 214.75 207.476C214.654 207.595 214.518 207.655 214.379 207.655Z" fill="#DBBE67"/>
<path d="M220.431 198.653C220.349 198.653 220.267 198.631 220.188 198.586L115.348 135.545C115.116 135.407 115.037 135.098 115.17 134.857C115.302 134.615 115.598 134.533 115.831 134.674L220.674 197.712C220.906 197.853 220.985 198.162 220.849 198.4C220.76 198.564 220.599 198.653 220.431 198.653Z" fill="#DBBE67"/>
<path d="M220.431 198.653C220.349 198.653 220.267 198.631 220.188 198.586L115.348 135.545C115.116 135.407 115.037 135.098 115.17 134.857C115.302 134.615 115.598 134.533 115.831 134.674L220.674 197.712C220.906 197.853 220.985 198.162 220.849 198.4C220.76 198.564 220.599 198.653 220.431 198.653Z" fill="#DBBE67"/>
<path d="M224.89 188.696C224.836 188.696 224.779 188.685 224.725 188.666L110.964 145.543C110.714 145.447 110.581 145.156 110.674 144.896C110.767 144.635 111.042 144.498 111.296 144.594L225.054 187.717C225.308 187.81 225.436 188.101 225.344 188.365C225.272 188.569 225.086 188.696 224.89 188.696Z" fill="#DBBE67"/>
<path d="M224.89 188.696C224.836 188.696 224.779 188.685 224.725 188.666L110.964 145.543C110.714 145.447 110.581 145.156 110.674 144.896C110.767 144.635 111.042 144.498 111.296 144.594L225.054 187.717C225.308 187.81 225.436 188.101 225.344 188.365C225.272 188.569 225.086 188.696 224.89 188.696Z" fill="#DBBE67"/>
<path d="M227.622 178.08C227.597 178.08 227.568 178.08 227.54 178.072L108.315 156.178C108.054 156.13 107.879 155.869 107.925 155.594C107.972 155.322 108.222 155.136 108.486 155.184L227.707 177.079C227.972 177.127 228.147 177.391 228.101 177.663C228.058 177.909 227.854 178.08 227.622 178.08Z" fill="#DBBE67"/>
<path d="M227.622 178.08C227.597 178.08 227.568 178.08 227.54 178.072L108.315 156.178C108.054 156.13 107.879 155.869 107.925 155.594C107.972 155.322 108.222 155.136 108.486 155.184L227.707 177.079C227.972 177.127 228.147 177.391 228.101 177.663C228.058 177.909 227.854 178.08 227.622 178.08Z" fill="#DBBE67"/>
<mask id="mask9_324_13683" style="mask-type:luminance" maskUnits="userSpaceOnUse" x="106" y="166" width="124" height="2">
<path d="M106.996 166.091H229.104V167.996H106.996V166.091Z" fill="white"/>
</mask>
<g mask="url(#mask9_324_13683)">
<path d="M228.543 167.133H107.482C107.214 167.133 106.996 166.91 106.996 166.631C106.996 166.351 107.214 166.125 107.482 166.125H228.543C228.811 166.125 229.025 166.351 229.025 166.631C229.025 166.91 228.811 167.133 228.543 167.133Z" fill="#DBBE67"/>
<path d="M228.543 167.133H107.482C107.214 167.133 106.996 166.91 106.996 166.631C106.996 166.351 107.214 166.125 107.482 166.125H228.543C228.811 166.125 229.025 166.351 229.025 166.631C229.025 166.91 228.811 167.133 228.543 167.133Z" fill="#DBBE67"/>
</g>
<path d="M108.401 178.08C108.168 178.08 107.965 177.909 107.925 177.663C107.879 177.391 108.054 177.127 108.315 177.079L227.54 155.184C227.8 155.136 228.054 155.322 228.101 155.594C228.147 155.869 227.972 156.13 227.707 156.178L108.486 178.072C108.458 178.08 108.429 178.08 108.401 178.08Z" fill="#DBBE67"/>
<path d="M108.401 178.08C108.168 178.08 107.965 177.909 107.925 177.663C107.879 177.391 108.054 177.127 108.315 177.079L227.54 155.184C227.8 155.136 228.054 155.322 228.101 155.594C228.147 155.869 227.972 156.13 227.707 156.178L108.486 178.072C108.458 178.08 108.429 178.08 108.401 178.08Z" fill="#DBBE67"/>
<path d="M111.128 188.696C110.932 188.696 110.746 188.569 110.674 188.365C110.581 188.101 110.714 187.81 110.964 187.717L224.725 144.594C224.975 144.501 225.254 144.635 225.344 144.896C225.436 145.156 225.308 145.447 225.054 145.543L111.296 188.666C111.239 188.685 111.185 188.696 111.128 188.696Z" fill="#DBBE67"/>
<path d="M111.128 188.696C110.932 188.696 110.746 188.569 110.674 188.365C110.581 188.101 110.714 187.81 110.964 187.717L224.725 144.594C224.975 144.501 225.254 144.635 225.344 144.896C225.436 145.156 225.308 145.447 225.054 145.543L111.296 188.666C111.239 188.685 111.185 188.696 111.128 188.696Z" fill="#DBBE67"/>
<path d="M115.588 198.653C115.423 198.653 115.259 198.564 115.17 198.4C115.037 198.162 115.116 197.853 115.348 197.712L220.188 134.674C220.421 134.533 220.717 134.615 220.849 134.857C220.985 135.098 220.906 135.407 220.674 135.545L115.831 198.586C115.755 198.631 115.67 198.653 115.588 198.653Z" fill="#DBBE67"/>
<path d="M115.588 198.653C115.423 198.653 115.259 198.564 115.17 198.4C115.037 198.162 115.116 197.853 115.348 197.712L220.188 134.674C220.421 134.533 220.717 134.615 220.849 134.857C220.985 135.098 220.906 135.407 220.674 135.545L115.831 198.586C115.755 198.631 115.67 198.653 115.588 198.653Z" fill="#DBBE67"/>
<path d="M121.64 207.655C121.504 207.655 121.365 207.595 121.269 207.476C121.097 207.26 121.126 206.944 121.329 206.765L214.068 125.721C214.272 125.543 214.579 125.573 214.75 125.785C214.922 125.997 214.897 126.317 214.69 126.495L121.951 207.535C121.862 207.617 121.751 207.655 121.64 207.655Z" fill="#DBBE67"/>
<path d="M121.64 207.655C121.504 207.655 121.365 207.595 121.269 207.476C121.097 207.26 121.126 206.944 121.329 206.765L214.068 125.721C214.272 125.543 214.579 125.573 214.75 125.785C214.922 125.997 214.897 126.317 214.69 126.495L121.951 207.535C121.862 207.617 121.751 207.655 121.64 207.655Z" fill="#DBBE67"/>
<path d="M129.1 215.424C128.993 215.424 128.883 215.386 128.79 215.308C128.586 215.13 128.557 214.81 128.732 214.598L206.547 118.015C206.718 117.799 207.026 117.773 207.229 117.952C207.433 118.13 207.462 118.45 207.29 118.662L129.472 215.245C129.376 215.364 129.24 215.424 129.1 215.424Z" fill="#DBBE67"/>
<path d="M129.1 215.424C128.993 215.424 128.883 215.386 128.79 215.308C128.586 215.13 128.557 214.81 128.732 214.598L206.547 118.015C206.718 117.799 207.026 117.773 207.229 117.952C207.433 118.13 207.462 118.45 207.29 118.662L129.472 215.245C129.376 215.364 129.24 215.424 129.1 215.424Z" fill="#DBBE67"/>
<path d="M137.744 221.727C137.662 221.727 137.579 221.705 137.504 221.66C137.272 221.523 137.194 221.214 137.326 220.972L197.858 111.782C197.99 111.541 198.287 111.459 198.519 111.6C198.751 111.738 198.83 112.047 198.694 112.288L138.165 221.474C138.076 221.638 137.912 221.727 137.744 221.727Z" fill="#DBBE67"/>
<path d="M137.744 221.727C137.662 221.727 137.579 221.705 137.504 221.66C137.272 221.523 137.194 221.214 137.326 220.972L197.858 111.782C197.99 111.541 198.287 111.459 198.519 111.6C198.751 111.738 198.83 112.047 198.694 112.288L138.165 221.474C138.076 221.638 137.912 221.727 137.744 221.727Z" fill="#DBBE67"/>
<path d="M147.31 226.371C147.253 226.371 147.199 226.364 147.142 226.341C146.892 226.245 146.763 225.958 146.853 225.694L188.259 107.221C188.352 106.956 188.627 106.822 188.881 106.919C189.131 107.012 189.26 107.302 189.17 107.563L147.764 226.04C147.692 226.245 147.506 226.371 147.31 226.371Z" fill="#DBBE67"/>
<path d="M147.31 226.371C147.253 226.371 147.199 226.364 147.142 226.341C146.892 226.245 146.763 225.958 146.853 225.694L188.259 107.221C188.352 106.956 188.627 106.822 188.881 106.919C189.131 107.012 189.26 107.302 189.17 107.563L147.764 226.04C147.692 226.245 147.506 226.371 147.31 226.371Z" fill="#DBBE67"/>
<path d="M157.498 229.218C157.473 229.218 157.445 229.214 157.416 229.207C157.152 229.158 156.977 228.898 157.023 228.622L178.046 104.46C178.093 104.184 178.343 104.002 178.607 104.05C178.868 104.099 179.047 104.359 179 104.634L157.977 228.801C157.934 229.043 157.731 229.218 157.498 229.218Z" fill="#DBBE67"/>
</g>
</g>
<path d="M177.235 195.984C178.853 195.984 180.1 195.564 180.979 194.719C182.416 193.223 183.166 191.63 183.223 189.941V165.07H152.868V189.837C152.868 191.534 153.457 192.985 154.64 194.183C155.83 195.385 157.241 195.984 158.87 195.984H159.985L160.085 196.966H131.602V195.984H132.831C134.449 195.984 135.835 195.385 136.99 194.183C138.14 192.985 138.751 191.534 138.819 189.837V135.793C138.751 134.107 138.14 132.663 136.99 131.462C135.835 130.252 134.449 129.646 132.831 129.646H131.602V128.678H160.085L159.985 129.646H158.87C157.241 129.646 155.83 130.252 154.64 131.462C153.457 132.663 152.868 134.107 152.868 135.793V160.872H183.223V135.793C183.166 134.107 182.555 132.663 181.394 131.462C180.24 130.252 178.853 129.646 177.235 129.646H176.006V128.678H204.489V129.646H203.274C201.645 129.646 200.234 130.252 199.044 131.462C197.861 132.663 197.272 134.107 197.272 135.793V189.837C197.272 191.534 197.861 192.985 199.044 194.183C200.234 195.385 201.645 195.984 203.274 195.984H204.489V196.966H176.006V195.984H177.235Z" fill="white"/>
</g>
<defs>
<clipPath id="clip0_324_13683">
<rect width="343" height="357.218" fill="white" transform="translate(0 6.05713)"/>
</clipPath>
</defs>
</svg>
