<svg width="257" height="269" viewBox="0 0 257 269" fill="none" xmlns="http://www.w3.org/2000/svg">
<circle cx="125.17" cy="119.187" r="114.518" fill="#1F2F1A"/>
<g clip-path="url(#clip0_326_13684)">
<mask id="mask0_326_13684" style="mask-type:luminance" maskUnits="userSpaceOnUse" x="101" y="10" width="49" height="35">
<path d="M101.43 10.9194H149.403V44.9253H101.43V10.9194Z" fill="white"/>
</mask>
<g mask="url(#mask0_326_13684)">
<path d="M137.918 42.837C137.409 42.837 136.989 42.4105 136.989 41.8696C136.989 41.3399 137.409 40.9021 137.918 40.9021C138.437 40.9021 138.847 41.3399 138.847 41.8696C138.847 42.4105 138.437 42.837 137.918 42.837ZM133.72 42.837C133.212 42.837 132.791 42.4105 132.791 41.8696C132.791 41.3399 133.212 40.9021 133.72 40.9021C134.24 40.9021 134.649 41.3399 134.649 41.8696C134.649 42.4105 134.24 42.837 133.72 42.837ZM129.523 42.837C129.014 42.837 128.596 42.4105 128.596 41.8696C128.596 41.3399 129.014 40.9021 129.523 40.9021C130.034 40.9021 130.454 41.3399 130.454 41.8696C130.454 42.4105 130.034 42.837 129.523 42.837ZM125.381 42.8259C124.897 42.7924 124.511 42.3937 124.511 41.8696C124.511 41.3566 124.897 40.9495 125.381 40.9133C125.868 40.9495 126.254 41.3566 126.254 41.8696C126.254 42.3937 125.868 42.7924 125.381 42.8259ZM121.242 42.837C120.731 42.837 120.313 42.4105 120.313 41.8696C120.313 41.3399 120.731 40.9021 121.242 40.9021C121.751 40.9021 122.171 41.3399 122.171 41.8696C122.171 42.4105 121.751 42.837 121.242 42.837ZM117.045 42.837C116.525 42.837 116.116 42.4105 116.116 41.8696C116.116 41.3399 116.525 40.9021 117.045 40.9021C117.553 40.9021 117.974 41.3399 117.974 41.8696C117.974 42.4105 117.553 42.837 117.045 42.837ZM112.847 42.837C112.328 42.837 111.918 42.4105 111.918 41.8696C111.918 41.3399 112.328 40.9021 112.847 40.9021C113.358 40.9021 113.776 41.3399 113.776 41.8696C113.776 42.4105 113.358 42.837 112.847 42.837ZM136.579 28.7267C136.288 29.6747 136.352 30.7007 136.697 31.6291C137.281 33.1848 137.91 36.0481 135.605 37.6875C132.328 40.0406 129.142 36.9961 128.54 33.5361C127.922 30.0064 128.741 27.447 131.41 26.5939C134.066 25.7407 125.33 10.9194 125.33 10.9194C125.33 10.9194 116.699 25.7407 119.358 26.5939C122.024 27.447 122.843 30.0064 122.225 33.5361C121.625 36.9961 118.437 40.0406 115.16 37.6875C112.855 36.0481 113.484 33.1848 114.068 31.6291C114.413 30.7007 114.477 29.6747 114.186 28.7267C111.956 21.4945 101.539 21.5865 101.539 21.5865C111.683 36.1987 111.573 44.5154 111.573 44.5154H139.192C139.192 44.5154 139.082 36.1987 149.226 21.5865C149.226 21.5865 138.812 21.4945 136.579 28.7267Z" fill="#DBBE67"/>
</g>
<path d="M137.602 46.5479H113.165C112.344 46.5479 111.68 47.2393 111.68 48.0924C111.68 48.9484 112.344 49.6398 113.165 49.6398H137.602C138.421 49.6398 139.085 48.9484 139.085 48.0924C139.085 47.2393 138.421 46.5479 137.602 46.5479Z" fill="#DBBE67"/>
<mask id="mask1_326_13684" style="mask-type:luminance" maskUnits="userSpaceOnUse" x="101" y="10" width="49" height="35">
<path d="M101.43 10.9194H149.403V44.9253H101.43V10.9194Z" fill="white"/>
</mask>
<g mask="url(#mask1_326_13684)">
<path d="M137.918 42.837C137.409 42.837 136.989 42.4105 136.989 41.8696C136.989 41.3399 137.409 40.9021 137.918 40.9021C138.437 40.9021 138.847 41.3399 138.847 41.8696C138.847 42.4105 138.437 42.837 137.918 42.837ZM133.72 42.837C133.212 42.837 132.791 42.4105 132.791 41.8696C132.791 41.3399 133.212 40.9021 133.72 40.9021C134.24 40.9021 134.649 41.3399 134.649 41.8696C134.649 42.4105 134.24 42.837 133.72 42.837ZM129.523 42.837C129.014 42.837 128.596 42.4105 128.596 41.8696C128.596 41.3399 129.014 40.9021 129.523 40.9021C130.034 40.9021 130.454 41.3399 130.454 41.8696C130.454 42.4105 130.034 42.837 129.523 42.837ZM125.381 42.8259C124.897 42.7924 124.511 42.3937 124.511 41.8696C124.511 41.3566 124.897 40.9495 125.381 40.9133C125.868 40.9495 126.254 41.3566 126.254 41.8696C126.254 42.3937 125.868 42.7924 125.381 42.8259ZM121.242 42.837C120.731 42.837 120.313 42.4105 120.313 41.8696C120.313 41.3399 120.731 40.9021 121.242 40.9021C121.751 40.9021 122.171 41.3399 122.171 41.8696C122.171 42.4105 121.751 42.837 121.242 42.837ZM117.045 42.837C116.525 42.837 116.116 42.4105 116.116 41.8696C116.116 41.3399 116.525 40.9021 117.045 40.9021C117.553 40.9021 117.974 41.3399 117.974 41.8696C117.974 42.4105 117.553 42.837 117.045 42.837ZM112.847 42.837C112.328 42.837 111.918 42.4105 111.918 41.8696C111.918 41.3399 112.328 40.9021 112.847 40.9021C113.358 40.9021 113.776 41.3399 113.776 41.8696C113.776 42.4105 113.358 42.837 112.847 42.837ZM136.579 28.7267C136.288 29.6747 136.352 30.7007 136.697 31.6291C137.281 33.1848 137.91 36.0481 135.605 37.6875C132.328 40.0406 129.142 36.9961 128.54 33.5361C127.922 30.0064 128.741 27.447 131.41 26.5939C134.066 25.7407 125.33 10.9194 125.33 10.9194C125.33 10.9194 116.699 25.7407 119.358 26.5939C122.024 27.447 122.843 30.0064 122.225 33.5361C121.625 36.9961 118.437 40.0406 115.16 37.6875C112.855 36.0481 113.484 33.1848 114.068 31.6291C114.413 30.7007 114.477 29.6747 114.186 28.7267C111.956 21.4945 101.539 21.5865 101.539 21.5865C111.683 36.1987 111.573 44.5154 111.573 44.5154H139.192C139.192 44.5154 139.082 36.1987 149.226 21.5865C149.226 21.5865 138.812 21.4945 136.579 28.7267Z" fill="#DBBE67"/>
</g>
<path d="M137.602 46.5479H113.165C112.344 46.5479 111.68 47.2393 111.68 48.0924C111.68 48.9484 112.344 49.6398 113.165 49.6398H137.602C138.421 49.6398 139.085 48.9484 139.085 48.0924C139.085 47.2393 138.421 46.5479 137.602 46.5479Z" fill="#DBBE67"/>
<path d="M128.135 54.1843C127.101 52.8349 125.214 52.6146 123.918 53.6908C122.623 54.767 122.411 56.7325 123.444 58.082C124.478 59.4314 126.365 59.6516 127.661 58.5754C128.956 57.4993 129.168 55.5337 128.135 54.1843Z" fill="#DBBE67"/>
<path d="M113.3 55.8406C112.845 56.2616 112.789 56.8416 112.773 57.4438C112.759 57.9456 112.154 57.9651 111.988 57.5525C111.705 56.8527 111.836 56.0553 112.334 55.4894C112.634 55.1464 113.469 54.6418 113.846 55.1269C114.058 55.4001 113.434 55.7152 113.3 55.8406ZM113.455 54.0591C111.801 54.0591 110.457 55.4559 110.457 57.1817C110.457 58.9075 111.801 60.3071 113.455 60.3071C115.112 60.3071 116.456 58.9075 116.456 57.1817C116.456 55.4559 115.112 54.0591 113.455 54.0591Z" fill="#DBBE67"/>
<path d="M102.341 59.2696C102.073 59.6432 101.672 59.8523 101.431 60.2621C101.179 60.6943 101.056 61.2156 100.96 61.7063C100.893 62.0492 100.336 62.0632 100.28 61.7063C100.17 60.9898 100.25 60.3207 100.673 59.7184C101.005 59.2417 101.597 58.7816 102.188 58.8792C102.341 58.9015 102.435 59.1413 102.341 59.2696ZM102.555 57.9648C100.949 57.5382 99.3159 58.5502 98.909 60.2231C98.5021 61.8959 99.4739 63.5966 101.08 64.0204C102.684 64.447 104.317 63.4349 104.726 61.7621C105.133 60.0892 104.161 58.3885 102.555 57.9648Z" fill="#DBBE67"/>
<path d="M91.5526 65.317C91.2528 65.6516 90.8646 65.8189 90.6264 66.2315C90.3988 66.6246 90.3051 67.146 90.3265 67.5977C90.3506 68.0186 89.7938 68.0354 89.6707 67.6897C89.4244 66.9954 89.5207 66.3291 89.9143 65.7129C90.2248 65.225 90.8405 64.7092 91.4375 64.8626C91.633 64.9155 91.6811 65.172 91.5526 65.317ZM91.2823 64.1182C89.6251 64.1182 88.2812 65.5178 88.2812 67.2436C88.2812 68.9694 89.6251 70.369 91.2823 70.369C92.9394 70.369 94.2833 68.9694 94.2833 67.2436C94.2833 65.5178 92.9394 64.1182 91.2823 64.1182Z" fill="#DBBE67"/>
<path d="M82.7394 73.1517C82.4021 73.3915 82.0433 73.4946 81.7649 73.8292C81.4892 74.1582 81.3553 74.5848 81.259 75.0002C81.1706 75.3849 80.5442 75.4184 80.4799 75.0002C80.3702 74.2864 80.5602 73.6201 81.0742 73.1099C81.4892 72.7028 82.2066 72.4073 82.7394 72.7223C82.9054 72.8199 82.8839 73.0485 82.7394 73.1517ZM82.3057 71.4956C80.6459 71.4956 79.3047 72.8952 79.3047 74.621C79.3047 76.3468 80.6459 77.7464 82.3057 77.7464C83.9601 77.7464 85.304 76.3468 85.304 74.621C85.304 72.8952 83.9601 71.4956 82.3057 71.4956Z" fill="#DBBE67"/>
<path d="M74.9974 81.6047C74.4352 82.0062 73.9935 82.2989 73.9159 83.0908C73.8838 83.4197 73.4099 83.5396 73.3269 83.1744C73.185 82.5331 73.3323 81.97 73.8142 81.5267C74.114 81.2506 74.5959 80.9635 74.9974 81.1586C75.1795 81.2479 75.1366 81.5071 74.9974 81.6047ZM75.1768 80.2637C73.5197 80.2637 72.1758 81.6605 72.1758 83.3891C72.1758 85.1121 73.5197 86.5117 75.1768 86.5117C76.8339 86.5117 78.1778 85.1121 78.1778 83.3891C78.1778 81.6605 76.8339 80.2637 75.1768 80.2637Z" fill="#DBBE67"/>
<path d="M69.0055 92.4784C68.7565 92.7238 68.4647 92.8883 68.2693 93.1922C68.0765 93.4905 67.9507 93.8864 67.8864 94.2349C67.8195 94.5862 67.3724 94.4524 67.3403 94.1596C67.2332 93.2312 67.8463 92.0853 68.8662 92.1327C69.0296 92.1411 69.134 92.353 69.0055 92.4784ZM69.1768 91.1987C67.5197 91.1987 66.1758 92.5983 66.1758 94.3241C66.1758 96.0499 67.5197 97.4495 69.1768 97.4495C70.8339 97.4495 72.1778 96.0499 72.1778 94.3241C72.1778 92.5983 70.8339 91.1987 69.1768 91.1987Z" fill="#DBBE67"/>
<path d="M65.488 105.638C65.2685 105.981 64.9044 106.179 64.6902 106.538C64.468 106.918 64.4359 107.378 64.3583 107.804C64.2806 108.231 63.7426 108.133 63.6221 107.804C63.3972 107.207 63.523 106.558 63.8657 106.037C64.1495 105.602 64.7036 105.125 65.239 105.189C65.4371 105.211 65.6192 105.429 65.488 105.638ZM65.3916 104.419C63.7345 104.419 62.3906 105.819 62.3906 107.545C62.3906 109.271 63.7345 110.67 65.3916 110.67C67.0488 110.67 68.3926 109.271 68.3926 107.545C68.3926 105.819 67.0488 104.419 65.3916 104.419Z" fill="#DBBE67"/>
<path d="M64.4016 118.661C64.0777 118.825 63.7377 118.901 63.4967 119.202C63.2531 119.508 63.1862 119.924 63.0871 120.297C62.9961 120.638 62.4768 120.663 62.3991 120.297C62.1609 119.179 63.0363 117.529 64.3266 118.059C64.5542 118.151 64.6746 118.524 64.4016 118.661ZM64.2276 116.982C62.5705 116.982 61.2266 118.382 61.2266 120.105C61.2266 121.831 62.5705 123.23 64.2276 123.23C65.8847 123.23 67.2286 121.831 67.2286 120.105C67.2286 118.382 65.8847 116.982 64.2276 116.982Z" fill="#DBBE67"/>
<path d="M64.394 73.8848C63.4918 77.367 61.4679 80.4088 60.7665 83.9524C60.7371 84.103 60.5042 84.0667 60.5095 83.9162C60.63 80.9051 61.9097 78.2536 62.8466 75.4516C64.0246 71.9275 64.4074 64.1266 64.5011 64.542C65.1971 67.6758 65.2025 70.7705 64.394 73.8848ZM57.1873 134.606C57.3586 134.673 50.7114 133.214 46.5619 128.096C40.833 121.028 39.5453 115.823 39.7488 116.21C43.5395 123.44 49.5067 131.684 57.1873 134.606ZM51.5467 82.182C51.536 89.3306 48.982 95.8825 47.9861 102.872C46.9581 110.068 49.4907 116.913 53.426 122.729C53.517 122.862 53.3082 123.027 53.2091 122.904C49.2872 118.159 46.7895 111.869 46.5726 105.585C46.2969 97.6139 51.5467 81.616 51.5467 82.182ZM52.8799 95.8379C50.5454 110.67 53.1395 115.48 53.0806 115.399C47.4721 107.545 52.9655 95.2775 52.8799 95.8379ZM102.829 42.7116C101.102 36.2266 93.949 35.8056 89.7112 39.9737C87.2509 42.3993 85.634 45.3937 84.5042 48.6278C83.0988 44.903 79.5757 42.4411 75.2603 44.1167C72.7278 45.1009 70.3264 47.4736 69.6705 50.2616C69.2823 51.8954 69.5527 53.7495 70.5004 55.0515C71.0224 55.966 71.9728 56.5821 73.0651 56.5821C74.7222 56.5821 76.0661 55.1825 76.0661 53.4567C76.0661 51.7309 74.7222 50.3341 73.0651 50.3341C72.6822 50.3341 72.3182 50.4149 71.9808 50.5516C72.4011 48.9373 73.6139 47.4986 75.3727 46.5702C79.1501 44.5545 82.7079 47.3676 82.9729 51.4995C83.3852 57.9566 77.9293 64.7985 73.7611 68.9415C70.9716 71.7073 68.0937 74.7407 65.5478 78.0501C67.395 75.2509 68.4899 71.5679 68.0188 68.1693C67.7885 66.5215 67.1701 64.8821 65.9949 63.7223C65.4862 63.2232 64.9241 62.8106 64.4181 62.2893C64.0299 61.8906 62.5682 60.9956 62.3942 60.5718C64.8812 66.7306 61.8909 74.5427 59.8938 80.4785C58.9381 83.3028 57.8137 86.0574 56.5368 88.7311C56.3601 89.0908 56.1593 89.4477 55.9371 89.8185C56.5394 85.2823 56.1138 80.5984 54.7672 76.2434C54.0899 74.0465 53.1717 71.9275 52.0125 69.9592C51.5012 69.0921 51.03 68.225 50.5347 67.3524C50.1573 66.6916 48.9499 65.7074 48.7679 65.0634C48.982 65.8189 49.1426 66.5828 49.2819 67.3579C50.7007 75.2676 47.4186 83.7489 45.3599 91.2376C43.2584 98.8852 41.3149 107.336 44.4256 115.003C43.7778 115.003 42.043 112.892 41.5611 112.404C40.6188 111.457 39.7354 110.436 39.0447 109.273C37.4893 106.647 37.2992 104.378 37.0503 101.336C34.831 105.058 35.1522 110.676 36.0062 114.78C36.9111 119.14 38.8412 123.267 41.6013 126.679C44.2115 129.908 47.5926 132.188 51.0032 134.399C52.4355 135.325 53.7686 136.32 55.0911 137.349C53.0485 136.736 50.8908 136.516 48.6367 136.875C41.7566 137.985 37.2564 144.768 37.6232 151.827C38.0006 158.957 42.8247 165.403 50.2804 163.482C56.7697 161.814 58.8016 151.119 52.0526 149.427C51.9804 149.41 51.9054 149.416 51.8304 149.433C51.6645 149.402 51.5012 149.38 51.3271 149.38C49.67 149.38 48.3288 150.776 48.3288 152.505C48.3288 154.231 49.67 155.628 51.3271 155.628C52.5881 155.628 53.6642 154.819 54.106 153.673C54.9118 156.35 53.6642 159.553 50.8131 160.855C46.4682 162.846 42.1126 160.275 40.6242 155.879C38.0006 148.136 42.3562 139.075 50.7703 139.005C57.3399 138.949 63.2536 144.551 67.6868 149.059C72.4092 153.86 76.8719 158.778 82.1297 162.941C82.566 163.284 82.9408 163.504 83.4521 163.339C76.8237 154.546 71.7586 149.143 69.5795 146.179C65.4247 140.533 62.7181 134.932 60.4158 128.243C56.9919 118.293 55.9746 107.238 58.6008 96.9503C59.7412 92.4866 61.567 88.193 64.1611 84.2284C66.6053 80.4924 69.0039 76.8094 72.1281 73.6868C76.8746 68.922 82.3064 63.6164 84.3731 56.8526C84.6675 55.8767 84.8844 54.9037 85.0289 53.9C86.3434 48.7895 88.8063 42.9959 92.5623 40.5397C95.93 38.3399 100.205 39.6893 100.856 44.0582C101.164 46.0851 100.757 47.9503 99.7502 49.2523C99.6565 48.8871 99.5066 48.533 99.2817 48.2096C98.31 46.8128 96.4333 46.5005 95.0921 47.5126C93.7509 48.5246 93.4511 50.4791 94.4228 51.8759C95.0653 52.8015 96.1014 53.2365 97.1187 53.1444C98.6874 53.1779 100.288 52.3192 101.33 51.0311C103.113 48.8397 103.549 45.4243 102.829 42.7116Z" fill="#DBBE67"/>
<path d="M187.354 64.542C187.445 64.1266 187.831 71.9275 189.009 75.4516C189.946 78.2536 191.225 80.9051 191.343 83.9162C191.349 84.0667 191.118 84.103 191.089 83.9524C190.388 80.4088 188.364 77.367 187.462 73.8848C186.653 70.7705 186.658 67.6758 187.354 64.542ZM212.107 116.21C212.31 115.823 211.023 121.028 205.294 128.096C201.144 133.214 194.497 134.673 194.668 134.606C202.349 131.684 208.316 123.44 212.107 116.21ZM205.283 105.585C205.066 111.869 202.566 118.159 198.646 122.904C198.545 123.027 198.336 122.862 198.43 122.729C202.365 116.913 204.897 110.068 203.869 102.872C202.871 95.8825 200.32 89.3306 200.306 82.182C200.306 81.616 205.559 97.6139 205.283 105.585ZM198.775 115.399C198.716 115.48 201.307 110.67 198.976 95.8379C198.887 95.2775 204.383 107.545 198.775 115.399ZM150.526 51.0311C151.567 52.3192 153.168 53.1779 154.734 53.1444C155.751 53.2365 156.787 52.8015 157.43 51.8759C158.402 50.4791 158.105 48.5246 156.761 47.5126C155.419 46.5005 153.543 46.8128 152.571 48.2096C152.346 48.533 152.196 48.8871 152.105 49.2523C151.096 47.9503 150.692 46.0851 151 44.0582C151.65 39.6893 155.925 38.3399 159.293 40.5397C163.049 42.9959 165.512 48.7895 166.824 53.9C166.968 54.9037 167.185 55.8767 167.472 56.8163C169.549 63.6164 174.978 68.922 179.727 73.6868C182.849 76.8094 185.25 80.4924 187.694 84.2284C190.289 88.193 192.112 92.4866 193.252 96.9503C195.881 107.238 194.864 118.293 191.437 128.243C189.135 134.932 186.428 140.533 182.276 146.179C180.094 149.143 175.032 154.546 168.401 163.339C168.915 163.504 169.289 163.284 169.723 162.941C174.981 158.778 179.446 153.86 184.169 149.059C188.602 144.551 194.513 138.949 201.085 139.005C209.497 139.075 213.852 148.136 211.231 155.879C209.74 160.275 205.385 162.846 201.04 160.855C198.191 159.553 196.941 156.35 197.747 153.673C198.191 154.819 199.267 155.628 200.526 155.628C202.183 155.628 203.527 154.231 203.527 152.505C203.527 150.776 202.183 149.38 200.526 149.38C200.354 149.38 200.188 149.402 200.025 149.433C199.95 149.416 199.875 149.41 199.803 149.427C193.051 151.119 195.086 161.814 201.572 163.482C209.031 165.403 213.852 158.957 214.23 151.827C214.599 144.768 210.099 137.985 203.219 136.875C200.962 136.516 198.807 136.736 196.762 137.349C198.084 136.32 199.417 135.325 200.852 134.399C204.263 132.188 207.641 129.908 210.254 126.679C213.012 123.267 214.944 119.14 215.849 114.78C216.701 110.676 217.022 105.058 214.805 101.336C214.554 104.378 214.366 106.647 212.808 109.273C212.117 110.436 211.234 111.457 210.294 112.404C209.81 112.892 208.075 115.003 207.43 115.003C210.538 107.336 208.594 98.8852 206.493 91.2376C204.437 83.7489 201.152 75.2676 202.574 67.3579C202.713 66.5828 202.871 65.8189 203.088 65.0634C202.903 65.7074 201.696 66.6916 201.318 67.3524C200.826 68.225 200.354 69.0921 199.843 69.9592C198.684 71.9275 197.766 74.0465 197.086 76.2434C195.739 80.5984 195.316 85.2823 195.918 89.8185C195.696 89.4477 195.495 89.0908 195.316 88.7311C194.039 86.0574 192.917 83.3028 191.962 80.4785C189.965 74.5427 186.972 66.7306 189.459 60.5718C189.287 60.9956 187.826 61.8906 187.435 62.2893C186.929 62.8106 186.367 63.2232 185.861 63.7223C184.683 64.8821 184.064 66.5215 183.837 68.1693C183.366 71.5679 184.458 75.2509 186.305 78.0501C183.762 74.7407 180.881 71.7073 178.094 68.9415C173.926 64.7985 168.47 57.9566 168.88 51.4995C169.148 47.3676 172.703 44.5545 176.483 46.5702C178.239 47.4986 179.452 48.9373 179.872 50.5516C179.535 50.4149 179.173 50.3341 178.788 50.3341C177.131 50.3341 175.787 51.7309 175.787 53.4567C175.787 55.1825 177.131 56.5821 178.788 56.5821C179.883 56.5821 180.83 55.966 181.355 55.0515C182.303 53.7495 182.573 51.8954 182.182 50.2616C181.526 47.4736 179.128 45.1009 176.593 44.1167C172.28 42.4411 168.757 44.903 167.351 48.6278C166.219 45.3937 164.605 42.3993 162.142 39.9737C157.907 35.8056 150.753 36.2266 149.027 42.7116C148.306 45.4243 148.74 48.8397 150.526 51.0311Z" fill="#DBBE67"/>
<path d="M65.3091 66.7308C65.2743 66.4492 65.0227 66.3237 64.8192 66.3711C65.1137 68.5458 65.0655 70.7093 64.6211 72.8756C64.7014 72.8422 64.7764 72.7864 64.8353 72.6916C65.8311 71.1024 65.5286 68.5123 65.3091 66.7308Z" fill="#DBBE67"/>
<path d="M70.0547 64.9935C70.0547 64.224 70.6544 63.5967 71.3959 63.5967C72.1348 63.5967 72.7371 64.224 72.7371 64.9935C72.7371 65.7658 72.1348 66.3903 71.3959 66.3903C70.6544 66.3903 70.0547 65.7658 70.0547 64.9935Z" fill="#DBBE67"/>
<path d="M46.8789 144.219C46.8789 143.447 47.4786 142.822 48.2174 142.822C48.959 142.822 49.5587 143.447 49.5587 144.219C49.5587 144.989 48.959 145.616 48.2174 145.616C47.4786 145.616 46.8789 144.989 46.8789 144.219Z" fill="#DBBE67"/>
<path d="M42.6289 149.458C42.6289 148.688 43.2286 148.061 43.9701 148.061C44.709 148.061 45.3113 148.688 45.3113 149.458C45.3113 150.23 44.709 150.855 43.9701 150.855C43.2286 150.855 42.6289 150.23 42.6289 149.458Z" fill="#DBBE67"/>
<path d="M44.4414 156.902C44.4414 156.132 45.0437 155.505 45.7826 155.505C46.5242 155.505 47.1238 156.132 47.1238 156.902C47.1238 157.674 46.5242 158.299 45.7826 158.299C45.0437 158.299 44.4414 157.674 44.4414 156.902Z" fill="#DBBE67"/>
<path d="M54.1289 144.219C54.1289 143.447 54.7286 142.822 55.4701 142.822C56.2117 142.822 56.8113 143.447 56.8113 144.219C56.8113 144.989 56.2117 145.616 55.4701 145.616C54.7286 145.616 54.1289 144.989 54.1289 144.219Z" fill="#DBBE67"/>
<path d="M59.8867 149.458C59.8867 148.688 60.4864 148.061 61.2253 148.061C61.9668 148.061 62.5665 148.688 62.5665 149.458C62.5665 150.23 61.9668 150.855 61.2253 150.855C60.4864 150.855 59.8867 150.23 59.8867 149.458Z" fill="#DBBE67"/>
<path d="M64.1953 154.646C64.1953 153.877 64.795 153.252 65.5365 153.252C66.2754 153.252 66.8777 153.877 66.8777 154.646C66.8777 155.419 66.2754 156.043 65.5365 156.043C64.795 156.043 64.1953 155.419 64.1953 154.646Z" fill="#DBBE67"/>
<path d="M70.0547 159.696C70.0547 158.923 70.6544 158.299 71.3959 158.299C72.1348 158.299 72.7371 158.923 72.7371 159.696C72.7371 160.465 72.1348 161.092 71.3959 161.092C70.6544 161.092 70.0547 160.465 70.0547 159.696Z" fill="#DBBE67"/>
<path d="M74.2188 60.307C74.2188 59.5347 74.8211 58.9102 75.56 58.9102C76.3015 58.9102 76.9012 59.5347 76.9012 60.307C76.9012 61.0793 76.3015 61.7038 75.56 61.7038C74.8211 61.7038 74.2188 61.0793 74.2188 60.307Z" fill="#DBBE67"/>
<mask id="mask2_326_13684" style="mask-type:luminance" maskUnits="userSpaceOnUse" x="27" y="128" width="19" height="11">
<path d="M27.0859 128.433H45.9192V138.425H27.0859V128.433Z" fill="white"/>
</mask>
<g mask="url(#mask2_326_13684)">
<path d="M45.7833 133.393C45.8663 133.652 40.6941 139.12 35.3641 138.08C30.0313 137.037 31.6135 130.095 27.1133 129.052C27.1133 129.052 31.6991 126.707 36.4483 131.48C40.4773 135.531 45.7833 133.393 45.7833 133.393Z" fill="#DBBE67"/>
</g>
<mask id="mask3_326_13684" style="mask-type:luminance" maskUnits="userSpaceOnUse" x="111" y="188" width="29" height="20">
<path d="M111.844 188.387H139.627V207.714H111.844V188.387Z" fill="white"/>
</mask>
<g mask="url(#mask3_326_13684)">
<path d="M125.79 203.328C119.777 191.883 125.79 191.722 125.79 191.722C125.79 191.722 131.803 191.883 125.79 203.328ZM135.103 196.233C134.102 194.209 133.291 192.009 131.736 190.411C130.178 188.814 127.567 187.785 125.79 189.104C124.012 187.785 121.399 188.814 119.844 190.411C118.289 192.009 117.477 194.209 116.476 196.233C115.478 198.26 114.11 200.295 112.043 201.025C114.865 202.102 118.2 201.558 120.578 199.637C121.544 202.935 123.378 205.352 125.79 207.714C128.202 205.352 130.033 202.935 131.002 199.637C133.379 201.558 136.712 202.102 139.537 201.025C137.47 200.295 136.102 198.26 135.103 196.233Z" fill="#DBBE67"/>
</g>
<path d="M82.5763 175.794C66.0962 171.319 56.7103 181.331 56.9566 180.932C61.2774 173.867 71.884 172.448 79.155 173.315C90.3854 174.651 100.494 180.862 111.955 180.72C112.699 180.712 110.873 183.475 82.5763 175.794ZM91.4107 183.263C82.2015 182.563 76.8741 187.629 76.9866 187.473C83.8908 178.027 93.3275 182.432 104.954 183.723C105.597 183.793 101.996 184.069 91.4107 183.263ZM65.2904 169.392C71.2442 166.523 78.5286 167.864 84.5788 169.719C85.1758 169.903 77.7924 169.434 74.4621 169.27C71.4022 169.119 65.0173 169.526 65.2904 169.392ZM129.356 163.875C127.233 160.939 123.98 159.138 120.457 158.932C117.927 158.784 113.58 159.648 112.56 163.239C112.479 163.521 112.442 164.064 112.469 164.591C112.466 164.639 112.455 164.681 112.455 164.725C112.455 166.451 113.799 167.851 115.456 167.851C117.113 167.851 118.455 166.451 118.455 164.725C118.455 162.999 117.113 161.603 115.456 161.603C115.317 161.603 115.186 161.625 115.052 161.644C117.673 159.272 122.885 160.181 125.139 162.645C126.459 164.089 127.088 166.666 126.946 168.62C126.775 170.979 125.519 173.056 123.889 174.637C119.844 178.573 115.1 179.139 109.832 178.088C101.265 176.351 93.8629 171.294 86.019 167.602C82.8172 166.097 79.4736 164.616 75.9505 164.201C72.3284 163.772 68.5163 164.418 64.9825 165.274C61.679 166.075 58.4317 167.296 55.5378 169.155C53.1123 170.714 49.2279 173.569 48.7032 176.73C52.9731 174.461 58.0703 172.337 62.9479 172.337C61.1382 172.353 58.2336 174.854 56.8361 175.933C54.8899 177.433 53.1257 179.187 51.5864 181.136C48.5854 184.933 45.6245 189.924 45.7129 195.006C45.6995 194.29 53.198 186.207 68.9874 182.072C70.5428 181.665 72.1598 181.568 73.7634 181.47C74.8395 181.403 77.5595 181.961 78.4402 181.467C75.5516 183.168 73.161 185.68 71.7047 188.839C70.2109 192.09 69.0999 197.588 71.3406 200.761C72.7086 198.109 73.8437 195.232 76.0549 193.205C77.9182 191.493 80.2339 190.414 82.6084 189.723C87.462 188.312 92.5618 188.421 97.5519 188.421C106.665 188.49 117.079 189.383 124.922 183.572C130.769 179.234 134.081 170.402 129.356 163.875Z" fill="#DBBE67"/>
<path d="M115.623 191.354C115.623 191.354 108.954 189.985 101.565 195.745C96.1203 199.994 90.4609 198.379 90.4609 198.379C90.4609 198.379 99.6192 205.609 106.486 199.152C113.039 192.985 115.623 191.354 115.623 191.354Z" fill="#DBBE67"/>
<path d="M137.923 55.1269C138.3 54.6418 139.135 55.1464 139.438 55.4894C139.933 56.0553 140.064 56.8527 139.781 57.5525C139.615 57.9651 139.012 57.9456 138.996 57.4438C138.98 56.8416 138.924 56.2616 138.469 55.8406C138.335 55.7152 137.711 55.4001 137.923 55.1269ZM135.312 57.1817C135.312 58.9075 136.656 60.3071 138.314 60.3071C139.971 60.3071 141.315 58.9075 141.315 57.1817C141.315 55.4559 139.971 54.0591 138.314 54.0591C136.656 54.0591 135.312 55.4559 135.312 57.1817Z" fill="#DBBE67"/>
<path d="M149.578 58.8792C150.17 58.7816 150.761 59.2417 151.096 59.7184C151.516 60.3207 151.597 60.9898 151.487 61.7063C151.431 62.0632 150.876 62.0492 150.81 61.7063C150.711 61.2156 150.587 60.6943 150.336 60.2621C150.095 59.8523 149.693 59.6432 149.426 59.2696C149.334 59.1413 149.426 58.9015 149.578 58.8792ZM147.043 61.7621C147.45 63.4349 149.083 64.447 150.689 64.0204C152.295 63.5966 153.264 61.8959 152.858 60.2231C152.451 58.5502 150.818 57.5382 149.211 57.9648C147.605 58.3885 146.633 60.0892 147.043 61.7621Z" fill="#DBBE67"/>
<path d="M160.33 64.8626C160.927 64.7092 161.543 65.225 161.856 65.7129C162.25 66.3291 162.343 66.9954 162.097 67.6897C161.974 68.0354 161.417 68.0186 161.441 67.5977C161.465 67.146 161.369 66.6246 161.141 66.2315C160.903 65.8189 160.518 65.6516 160.215 65.317C160.086 65.172 160.135 64.9155 160.33 64.8626ZM157.484 67.2436C157.484 68.9694 158.828 70.369 160.485 70.369C162.143 70.369 163.486 68.9694 163.486 67.2436C163.486 65.5178 162.143 64.1182 160.485 64.1182C158.828 64.1182 157.484 65.5178 157.484 67.2436Z" fill="#DBBE67"/>
<path d="M169.029 72.7223C169.562 72.4073 170.282 72.7028 170.697 73.1099C171.211 73.6201 171.399 74.2864 171.289 75.0002C171.225 75.4184 170.598 75.3849 170.51 75.0002C170.414 74.5848 170.28 74.1582 170.007 73.8292C169.726 73.4946 169.367 73.3915 169.029 73.1517C168.885 73.0485 168.864 72.8199 169.029 72.7223ZM166.465 74.621C166.465 76.3468 167.809 77.7464 169.466 77.7464C171.123 77.7464 172.464 76.3468 172.464 74.621C172.464 72.8952 171.123 71.4956 169.466 71.4956C167.809 71.4956 166.465 72.8952 166.465 74.621Z" fill="#DBBE67"/>
<path d="M176.771 81.1586C177.173 80.9635 177.655 81.2506 177.955 81.5267C178.437 81.97 178.587 82.5331 178.442 83.1744C178.362 83.5396 177.885 83.4197 177.853 83.0908C177.775 82.2989 177.334 82.0062 176.771 81.6047C176.632 81.5071 176.589 81.2479 176.771 81.1586ZM173.594 83.3891C173.594 85.1121 174.938 86.5117 176.592 86.5117C178.252 86.5117 179.593 85.1121 179.593 83.3891C179.593 81.6605 178.252 80.2637 176.592 80.2637C174.938 80.2637 173.594 81.6605 173.594 83.3891Z" fill="#DBBE67"/>
<path d="M182.905 92.1327C183.925 92.0853 184.538 93.2312 184.431 94.1596C184.399 94.4524 183.952 94.5862 183.888 94.2349C183.821 93.8864 183.695 93.4905 183.502 93.1922C183.307 92.8883 183.015 92.7238 182.766 92.4784C182.638 92.353 182.742 92.1411 182.905 92.1327ZM179.594 94.3241C179.594 96.0499 180.938 97.4495 182.595 97.4495C184.252 97.4495 185.596 96.0499 185.596 94.3241C185.596 92.5983 184.252 91.1987 182.595 91.1987C180.938 91.1987 179.594 92.5983 179.594 94.3241Z" fill="#DBBE67"/>
<path d="M186.529 105.189C187.064 105.125 187.618 105.602 187.902 106.037C188.245 106.558 188.37 107.207 188.148 107.804C188.025 108.133 187.487 108.231 187.409 107.804C187.332 107.378 187.3 106.918 187.077 106.538C186.863 106.179 186.499 105.981 186.28 105.638C186.148 105.429 186.33 105.211 186.529 105.189ZM183.375 107.545C183.375 109.271 184.719 110.67 186.376 110.67C188.033 110.67 189.377 109.271 189.377 107.545C189.377 105.819 188.033 104.419 186.376 104.419C184.719 104.419 183.375 105.819 183.375 107.545Z" fill="#DBBE67"/>
<path d="M187.445 118.059C188.735 117.529 189.613 119.179 189.372 120.297C189.295 120.663 188.775 120.638 188.687 120.297C188.585 119.924 188.518 119.508 188.275 119.202C188.034 118.901 187.694 118.825 187.37 118.661C187.097 118.524 187.217 118.151 187.445 118.059ZM184.543 120.105C184.543 121.831 185.887 123.23 187.544 123.23C189.201 123.23 190.545 121.831 190.545 120.105C190.545 118.382 189.201 116.982 187.544 116.982C185.887 116.982 184.543 118.382 184.543 120.105Z" fill="#DBBE67"/>
<path d="M181.715 64.9935C181.715 64.224 181.115 63.5967 180.376 63.5967C179.635 63.5967 179.035 64.224 179.035 64.9935C179.035 65.7658 179.635 66.3903 180.376 66.3903C181.115 66.3903 181.715 65.7658 181.715 64.9935Z" fill="#DBBE67"/>
<path d="M204.891 144.219C204.891 143.447 204.291 142.822 203.552 142.822C202.811 142.822 202.211 143.447 202.211 144.219C202.211 144.989 202.811 145.616 203.552 145.616C204.291 145.616 204.891 144.989 204.891 144.219Z" fill="#DBBE67"/>
<path d="M209.143 149.458C209.143 148.688 208.541 148.061 207.802 148.061C207.061 148.061 206.461 148.688 206.461 149.458C206.461 150.23 207.061 150.855 207.802 150.855C208.541 150.855 209.143 150.23 209.143 149.458Z" fill="#DBBE67"/>
<path d="M207.331 156.902C207.331 156.132 206.731 155.505 205.99 155.505C205.248 155.505 204.648 156.132 204.648 156.902C204.648 157.674 205.248 158.299 205.99 158.299C206.731 158.299 207.331 157.674 207.331 156.902Z" fill="#DBBE67"/>
<path d="M197.639 144.219C197.639 143.447 197.04 142.822 196.298 142.822C195.559 142.822 194.957 143.447 194.957 144.219C194.957 144.989 195.559 145.616 196.298 145.616C197.04 145.616 197.639 144.989 197.639 144.219Z" fill="#DBBE67"/>
<path d="M191.883 149.458C191.883 148.688 191.283 148.061 190.544 148.061C189.803 148.061 189.203 148.688 189.203 149.458C189.203 150.23 189.803 150.855 190.544 150.855C191.283 150.855 191.883 150.23 191.883 149.458Z" fill="#DBBE67"/>
<path d="M187.574 154.646C187.574 153.877 186.975 153.252 186.236 153.252C185.494 153.252 184.895 153.877 184.895 154.646C184.895 155.419 185.494 156.043 186.236 156.043C186.975 156.043 187.574 155.419 187.574 154.646Z" fill="#DBBE67"/>
<path d="M181.715 159.696C181.715 158.923 181.115 158.299 180.376 158.299C179.635 158.299 179.035 158.923 179.035 159.696C179.035 160.465 179.635 161.092 180.376 161.092C181.115 161.092 181.715 160.465 181.715 159.696Z" fill="#DBBE67"/>
<path d="M177.55 60.307C177.55 59.5347 176.95 58.9102 176.208 58.9102C175.467 58.9102 174.867 59.5347 174.867 60.307C174.867 61.0793 175.467 61.7038 176.208 61.7038C176.95 61.7038 177.55 61.0793 177.55 60.307Z" fill="#DBBE67"/>
<mask id="mask4_326_13684" style="mask-type:luminance" maskUnits="userSpaceOnUse" x="205" y="128" width="20" height="11">
<path d="M205.84 128.433H224.462V138.225H205.84V128.433Z" fill="white"/>
</mask>
<g mask="url(#mask4_326_13684)">
<path d="M205.989 133.393C205.906 133.652 211.078 139.12 216.408 138.08C221.744 137.037 220.159 130.095 224.659 129.052C224.659 129.052 220.076 126.707 215.324 131.48C211.295 135.531 205.989 133.393 205.989 133.393Z" fill="#DBBE67"/>
</g>
<path d="M139.352 180.72C150.816 180.862 160.922 174.651 172.152 173.315C179.423 172.448 190.032 173.867 194.353 180.932C194.597 181.331 185.211 171.319 168.733 175.794C140.434 183.475 138.608 180.712 139.352 180.72ZM146.356 183.723C157.98 182.432 167.419 178.027 174.323 187.473C174.436 187.629 169.105 182.563 159.896 183.263C149.314 184.069 145.71 183.793 146.356 183.723ZM176.845 169.27C173.517 169.434 166.131 169.903 166.731 169.719C172.778 167.864 180.065 166.523 186.017 169.392C186.29 169.526 179.905 169.119 176.845 169.27ZM126.385 183.572C134.231 189.383 144.642 188.49 153.755 188.421C158.748 188.421 163.845 188.312 168.699 189.723C171.076 190.414 173.389 191.493 175.255 193.205C177.463 195.232 178.598 198.109 179.969 200.761C182.21 197.588 181.099 192.09 179.602 188.839C178.149 185.68 175.758 183.168 172.869 181.467C173.75 181.961 176.467 181.403 177.546 181.47C179.147 181.568 180.764 181.665 182.32 182.072C198.112 186.207 205.608 194.29 205.597 195.006C205.685 189.924 202.722 184.933 199.721 181.136C198.184 179.187 196.42 177.433 194.474 175.933C193.073 174.854 190.169 172.353 188.359 172.337C193.239 172.337 198.334 174.461 202.607 176.73C202.082 173.569 198.197 170.714 195.772 169.155C192.875 167.296 189.628 166.075 186.324 165.274C182.791 164.418 178.981 163.772 175.356 164.201C171.836 164.616 168.49 166.097 165.291 167.602C157.444 171.294 150.042 176.351 141.475 178.088C136.209 179.139 131.463 178.573 127.418 174.637C125.788 173.056 124.532 170.979 124.361 168.62C124.222 166.666 124.848 164.089 126.168 162.645C128.422 160.181 133.637 159.272 136.258 161.644C136.124 161.625 135.99 161.603 135.853 161.603C134.196 161.603 132.852 162.999 132.852 164.725C132.852 166.451 134.196 167.851 135.853 167.851C137.511 167.851 138.852 166.451 138.852 164.725C138.852 164.681 138.841 164.639 138.841 164.591C138.865 164.064 138.828 163.521 138.747 163.239C137.727 159.648 133.38 158.784 130.85 158.932C127.327 159.138 124.077 160.939 121.951 163.875C117.229 170.402 120.541 179.234 126.385 183.572Z" fill="#DBBE67"/>
<path d="M136.145 191.354C136.145 191.354 142.813 189.985 150.202 195.745C155.65 199.994 161.306 198.379 161.306 198.379C161.306 198.379 152.148 205.609 145.281 199.152C138.728 192.985 136.145 191.354 136.145 191.354Z" fill="#DBBE67"/>
<path d="M125.658 63.0142C95.4342 63.0142 70.8398 88.628 70.8398 120.105C70.8398 148.702 91.1321 172.451 117.512 176.56C117.568 176.574 117.625 176.591 117.686 176.591C117.997 176.591 118.248 176.329 118.248 176.005C118.248 175.699 118.018 175.453 117.729 175.428C91.9272 171.372 71.9508 148.1 71.9508 120.105C71.9508 89.2637 96.0446 64.1712 125.658 64.1712C155.262 64.1712 179.355 89.2637 179.355 120.105C179.355 148.253 159.518 171.572 133.505 175.428C133.154 175.42 132.903 175.682 132.903 176.005C132.903 176.329 133.154 176.591 133.465 176.591C160.046 172.668 180.466 148.853 180.466 120.105C180.466 88.628 155.885 63.0142 125.658 63.0142Z" fill="#DBBE67"/>
<mask id="mask5_326_13684" style="mask-type:luminance" maskUnits="userSpaceOnUse" x="101" y="10" width="49" height="35">
<path d="M101.43 10.9194H149.403V44.9253H101.43V10.9194Z" fill="white"/>
</mask>
<g mask="url(#mask5_326_13684)">
<path d="M137.918 42.837C137.409 42.837 136.989 42.4105 136.989 41.8696C136.989 41.3399 137.409 40.9021 137.918 40.9021C138.437 40.9021 138.847 41.3399 138.847 41.8696C138.847 42.4105 138.437 42.837 137.918 42.837ZM133.72 42.837C133.212 42.837 132.791 42.4105 132.791 41.8696C132.791 41.3399 133.212 40.9021 133.72 40.9021C134.24 40.9021 134.649 41.3399 134.649 41.8696C134.649 42.4105 134.24 42.837 133.72 42.837ZM129.523 42.837C129.014 42.837 128.596 42.4105 128.596 41.8696C128.596 41.3399 129.014 40.9021 129.523 40.9021C130.034 40.9021 130.454 41.3399 130.454 41.8696C130.454 42.4105 130.034 42.837 129.523 42.837ZM125.381 42.8259C124.897 42.7924 124.511 42.3937 124.511 41.8696C124.511 41.3566 124.897 40.9495 125.381 40.9133C125.868 40.9495 126.254 41.3566 126.254 41.8696C126.254 42.3937 125.868 42.7924 125.381 42.8259ZM121.242 42.837C120.731 42.837 120.313 42.4105 120.313 41.8696C120.313 41.3399 120.731 40.9021 121.242 40.9021C121.751 40.9021 122.171 41.3399 122.171 41.8696C122.171 42.4105 121.751 42.837 121.242 42.837ZM117.045 42.837C116.525 42.837 116.116 42.4105 116.116 41.8696C116.116 41.3399 116.525 40.9021 117.045 40.9021C117.553 40.9021 117.974 41.3399 117.974 41.8696C117.974 42.4105 117.553 42.837 117.045 42.837ZM112.847 42.837C112.328 42.837 111.918 42.4105 111.918 41.8696C111.918 41.3399 112.328 40.9021 112.847 40.9021C113.358 40.9021 113.776 41.3399 113.776 41.8696C113.776 42.4105 113.358 42.837 112.847 42.837ZM136.579 28.7267C136.288 29.6747 136.352 30.7007 136.697 31.6291C137.281 33.1848 137.91 36.0481 135.605 37.6875C132.328 40.0406 129.142 36.9961 128.54 33.5361C127.922 30.0064 128.741 27.447 131.41 26.5939C134.066 25.7407 125.33 10.9194 125.33 10.9194C125.33 10.9194 116.699 25.7407 119.358 26.5939C122.024 27.447 122.843 30.0064 122.225 33.5361C121.625 36.9961 118.437 40.0406 115.16 37.6875C112.855 36.0481 113.484 33.1848 114.068 31.6291C114.413 30.7007 114.477 29.6747 114.186 28.7267C111.956 21.4945 101.539 21.5865 101.539 21.5865C111.683 36.1987 111.573 44.5154 111.573 44.5154H139.192C139.192 44.5154 139.082 36.1987 149.226 21.5865C149.226 21.5865 138.812 21.4945 136.579 28.7267Z" fill="#DBBE67"/>
</g>
<path d="M137.602 46.5479H113.165C112.344 46.5479 111.68 47.2393 111.68 48.0924C111.68 48.9484 112.344 49.6398 113.165 49.6398H137.602C138.421 49.6398 139.085 48.9484 139.085 48.0924C139.085 47.2393 138.421 46.5479 137.602 46.5479Z" fill="#DBBE67"/>
<mask id="mask6_326_13684" style="mask-type:luminance" maskUnits="userSpaceOnUse" x="-26" y="-27" width="309" height="323">
<path d="M282.701 -26.0918H-25.6992V295.092H282.701V-26.0918Z" fill="black" fill-opacity="0.25"/>
</mask>
<g mask="url(#mask6_326_13684)">
<mask id="mask7_326_13684" style="mask-type:luminance" maskUnits="userSpaceOnUse" x="79" y="72" width="94" height="98">
<path d="M172.02 72.7612H79.5V169.116H172.02V72.7612Z" fill="white"/>
</mask>
<g mask="url(#mask7_326_13684)">
<mask id="mask8_326_13684" style="mask-type:luminance" maskUnits="userSpaceOnUse" x="125" y="73" width="2" height="96">
<path d="M125.418 73.3745H126.789V168.659H125.418V73.3745Z" fill="white"/>
</mask>
<g mask="url(#mask8_326_13684)">
<path d="M125.885 168.598C125.684 168.598 125.523 168.428 125.523 168.218V73.7509C125.523 73.5418 125.684 73.3745 125.885 73.3745C126.086 73.3745 126.249 73.5418 126.249 73.7509V168.218C126.249 168.428 126.086 168.598 125.885 168.598Z" fill="#DBBE67"/>
</g>
<path d="M133.762 167.881C133.588 167.881 133.435 167.75 133.406 167.569L117.654 74.5344C117.619 74.3281 117.75 74.1329 117.949 74.0966C118.147 74.0604 118.334 74.197 118.369 74.4033L134.121 167.435C134.156 167.641 134.022 167.836 133.826 167.873C133.805 167.878 133.783 167.881 133.762 167.881Z" fill="#DBBE67"/>
<path d="M133.762 167.881C133.588 167.881 133.435 167.75 133.406 167.569L117.654 74.5344C117.619 74.3281 117.75 74.1329 117.949 74.0966C118.147 74.0604 118.334 74.197 118.369 74.4033L134.121 167.435C134.156 167.641 134.022 167.836 133.826 167.873C133.805 167.878 133.783 167.881 133.762 167.881Z" fill="#DBBE67"/>
<path d="M141.396 165.748C141.247 165.748 141.107 165.653 141.054 165.5L110.029 76.7285C109.962 76.5334 110.059 76.3159 110.246 76.2462C110.436 76.1737 110.645 76.2741 110.712 76.472L141.736 165.241C141.803 165.439 141.707 165.653 141.52 165.726C141.479 165.743 141.437 165.748 141.396 165.748Z" fill="#DBBE67"/>
<path d="M141.396 165.748C141.247 165.748 141.107 165.653 141.054 165.5L110.029 76.7285C109.962 76.5334 110.059 76.3159 110.246 76.2462C110.436 76.1737 110.645 76.2741 110.712 76.472L141.736 165.241C141.803 165.439 141.707 165.653 141.52 165.726C141.479 165.743 141.437 165.748 141.396 165.748Z" fill="#DBBE67"/>
<path d="M148.564 162.269C148.438 162.269 148.318 162.202 148.251 162.079L102.896 80.2694C102.797 80.0882 102.856 79.8568 103.03 79.7536C103.201 79.6477 103.423 79.709 103.525 79.8902L148.877 161.703C148.979 161.884 148.92 162.115 148.746 162.219C148.687 162.252 148.626 162.269 148.564 162.269Z" fill="#DBBE67"/>
<path d="M148.564 162.269C148.438 162.269 148.318 162.202 148.251 162.079L102.896 80.2694C102.797 80.0882 102.856 79.8568 103.03 79.7536C103.201 79.6477 103.423 79.709 103.525 79.8902L148.877 161.703C148.979 161.884 148.92 162.115 148.746 162.219C148.687 162.252 148.626 162.269 148.564 162.269Z" fill="#DBBE67"/>
<path d="M155.036 157.546C154.932 157.546 154.83 157.501 154.758 157.412L96.4535 85.0454C96.3224 84.8865 96.3438 84.6467 96.4964 84.5129C96.6516 84.379 96.8792 84.3986 97.0077 84.5603L155.315 156.927C155.443 157.086 155.422 157.326 155.269 157.459C155.202 157.518 155.119 157.546 155.036 157.546Z" fill="#DBBE67"/>
<path d="M155.036 157.546C154.932 157.546 154.83 157.501 154.758 157.412L96.4535 85.0454C96.3224 84.8865 96.3438 84.6467 96.4964 84.5129C96.6516 84.379 96.8792 84.3986 97.0077 84.5603L155.315 156.927C155.443 157.086 155.422 157.326 155.269 157.459C155.202 157.518 155.119 157.546 155.036 157.546Z" fill="#DBBE67"/>
<path d="M160.626 151.724C160.543 151.724 160.46 151.696 160.393 151.635L90.907 90.9141C90.7544 90.7803 90.733 90.5405 90.8615 90.3816C90.99 90.2227 91.2202 90.2004 91.3728 90.3342L160.859 151.058C161.014 151.192 161.033 151.429 160.905 151.59C160.832 151.68 160.731 151.724 160.626 151.724Z" fill="#DBBE67"/>
<path d="M160.626 151.724C160.543 151.724 160.46 151.696 160.393 151.635L90.907 90.9141C90.7544 90.7803 90.733 90.5405 90.8615 90.3816C90.99 90.2227 91.2202 90.2004 91.3728 90.3342L160.859 151.058C161.014 151.192 161.033 151.429 160.905 151.59C160.832 151.68 160.731 151.724 160.626 151.724Z" fill="#DBBE67"/>
<path d="M165.164 144.98C165.102 144.98 165.04 144.963 164.982 144.93L86.4279 97.6946C86.2539 97.5914 86.195 97.36 86.2941 97.1788C86.3931 96.9976 86.6153 96.9362 86.7894 97.0422L165.346 144.275C165.52 144.38 165.579 144.612 165.477 144.79C165.41 144.913 165.289 144.98 165.164 144.98Z" fill="#DBBE67"/>
<path d="M165.164 144.98C165.102 144.98 165.04 144.963 164.982 144.93L86.4279 97.6946C86.2539 97.5914 86.195 97.36 86.2941 97.1788C86.3931 96.9976 86.6153 96.9362 86.7894 97.0422L165.346 144.275C165.52 144.38 165.579 144.612 165.477 144.79C165.41 144.913 165.289 144.98 165.164 144.98Z" fill="#DBBE67"/>
<path d="M168.503 137.519C168.463 137.519 168.42 137.511 168.38 137.497L83.1415 105.186C82.9541 105.114 82.855 104.896 82.9247 104.701C82.9943 104.506 83.2004 104.403 83.3905 104.475L168.626 136.786C168.816 136.856 168.913 137.073 168.843 137.271C168.789 137.425 168.65 137.519 168.503 137.519Z" fill="#DBBE67"/>
<path d="M168.503 137.519C168.463 137.519 168.42 137.511 168.38 137.497L83.1415 105.186C82.9541 105.114 82.855 104.896 82.9247 104.701C82.9943 104.506 83.2004 104.403 83.3905 104.475L168.626 136.786C168.816 136.856 168.913 137.073 168.843 137.271C168.789 137.425 168.65 137.519 168.503 137.519Z" fill="#DBBE67"/>
<path d="M170.55 129.565C170.531 129.565 170.51 129.565 170.488 129.559L81.1568 113.154C80.9613 113.118 80.8302 112.923 80.865 112.717C80.8998 112.513 81.0872 112.374 81.2853 112.41L170.614 128.815C170.812 128.851 170.943 129.049 170.909 129.253C170.877 129.437 170.724 129.565 170.55 129.565Z" fill="#DBBE67"/>
<path d="M170.55 129.565C170.531 129.565 170.51 129.565 170.488 129.559L81.1568 113.154C80.9613 113.118 80.8302 112.923 80.865 112.717C80.8998 112.513 81.0872 112.374 81.2853 112.41L170.614 128.815C170.812 128.851 170.943 129.049 170.909 129.253C170.877 129.437 170.724 129.565 170.55 129.565Z" fill="#DBBE67"/>
<mask id="mask9_326_13684" style="mask-type:luminance" maskUnits="userSpaceOnUse" x="80" y="120" width="92" height="3">
<path d="M80.168 120.582H171.66V122.009H80.168V120.582Z" fill="white"/>
</mask>
<g mask="url(#mask9_326_13684)">
<path d="M171.24 121.362H80.5321C80.3313 121.362 80.168 121.195 80.168 120.986C80.168 120.777 80.3313 120.606 80.5321 120.606H171.24C171.44 120.606 171.601 120.777 171.601 120.986C171.601 121.195 171.44 121.362 171.24 121.362Z" fill="#DBBE67"/>
<path d="M171.24 121.362H80.5321C80.3313 121.362 80.168 121.195 80.168 120.986C80.168 120.777 80.3313 120.606 80.5321 120.606H171.24C171.44 120.606 171.601 120.777 171.601 120.986C171.601 121.195 171.44 121.362 171.24 121.362Z" fill="#DBBE67"/>
</g>
<path d="M81.221 129.565C81.047 129.565 80.8944 129.437 80.865 129.253C80.8302 129.049 80.9613 128.851 81.1568 128.815L170.488 112.41C170.684 112.374 170.874 112.513 170.909 112.717C170.943 112.923 170.812 113.118 170.614 113.154L81.2853 129.559C81.2639 129.565 81.2424 129.565 81.221 129.565Z" fill="#DBBE67"/>
<path d="M81.221 129.565C81.047 129.565 80.8944 129.437 80.865 129.253C80.8302 129.049 80.9613 128.851 81.1568 128.815L170.488 112.41C170.684 112.374 170.874 112.513 170.909 112.717C170.943 112.923 170.812 113.118 170.614 113.154L81.2853 129.559C81.2639 129.565 81.2424 129.565 81.221 129.565Z" fill="#DBBE67"/>
<path d="M83.2646 137.519C83.1174 137.519 82.9782 137.424 82.9247 137.271C82.855 137.073 82.9541 136.856 83.1415 136.786L168.38 104.475C168.567 104.406 168.776 104.506 168.843 104.701C168.913 104.896 168.816 105.114 168.626 105.186L83.3905 137.497C83.3476 137.511 83.3075 137.519 83.2646 137.519Z" fill="#DBBE67"/>
<path d="M83.2646 137.519C83.1174 137.519 82.9782 137.424 82.9247 137.271C82.855 137.073 82.9541 136.856 83.1415 136.786L168.38 104.475C168.567 104.406 168.776 104.506 168.843 104.701C168.913 104.896 168.816 105.114 168.626 105.186L83.3905 137.497C83.3476 137.511 83.3075 137.519 83.2646 137.519Z" fill="#DBBE67"/>
<path d="M86.6073 144.98C86.4842 144.98 86.361 144.913 86.2941 144.79C86.195 144.612 86.2539 144.38 86.4279 144.275L164.982 97.0422C165.156 96.9362 165.378 96.9976 165.477 97.1788C165.579 97.36 165.52 97.5914 165.346 97.6946L86.7894 144.93C86.7331 144.963 86.6689 144.98 86.6073 144.98Z" fill="#DBBE67"/>
<path d="M86.6073 144.98C86.4842 144.98 86.361 144.913 86.2941 144.79C86.195 144.612 86.2539 144.38 86.4279 144.275L164.982 97.0422C165.156 96.9362 165.378 96.9976 165.477 97.1788C165.579 97.36 165.52 97.5914 165.346 97.6946L86.7894 144.93C86.7331 144.963 86.6689 144.98 86.6073 144.98Z" fill="#DBBE67"/>
<path d="M91.1399 151.724C91.0382 151.724 90.9338 151.68 90.8615 151.59C90.733 151.429 90.7544 151.192 90.907 151.058L160.393 90.3342C160.546 90.2004 160.776 90.2227 160.905 90.3816C161.033 90.5405 161.014 90.7803 160.859 90.9141L91.3728 151.635C91.3059 151.696 91.2229 151.724 91.1399 151.724Z" fill="#DBBE67"/>
<path d="M91.1399 151.724C91.0382 151.724 90.9338 151.68 90.8615 151.59C90.733 151.429 90.7544 151.192 90.907 151.058L160.393 90.3342C160.546 90.2004 160.776 90.2227 160.905 90.3816C161.033 90.5405 161.014 90.7803 160.859 90.9141L91.3728 151.635C91.3059 151.696 91.2229 151.724 91.1399 151.724Z" fill="#DBBE67"/>
<path d="M96.7293 157.546C96.649 157.546 96.566 157.518 96.4964 157.459C96.3438 157.326 96.3224 157.086 96.4535 156.927L154.758 84.5603C154.886 84.3986 155.116 84.379 155.269 84.5129C155.422 84.6467 155.443 84.8865 155.315 85.0454L97.0077 157.412C96.9354 157.501 96.8337 157.546 96.7293 157.546Z" fill="#DBBE67"/>
<path d="M96.7293 157.546C96.649 157.546 96.566 157.518 96.4964 157.459C96.3438 157.326 96.3224 157.086 96.4535 156.927L154.758 84.5603C154.886 84.3986 155.116 84.379 155.269 84.5129C155.422 84.6467 155.443 84.8865 155.315 85.0454L97.0077 157.412C96.9354 157.501 96.8337 157.546 96.7293 157.546Z" fill="#DBBE67"/>
<path d="M103.209 162.269C103.147 162.269 103.086 162.252 103.03 162.219C102.856 162.115 102.797 161.884 102.896 161.703L148.251 79.8902C148.35 79.709 148.572 79.6477 148.746 79.7536C148.92 79.8568 148.979 80.0882 148.877 80.2694L103.525 162.079C103.458 162.202 103.335 162.269 103.209 162.269Z" fill="#DBBE67"/>
<path d="M103.209 162.269C103.147 162.269 103.086 162.252 103.03 162.219C102.856 162.115 102.797 161.884 102.896 161.703L148.251 79.8902C148.35 79.709 148.572 79.6477 148.746 79.7536C148.92 79.8568 148.979 80.0882 148.877 80.2694L103.525 162.079C103.458 162.202 103.335 162.269 103.209 162.269Z" fill="#DBBE67"/>
<path d="M110.372 165.748C110.329 165.748 110.289 165.743 110.246 165.726C110.059 165.653 109.962 165.439 110.029 165.241L141.054 76.472C141.123 76.2741 141.33 76.1737 141.52 76.2462C141.707 76.3159 141.803 76.5334 141.736 76.7285L110.712 165.5C110.658 165.653 110.519 165.748 110.372 165.748Z" fill="#DBBE67"/>
<path d="M110.372 165.748C110.329 165.748 110.289 165.743 110.246 165.726C110.059 165.653 109.962 165.439 110.029 165.241L141.054 76.472C141.123 76.2741 141.33 76.1737 141.52 76.2462C141.707 76.3159 141.803 76.5334 141.736 76.7285L110.712 165.5C110.658 165.653 110.519 165.748 110.372 165.748Z" fill="#DBBE67"/>
<path d="M118.01 167.881C117.991 167.881 117.97 167.878 117.949 167.873C117.75 167.836 117.619 167.641 117.654 167.435L133.406 74.4033C133.441 74.197 133.628 74.0604 133.826 74.0966C134.022 74.1329 134.156 74.3281 134.121 74.5344L118.369 167.569C118.337 167.75 118.184 167.881 118.01 167.881Z" fill="#DBBE67"/>
</g>
</g>
<path d="M132.797 142.98C134.01 142.98 134.944 142.665 135.603 142.032C136.679 140.911 137.241 139.718 137.284 138.452V119.817H114.539V138.374C114.539 139.646 114.981 140.733 115.867 141.631C116.759 142.531 117.816 142.98 119.037 142.98H119.872L119.947 143.716H98.6055V142.98H99.5264C100.739 142.98 101.778 142.531 102.643 141.631C103.505 140.733 103.962 139.646 104.013 138.374V97.8806C103.962 96.6176 103.505 95.5358 102.643 94.6353C101.778 93.7292 100.739 93.2747 99.5264 93.2747H98.6055V92.5498H119.947L119.872 93.2747H119.037C117.816 93.2747 116.759 93.7292 115.867 94.6353C114.981 95.5358 114.539 96.6176 114.539 97.8806V116.672H137.284V97.8806C137.241 96.6176 136.783 95.5358 135.913 94.6353C135.049 93.7292 134.01 93.2747 132.797 93.2747H131.876V92.5498H153.218V93.2747H152.308C151.087 93.2747 150.03 93.7292 149.138 94.6353C148.252 95.5358 147.81 96.6176 147.81 97.8806V138.374C147.81 139.646 148.252 140.733 149.138 141.631C150.03 142.531 151.087 142.98 152.308 142.98H153.218V143.716H131.876V142.98H132.797Z" fill="white"/>
</g>
<defs>
<clipPath id="clip0_326_13684">
<rect width="257" height="267.653" fill="white" transform="translate(0 0.67334)"/>
</clipPath>
</defs>
</svg>
